<svg width="947" height="946" viewBox="0 0 947 946" fill="none" xmlns="http://www.w3.org/2000/svg">
<g filter="url(#filter0_d_16_681)">
<rect x="44" y="19" width="858.547" height="858.547" rx="121.718" fill="white"/>
</g>
<mask id="path-2-outside-1_16_681" maskUnits="userSpaceOnUse" x="356" y="202" width="177" height="508" fill="black">
<rect fill="white" x="356" y="202" width="177" height="508"/>
<path d="M505.475 446.076C505.475 454.117 505.898 465.542 506.744 480.354C508.014 495.165 509.283 511.457 510.553 529.23C512.245 546.581 513.938 564.566 515.631 583.186C517.324 601.382 519.016 618.098 520.709 633.332C522.402 648.143 523.671 660.627 524.518 670.783C525.787 680.516 526.422 685.594 526.422 686.018C526.422 690.673 524.729 694.481 521.344 697.443C518.382 700.829 514.15 702.945 508.648 703.791C503.993 703.791 499.973 702.31 496.588 699.348C493.202 696.385 491.298 692.577 490.875 687.922C490.452 686.652 489.605 680.939 488.336 670.783C487.49 660.627 486.22 647.932 484.527 632.697C483.258 617.463 481.777 600.747 480.084 582.551C478.391 564.354 476.699 546.581 475.006 529.23C473.736 511.88 472.467 495.799 471.197 480.988C470.351 466.177 469.928 454.54 469.928 446.076C469.928 434.65 469.505 420.474 468.658 403.547C467.812 386.62 466.754 369.058 465.484 350.861C464.215 332.665 462.522 314.68 460.406 296.906C458.714 279.133 457.021 263.898 455.328 251.203C446.865 257.128 438.613 262.84 430.572 268.342C422.955 273.843 416.184 278.71 410.26 282.941C404.758 287.173 400.315 290.559 396.93 293.098L391.217 297.541C388.255 300.503 384.658 301.984 380.426 301.984C374.924 301.984 370.481 299.868 367.096 295.637C364.133 292.674 362.652 288.866 362.652 284.211C362.652 279.133 364.345 274.901 367.73 271.516C368.154 271.092 370.904 268.977 375.982 265.168C381.061 260.936 387.408 256.07 395.025 250.568C403.066 244.644 411.952 238.296 421.686 231.525C431.419 224.331 441.363 217.561 451.52 211.213C454.482 209.52 457.656 208.674 461.041 208.674C464.426 208.674 467.812 209.732 471.197 211.848C475.006 212.271 478.391 213.752 481.354 216.291C484.316 218.83 486.22 222.004 487.066 225.812C489.605 237.661 491.933 253.531 494.049 273.42C496.165 292.886 498.069 313.41 499.762 334.992C501.454 356.574 502.724 377.521 503.57 397.834C504.84 417.723 505.475 433.804 505.475 446.076Z"/>
</mask>
<path d="M505.475 446.076C505.475 454.117 505.898 465.542 506.744 480.354C508.014 495.165 509.283 511.457 510.553 529.23C512.245 546.581 513.938 564.566 515.631 583.186C517.324 601.382 519.016 618.098 520.709 633.332C522.402 648.143 523.671 660.627 524.518 670.783C525.787 680.516 526.422 685.594 526.422 686.018C526.422 690.673 524.729 694.481 521.344 697.443C518.382 700.829 514.15 702.945 508.648 703.791C503.993 703.791 499.973 702.31 496.588 699.348C493.202 696.385 491.298 692.577 490.875 687.922C490.452 686.652 489.605 680.939 488.336 670.783C487.49 660.627 486.22 647.932 484.527 632.697C483.258 617.463 481.777 600.747 480.084 582.551C478.391 564.354 476.699 546.581 475.006 529.23C473.736 511.88 472.467 495.799 471.197 480.988C470.351 466.177 469.928 454.54 469.928 446.076C469.928 434.65 469.505 420.474 468.658 403.547C467.812 386.62 466.754 369.058 465.484 350.861C464.215 332.665 462.522 314.68 460.406 296.906C458.714 279.133 457.021 263.898 455.328 251.203C446.865 257.128 438.613 262.84 430.572 268.342C422.955 273.843 416.184 278.71 410.26 282.941C404.758 287.173 400.315 290.559 396.93 293.098L391.217 297.541C388.255 300.503 384.658 301.984 380.426 301.984C374.924 301.984 370.481 299.868 367.096 295.637C364.133 292.674 362.652 288.866 362.652 284.211C362.652 279.133 364.345 274.901 367.73 271.516C368.154 271.092 370.904 268.977 375.982 265.168C381.061 260.936 387.408 256.07 395.025 250.568C403.066 244.644 411.952 238.296 421.686 231.525C431.419 224.331 441.363 217.561 451.52 211.213C454.482 209.52 457.656 208.674 461.041 208.674C464.426 208.674 467.812 209.732 471.197 211.848C475.006 212.271 478.391 213.752 481.354 216.291C484.316 218.83 486.22 222.004 487.066 225.812C489.605 237.661 491.933 253.531 494.049 273.42C496.165 292.886 498.069 313.41 499.762 334.992C501.454 356.574 502.724 377.521 503.57 397.834C504.84 417.723 505.475 433.804 505.475 446.076Z" fill="#FEB333"/>
<path d="M506.744 480.354L500.754 480.696L500.759 480.781L500.766 480.866L506.744 480.354ZM510.553 529.23L504.568 529.658L504.574 529.736L504.581 529.813L510.553 529.23ZM515.631 583.186L509.655 583.729L509.657 583.741L515.631 583.186ZM520.709 633.332L514.746 633.995L514.747 634.004L514.748 634.013L520.709 633.332ZM524.518 670.783L518.538 671.281L518.55 671.421L518.568 671.559L524.518 670.783ZM521.344 697.443L517.393 692.928L517.092 693.191L516.828 693.492L521.344 697.443ZM508.648 703.791V709.791H509.107L509.561 709.721L508.648 703.791ZM496.588 699.348L492.637 703.863L496.588 699.348ZM490.875 687.922L496.85 687.379L496.787 686.685L496.567 686.025L490.875 687.922ZM488.336 670.783L482.357 671.281L482.367 671.405L482.382 671.527L488.336 670.783ZM484.527 632.697L478.548 633.196L478.555 633.278L478.564 633.36L484.527 632.697ZM475.006 529.23L469.022 529.668L469.027 529.741L469.034 529.813L475.006 529.23ZM471.197 480.988L465.207 481.331L465.212 481.416L465.219 481.501L471.197 480.988ZM460.406 296.906L454.433 297.475L454.44 297.545L454.448 297.616L460.406 296.906ZM455.328 251.203L461.275 250.41L459.971 240.629L451.887 246.288L455.328 251.203ZM430.572 268.342L427.184 263.39L427.121 263.433L427.059 263.478L430.572 268.342ZM410.26 282.941L406.772 278.059L406.686 278.121L406.602 278.186L410.26 282.941ZM396.93 293.098L393.33 288.298L393.288 288.329L393.246 288.362L396.93 293.098ZM391.217 297.541L387.533 292.805L387.238 293.034L386.974 293.298L391.217 297.541ZM367.096 295.637L371.781 291.889L371.573 291.629L371.338 291.394L367.096 295.637ZM367.73 271.516L363.488 267.273L367.73 271.516ZM375.982 265.168L379.582 269.968L379.705 269.876L379.824 269.777L375.982 265.168ZM395.025 250.568L398.538 255.432L398.562 255.416L398.585 255.399L395.025 250.568ZM421.686 231.525L425.112 236.451L425.183 236.402L425.252 236.35L421.686 231.525ZM451.52 211.213L448.543 206.003L448.44 206.062L448.34 206.125L451.52 211.213ZM471.197 211.848L468.017 216.936L469.176 217.66L470.535 217.811L471.197 211.848ZM487.066 225.812L492.933 224.555L492.928 224.533L492.924 224.511L487.066 225.812ZM494.049 273.42L488.082 274.055L488.084 274.068L494.049 273.42ZM503.57 397.834L497.576 398.084L497.578 398.15L497.582 398.216L503.57 397.834ZM505.475 446.076H499.475C499.475 454.288 499.905 465.848 500.754 480.696L506.744 480.354L512.734 480.011C511.89 465.236 511.475 453.945 511.475 446.076H505.475ZM506.744 480.354L500.766 480.866C502.033 495.644 503.3 511.907 504.568 529.658L510.553 529.23L516.537 528.803C515.266 511.007 513.995 494.685 512.722 479.841L506.744 480.354ZM510.553 529.23L504.581 529.813C506.272 547.149 507.964 565.121 509.656 583.729L515.631 583.186L521.606 582.642C519.912 564.01 518.218 546.012 516.524 528.648L510.553 529.23ZM515.631 583.186L509.657 583.741C511.352 601.967 513.048 618.719 514.746 633.995L520.709 633.332L526.672 632.669C524.984 617.477 523.295 600.797 521.605 582.63L515.631 583.186ZM520.709 633.332L514.748 634.013C516.436 648.789 517.699 661.207 518.538 671.281L524.518 670.783L530.497 670.285C529.644 660.047 528.367 647.498 526.67 632.651L520.709 633.332ZM524.518 670.783L518.568 671.559C519.202 676.423 519.677 680.113 519.992 682.636C520.15 683.899 520.266 684.856 520.342 685.515C520.448 686.434 520.422 686.356 520.422 686.018H526.422H532.422C532.422 685.468 532.316 684.596 532.263 684.14C532.181 683.424 532.059 682.423 531.899 681.147C531.58 678.592 531.102 674.877 530.467 670.007L524.518 670.783ZM526.422 686.018H520.422C520.422 689.011 519.425 691.149 517.393 692.928L521.344 697.443L525.295 701.959C530.033 697.813 532.422 692.334 532.422 686.018H526.422ZM521.344 697.443L516.828 693.492C515.002 695.58 512.183 697.177 507.736 697.861L508.648 703.791L509.561 709.721C516.116 708.713 521.761 706.078 525.859 701.394L521.344 697.443ZM508.648 703.791V697.791C505.391 697.791 502.79 696.802 500.539 694.832L496.588 699.348L492.637 703.863C497.157 707.818 502.596 709.791 508.648 709.791V703.791ZM496.588 699.348L500.539 694.832C498.363 692.928 497.14 690.565 496.85 687.379L490.875 687.922L484.9 688.465C485.456 694.589 488.042 699.843 492.637 703.863L496.588 699.348ZM490.875 687.922L496.567 686.025C496.614 686.166 496.546 685.968 496.381 685.063C496.239 684.282 496.065 683.204 495.858 681.806C495.445 679.016 494.922 675.101 494.29 670.039L488.336 670.783L482.382 671.527C483.019 676.622 483.555 680.641 483.988 683.564C484.378 686.198 484.765 688.567 485.183 689.819L490.875 687.922ZM488.336 670.783L494.315 670.285C493.463 660.054 492.187 647.3 490.491 632.035L484.527 632.697L478.564 633.36C480.253 648.564 481.517 661.2 482.357 671.281L488.336 670.783ZM484.527 632.697L490.507 632.199C489.235 616.942 487.752 600.207 486.058 581.995L480.084 582.551L474.11 583.107C475.801 601.288 477.28 617.984 478.548 633.196L484.527 632.697ZM480.084 582.551L486.058 581.995C484.365 563.79 482.671 546.007 480.978 528.648L475.006 529.23L469.034 529.813C470.726 547.154 472.418 564.918 474.11 583.107L480.084 582.551ZM475.006 529.23L480.99 528.793C479.719 511.422 478.447 495.316 477.175 480.476L471.197 480.988L465.219 481.501C466.486 496.283 467.754 512.339 469.022 529.668L475.006 529.23ZM471.197 480.988L477.187 480.646C476.344 465.878 475.928 454.372 475.928 446.076H469.928H463.928C463.928 454.708 464.358 466.476 465.207 481.331L471.197 480.988ZM469.928 446.076H475.928C475.928 434.515 475.5 420.231 474.651 403.247L468.658 403.547L462.666 403.847C463.509 420.716 463.928 434.785 463.928 446.076H469.928ZM468.658 403.547L474.651 403.247C473.802 386.278 472.742 368.677 471.47 350.444L465.484 350.861L459.499 351.279C460.766 369.439 461.821 386.962 462.666 403.847L468.658 403.547ZM465.484 350.861L471.47 350.444C470.194 332.152 468.492 314.069 466.364 296.197L460.406 296.906L454.448 297.616C456.552 315.29 458.236 333.178 459.499 351.279L465.484 350.861ZM460.406 296.906L466.379 296.337C464.682 278.516 462.981 263.203 461.275 250.41L455.328 251.203L449.381 251.996C451.061 264.594 452.745 279.75 454.433 297.475L460.406 296.906ZM455.328 251.203L451.887 246.288C443.44 252.201 435.206 257.901 427.184 263.39L430.572 268.342L433.96 273.294C442.019 267.78 450.289 262.055 458.769 256.119L455.328 251.203ZM430.572 268.342L427.059 263.478C419.448 268.975 412.686 273.835 406.772 278.059L410.26 282.941L413.747 287.824C419.682 283.585 426.462 278.712 434.085 273.206L430.572 268.342ZM410.26 282.941L406.602 278.186C401.109 282.411 396.687 285.779 393.33 288.298L396.93 293.098L400.53 297.898C403.943 295.338 408.408 291.936 413.918 287.697L410.26 282.941ZM396.93 293.098L393.246 288.362L387.533 292.805L391.217 297.541L394.9 302.277L400.613 297.834L396.93 293.098ZM391.217 297.541L386.974 293.298C385.15 295.123 383.084 295.984 380.426 295.984V301.984V307.984C386.231 307.984 391.359 305.884 395.459 301.784L391.217 297.541ZM380.426 301.984V295.984C376.715 295.984 374.008 294.672 371.781 291.889L367.096 295.637L362.41 299.385C366.954 305.065 373.134 307.984 380.426 307.984V301.984ZM367.096 295.637L371.338 291.394C369.631 289.687 368.652 287.468 368.652 284.211H362.652H356.652C356.652 290.263 358.636 295.662 362.853 299.879L367.096 295.637ZM362.652 284.211H368.652C368.652 280.617 369.786 277.945 371.973 275.758L367.73 271.516L363.488 267.273C358.904 271.857 356.652 277.649 356.652 284.211H362.652ZM367.73 271.516L371.973 275.758C371.798 275.933 371.768 275.937 372.232 275.566C372.586 275.283 373.094 274.887 373.769 274.367C375.115 273.331 377.05 271.867 379.582 269.968L375.982 265.168L372.382 260.368C369.837 262.277 367.857 263.775 366.453 264.856C365.265 265.769 364.051 266.71 363.488 267.273L367.73 271.516ZM375.982 265.168L379.824 269.777C384.761 265.662 390.991 260.883 398.538 255.432L395.025 250.568L391.512 245.704C383.825 251.256 377.36 256.21 372.141 260.559L375.982 265.168ZM395.025 250.568L398.585 255.399C406.574 249.512 415.416 243.196 425.112 236.451L421.686 231.525L418.259 226.6C408.489 233.396 399.558 239.776 391.466 245.738L395.025 250.568ZM421.686 231.525L425.252 236.35C434.861 229.248 444.677 222.565 454.7 216.301L451.52 211.213L448.34 206.125C438.05 212.556 427.976 219.415 418.119 226.7L421.686 231.525ZM451.52 211.213L454.496 216.422C456.559 215.243 458.708 214.674 461.041 214.674V208.674V202.674C456.603 202.674 452.404 203.797 448.543 206.003L451.52 211.213ZM461.041 208.674V214.674C463.114 214.674 465.412 215.307 468.017 216.936L471.197 211.848L474.377 206.76C470.212 204.156 465.739 202.674 461.041 202.674V208.674ZM471.197 211.848L470.535 217.811C473.123 218.099 475.384 219.076 477.449 220.847L481.354 216.291L485.258 211.735C481.399 208.427 476.889 206.443 471.86 205.884L471.197 211.848ZM481.354 216.291L477.449 220.847C479.425 222.541 480.645 224.573 481.209 227.114L487.066 225.812L492.924 224.511C491.796 219.435 489.206 215.119 485.258 211.735L481.354 216.291ZM487.066 225.812L481.2 227.07C483.676 238.624 485.977 254.259 488.082 274.055L494.049 273.42L500.015 272.785C497.889 252.802 495.535 236.699 492.933 224.555L487.066 225.812ZM494.049 273.42L488.084 274.068C490.193 293.469 492.092 313.933 493.78 335.461L499.762 334.992L505.743 334.523C504.046 312.887 502.137 292.303 500.014 272.772L494.049 273.42ZM499.762 334.992L493.78 335.461C495.467 356.975 496.732 377.849 497.576 398.084L503.57 397.834L509.565 397.584C508.716 377.194 507.441 356.173 505.743 334.523L499.762 334.992ZM503.57 397.834L497.582 398.216C498.848 418.046 499.475 433.985 499.475 446.076H505.475H511.475C511.475 433.623 510.831 417.401 509.558 397.452L503.57 397.834Z" fill="#FEB333" mask="url(#path-2-outside-1_16_681)"/>
<defs>
<filter id="filter0_d_16_681" x="0.43347" y="0.328629" width="945.68" height="945.679" filterUnits="userSpaceOnUse" color-interpolation-filters="sRGB">
<feFlood flood-opacity="0" result="BackgroundImageFix"/>
<feColorMatrix in="SourceAlpha" type="matrix" values="0 0 0 0 0 0 0 0 0 0 0 0 0 0 0 0 0 0 127 0" result="hardAlpha"/>
<feMorphology radius="18.6714" operator="dilate" in="SourceAlpha" result="effect1_dropShadow_16_681"/>
<feOffset dy="24.8952"/>
<feGaussianBlur stdDeviation="12.4476"/>
<feComposite in2="hardAlpha" operator="out"/>
<feColorMatrix type="matrix" values="0 0 0 0 0.12549 0 0 0 0 0.278431 0 0 0 0 0.27451 0 0 0 0.28 0"/>
<feBlend mode="normal" in2="BackgroundImageFix" result="effect1_dropShadow_16_681"/>
<feBlend mode="normal" in="SourceGraphic" in2="effect1_dropShadow_16_681" result="shape"/>
</filter>
</defs>
</svg>
