<svg width="947" height="946" viewBox="0 0 947 946" fill="none" xmlns="http://www.w3.org/2000/svg">
<g filter="url(#filter0_d_18_699)">
<rect x="44" y="19" width="858.547" height="858.547" rx="121.718" fill="white"/>
</g>
<mask id="path-2-outside-1_18_699" maskUnits="userSpaceOnUse" x="270" y="221" width="393" height="482" fill="black">
<rect fill="white" x="270" y="221" width="393" height="482"/>
<path d="M597.252 412.434C597.675 407.779 599.368 404.182 602.33 401.643C605.292 398.68 608.466 396.776 611.852 395.93C608.043 378.156 602.33 361.441 594.713 345.783C587.096 330.126 576.939 316.584 564.244 305.158C548.587 291.617 531.236 281.037 512.193 273.42C493.15 265.803 473.473 261.994 453.16 261.994C433.271 261.994 413.382 266.014 393.492 274.055C368.525 284.634 348.424 299.868 333.189 319.758C318.378 339.647 310.973 362.287 310.973 387.678C310.973 392.333 311.184 397.199 311.607 402.277C312.454 406.932 313.3 411.799 314.146 416.877C319.648 439.729 329.804 459.195 344.615 475.275C359.426 491.356 378.469 502.359 401.744 508.283C408.938 510.399 416.344 511.88 423.961 512.727C431.578 513.15 439.618 513.361 448.082 513.361C464.586 513.361 481.301 511.457 498.229 507.648C515.579 503.84 531.236 497.915 545.201 489.875C559.589 481.411 571.438 470.832 580.748 458.137C590.481 445.441 595.982 430.207 597.252 412.434ZM383.971 239.777C395.396 235.546 407.034 232.583 418.883 230.891C431.155 228.775 443.427 227.717 455.699 227.717C482.359 227.717 507.962 232.795 532.506 242.951C557.473 252.684 579.267 267.919 597.887 288.654C608.043 300.08 616.718 312.987 623.912 327.375C631.529 341.34 637.665 356.151 642.32 371.809C647.398 387.466 650.995 403.547 653.111 420.051C655.227 436.555 656.285 453.059 656.285 469.562C656.285 483.104 655.65 496.223 654.381 508.918C653.111 521.613 650.995 533.885 648.033 545.734C639.57 584.243 624.124 616.193 601.695 641.584C579.267 666.975 548.163 683.69 508.385 691.73C499.921 693.423 491.669 694.693 483.629 695.539C475.589 696.385 467.337 696.809 458.873 696.809C432.636 696.809 408.092 691.942 385.24 682.209C362.389 672.476 343.134 655.972 327.477 632.697C325.361 629.312 324.303 626.138 324.303 623.176C324.303 618.521 326.207 614.712 330.016 611.75C334.247 608.365 338.691 606.672 343.346 606.672C349.693 606.672 354.56 609.211 357.945 614.289C369.371 631.639 383.971 644.123 401.744 651.74C419.941 658.934 438.984 662.531 458.873 662.531C470.299 662.531 481.725 661.473 493.15 659.357C504.999 656.818 516.214 653.433 526.793 649.201C542.451 643.277 555.781 635.448 566.783 625.715C577.786 615.982 586.884 604.768 594.078 592.072C601.695 579.377 607.408 565.624 611.217 550.812C615.025 536.001 617.564 520.555 618.834 504.475C619.257 499.396 619.469 494.318 619.469 489.24C619.469 483.739 619.469 478.026 619.469 472.102V461.311C612.275 476.122 602.542 489.029 590.27 500.031C577.997 511.034 564.244 520.344 549.01 527.961C533.775 535.155 517.483 540.656 500.133 544.465C483.206 548.273 466.067 550.178 448.717 550.178C419.518 550.178 392.223 544.676 366.832 533.674C336.363 519.709 313.723 500.031 298.912 474.641C284.101 448.827 276.695 421.743 276.695 393.391C276.695 377.31 279.023 361.441 283.678 345.783C288.333 330.126 295.104 315.526 303.99 301.984C313.3 288.443 324.514 276.382 337.633 265.803C351.174 254.8 366.62 246.125 383.971 239.777Z"/>
</mask>
<path d="M597.252 412.434C597.675 407.779 599.368 404.182 602.33 401.643C605.292 398.68 608.466 396.776 611.852 395.93C608.043 378.156 602.33 361.441 594.713 345.783C587.096 330.126 576.939 316.584 564.244 305.158C548.587 291.617 531.236 281.037 512.193 273.42C493.15 265.803 473.473 261.994 453.16 261.994C433.271 261.994 413.382 266.014 393.492 274.055C368.525 284.634 348.424 299.868 333.189 319.758C318.378 339.647 310.973 362.287 310.973 387.678C310.973 392.333 311.184 397.199 311.607 402.277C312.454 406.932 313.3 411.799 314.146 416.877C319.648 439.729 329.804 459.195 344.615 475.275C359.426 491.356 378.469 502.359 401.744 508.283C408.938 510.399 416.344 511.88 423.961 512.727C431.578 513.15 439.618 513.361 448.082 513.361C464.586 513.361 481.301 511.457 498.229 507.648C515.579 503.84 531.236 497.915 545.201 489.875C559.589 481.411 571.438 470.832 580.748 458.137C590.481 445.441 595.982 430.207 597.252 412.434ZM383.971 239.777C395.396 235.546 407.034 232.583 418.883 230.891C431.155 228.775 443.427 227.717 455.699 227.717C482.359 227.717 507.962 232.795 532.506 242.951C557.473 252.684 579.267 267.919 597.887 288.654C608.043 300.08 616.718 312.987 623.912 327.375C631.529 341.34 637.665 356.151 642.32 371.809C647.398 387.466 650.995 403.547 653.111 420.051C655.227 436.555 656.285 453.059 656.285 469.562C656.285 483.104 655.65 496.223 654.381 508.918C653.111 521.613 650.995 533.885 648.033 545.734C639.57 584.243 624.124 616.193 601.695 641.584C579.267 666.975 548.163 683.69 508.385 691.73C499.921 693.423 491.669 694.693 483.629 695.539C475.589 696.385 467.337 696.809 458.873 696.809C432.636 696.809 408.092 691.942 385.24 682.209C362.389 672.476 343.134 655.972 327.477 632.697C325.361 629.312 324.303 626.138 324.303 623.176C324.303 618.521 326.207 614.712 330.016 611.75C334.247 608.365 338.691 606.672 343.346 606.672C349.693 606.672 354.56 609.211 357.945 614.289C369.371 631.639 383.971 644.123 401.744 651.74C419.941 658.934 438.984 662.531 458.873 662.531C470.299 662.531 481.725 661.473 493.15 659.357C504.999 656.818 516.214 653.433 526.793 649.201C542.451 643.277 555.781 635.448 566.783 625.715C577.786 615.982 586.884 604.768 594.078 592.072C601.695 579.377 607.408 565.624 611.217 550.812C615.025 536.001 617.564 520.555 618.834 504.475C619.257 499.396 619.469 494.318 619.469 489.24C619.469 483.739 619.469 478.026 619.469 472.102V461.311C612.275 476.122 602.542 489.029 590.27 500.031C577.997 511.034 564.244 520.344 549.01 527.961C533.775 535.155 517.483 540.656 500.133 544.465C483.206 548.273 466.067 550.178 448.717 550.178C419.518 550.178 392.223 544.676 366.832 533.674C336.363 519.709 313.723 500.031 298.912 474.641C284.101 448.827 276.695 421.743 276.695 393.391C276.695 377.31 279.023 361.441 283.678 345.783C288.333 330.126 295.104 315.526 303.99 301.984C313.3 288.443 324.514 276.382 337.633 265.803C351.174 254.8 366.62 246.125 383.971 239.777Z" fill="#B4D965"/>
<path d="M597.252 412.434L591.277 411.89L591.271 411.948L591.267 412.006L597.252 412.434ZM602.33 401.643L606.235 406.198L606.41 406.048L606.573 405.885L602.33 401.643ZM611.852 395.93L613.307 401.751L618.934 400.344L617.718 394.673L611.852 395.93ZM564.244 305.158L568.258 300.698L568.214 300.659L568.169 300.62L564.244 305.158ZM393.492 274.055L391.243 268.492L391.197 268.511L391.151 268.53L393.492 274.055ZM333.189 319.758L328.426 316.109L328.401 316.142L328.377 316.174L333.189 319.758ZM311.607 402.277L305.628 402.776L305.652 403.065L305.704 403.351L311.607 402.277ZM314.146 416.877L308.228 417.863L308.263 418.074L308.313 418.281L314.146 416.877ZM344.615 475.275L340.202 479.34L344.615 475.275ZM401.744 508.283L403.437 502.527L403.331 502.496L403.224 502.469L401.744 508.283ZM423.961 512.727L423.298 518.69L423.463 518.708L423.628 518.717L423.961 512.727ZM498.229 507.648L496.942 501.788L496.927 501.791L496.911 501.795L498.229 507.648ZM545.201 489.875L548.195 495.075L548.219 495.061L548.243 495.047L545.201 489.875ZM580.748 458.137L575.986 454.486L575.947 454.537L575.91 454.589L580.748 458.137ZM383.971 239.777L386.032 245.412L386.043 245.408L386.055 245.404L383.971 239.777ZM418.883 230.891L419.731 236.83L419.817 236.818L419.902 236.803L418.883 230.891ZM532.506 242.951L530.212 248.495L530.269 248.519L530.327 248.541L532.506 242.951ZM597.887 288.654L602.371 284.668L602.361 284.657L602.351 284.646L597.887 288.654ZM623.912 327.375L618.546 330.058L618.593 330.154L618.645 330.248L623.912 327.375ZM642.32 371.809L636.569 373.518L636.59 373.589L636.613 373.66L642.32 371.809ZM648.033 545.734L642.212 544.279L642.192 544.363L642.173 544.446L648.033 545.734ZM601.695 641.584L597.198 637.612L601.695 641.584ZM508.385 691.73L509.561 697.614L509.573 697.612L508.385 691.73ZM483.629 695.539L484.257 701.506L483.629 695.539ZM327.477 632.697L322.389 635.877L322.442 635.963L322.498 636.046L327.477 632.697ZM330.016 611.75L333.699 616.486L333.732 616.461L333.764 616.435L330.016 611.75ZM357.945 614.289L362.956 610.989L362.947 610.975L362.938 610.961L357.945 614.289ZM401.744 651.74L399.381 657.255L399.459 657.289L399.538 657.32L401.744 651.74ZM493.15 659.357L494.243 665.257L494.325 665.242L494.408 665.224L493.15 659.357ZM526.793 649.201L524.67 643.589L524.617 643.609L524.565 643.63L526.793 649.201ZM566.783 625.715L562.808 621.221L566.783 625.715ZM594.078 592.072L588.933 588.985L588.895 589.049L588.858 589.114L594.078 592.072ZM618.834 504.475L612.855 503.976L612.854 503.989L612.853 504.002L618.834 504.475ZM619.469 461.311H625.469L614.072 458.689L619.469 461.311ZM590.27 500.031L586.264 495.564L590.27 500.031ZM549.01 527.961L551.572 533.386L551.633 533.358L551.693 533.328L549.01 527.961ZM500.133 544.465L498.846 538.604L498.831 538.608L498.816 538.611L500.133 544.465ZM366.832 533.674L364.332 539.128L364.389 539.154L364.446 539.179L366.832 533.674ZM298.912 474.641L293.708 477.627L293.719 477.645L293.729 477.664L298.912 474.641ZM303.99 301.984L299.046 298.585L299.009 298.638L298.974 298.692L303.99 301.984ZM337.633 265.803L341.399 270.473L341.408 270.466L341.416 270.459L337.633 265.803ZM597.252 412.434L603.227 412.977C603.539 409.549 604.688 407.524 606.235 406.198L602.33 401.643L598.425 397.087C594.048 400.839 591.811 406.008 591.277 411.89L597.252 412.434ZM602.33 401.643L606.573 405.885C608.921 403.537 611.17 402.285 613.307 401.751L611.852 395.93L610.396 390.109C605.762 391.267 601.664 393.824 598.087 397.4L602.33 401.643ZM611.852 395.93L617.718 394.673C613.813 376.447 607.946 359.27 600.108 343.158L594.713 345.783L589.317 348.408C596.714 363.612 602.273 379.866 605.985 397.187L611.852 395.93ZM594.713 345.783L600.108 343.158C592.16 326.82 581.539 312.651 568.258 300.698L564.244 305.158L560.23 309.618C572.34 320.517 582.032 333.432 589.317 348.408L594.713 345.783ZM564.244 305.158L568.169 300.62C552.012 286.646 534.089 275.716 514.422 267.849L512.193 273.42L509.965 278.991C528.383 286.358 545.161 296.587 560.319 309.696L564.244 305.158ZM512.193 273.42L514.422 267.849C494.677 259.951 474.244 255.994 453.16 255.994V261.994V267.994C472.702 267.994 491.624 271.654 509.965 278.991L512.193 273.42ZM453.16 261.994V255.994C432.441 255.994 411.791 260.186 391.243 268.492L393.492 274.055L395.741 279.617C414.972 271.843 434.1 267.994 453.16 267.994V261.994ZM393.492 274.055L391.151 268.53C365.309 279.48 344.344 295.328 328.426 316.109L333.189 319.758L337.953 323.406C352.504 304.409 371.741 289.788 395.833 279.579L393.492 274.055ZM333.189 319.758L328.377 316.174C312.775 337.125 304.973 361.029 304.973 387.678H310.973H316.973C316.973 363.545 323.981 342.169 338.002 323.341L333.189 319.758ZM310.973 387.678H304.973C304.973 392.514 305.192 397.547 305.628 402.776L311.607 402.277L317.587 401.779C317.176 396.851 316.973 392.152 316.973 387.678H310.973ZM311.607 402.277L305.704 403.351C306.545 407.974 307.386 412.812 308.228 417.863L314.146 416.877L320.065 415.891C319.214 410.786 318.363 405.89 317.511 401.204L311.607 402.277ZM314.146 416.877L308.313 418.281C314.035 442.049 324.647 462.452 340.202 479.34L344.615 475.275L349.029 471.211C334.961 455.937 325.261 437.408 319.98 415.473L314.146 416.877ZM344.615 475.275L340.202 479.34C355.878 496.36 375.978 507.916 400.264 514.098L401.744 508.283L403.224 502.469C380.961 496.802 362.975 486.353 349.029 471.211L344.615 475.275ZM401.744 508.283L400.051 514.039C407.589 516.256 415.34 517.806 423.298 518.69L423.961 512.727L424.624 506.763C417.348 505.955 410.287 504.542 403.437 502.527L401.744 508.283ZM423.961 512.727L423.628 518.717C431.367 519.147 439.519 519.361 448.082 519.361V513.361V507.361C439.718 507.361 431.789 507.152 424.294 506.736L423.961 512.727ZM448.082 513.361V519.361C465.051 519.361 482.208 517.403 499.546 513.502L498.229 507.648L496.911 501.795C480.395 505.511 464.121 507.361 448.082 507.361V513.361ZM498.229 507.648L499.515 513.509C517.404 509.582 533.647 503.451 548.195 495.075L545.201 489.875L542.207 484.675C528.826 492.38 513.754 498.098 496.942 501.788L498.229 507.648ZM545.201 489.875L548.243 495.047C563.291 486.195 575.766 475.077 585.586 461.685L580.748 458.137L575.91 454.589C567.111 466.587 555.887 476.628 542.159 484.703L545.201 489.875ZM580.748 458.137L585.51 461.787C596.037 448.056 601.893 431.667 603.237 412.861L597.252 412.434L591.267 412.006C590.071 428.747 584.925 442.827 575.986 454.486L580.748 458.137ZM383.971 239.777L386.055 245.404C397.088 241.317 408.312 238.462 419.731 236.83L418.883 230.891L418.034 224.951C405.756 226.705 393.705 229.774 381.887 234.151L383.971 239.777ZM418.883 230.891L419.902 236.803C431.843 234.745 443.774 233.717 455.699 233.717V227.717V221.717C443.08 221.717 430.467 222.805 417.863 224.978L418.883 230.891ZM455.699 227.717V233.717C481.575 233.717 506.398 238.641 530.212 248.495L532.506 242.951L534.8 237.407C509.526 226.949 483.144 221.717 455.699 221.717V227.717ZM532.506 242.951L530.327 248.541C554.384 257.92 575.404 272.597 593.422 292.663L597.887 288.654L602.351 284.646C583.13 263.24 560.563 247.449 534.685 237.361L532.506 242.951ZM597.887 288.654L593.402 292.64C603.191 303.653 611.575 316.117 618.546 330.058L623.912 327.375L629.279 324.692C621.861 309.857 612.895 296.508 602.371 284.668L597.887 288.654ZM623.912 327.375L618.645 330.248C626.055 343.833 632.031 358.254 636.569 373.518L642.32 371.809L648.072 370.099C643.3 354.048 637.004 338.846 629.179 324.502L623.912 327.375ZM642.32 371.809L636.613 373.66C641.575 388.959 645.091 404.675 647.16 420.814L653.111 420.051L659.063 419.288C656.9 402.418 653.222 385.973 648.028 369.958L642.32 371.809ZM653.111 420.051L647.16 420.814C649.244 437.067 650.285 453.316 650.285 469.562H656.285H662.285C662.285 452.801 661.211 436.043 659.063 419.288L653.111 420.051ZM656.285 469.562H650.285C650.285 482.917 649.659 495.836 648.411 508.321L654.381 508.918L660.351 509.515C661.642 496.61 662.285 483.291 662.285 469.562H656.285ZM654.381 508.918L648.411 508.321C647.169 520.74 645.101 532.724 642.212 544.279L648.033 545.734L653.854 547.19C656.89 535.046 659.054 522.487 660.351 509.515L654.381 508.918ZM648.033 545.734L642.173 544.446C633.892 582.124 618.848 613.102 597.198 637.612L601.695 641.584L606.192 645.556C629.399 619.284 645.247 586.363 653.893 547.022L648.033 545.734ZM601.695 641.584L597.198 637.612C575.797 661.84 545.955 678.015 507.196 685.849L508.385 691.73L509.573 697.612C550.372 689.365 582.737 672.109 606.192 645.556L601.695 641.584ZM508.385 691.73L507.208 685.847C498.914 687.506 490.845 688.746 483.001 689.572L483.629 695.539L484.257 701.506C492.493 700.639 500.929 699.341 509.561 697.614L508.385 691.73ZM483.629 695.539L483.001 689.572C475.179 690.395 467.137 690.809 458.873 690.809V696.809V702.809C467.537 702.809 475.999 702.375 484.257 701.506L483.629 695.539ZM458.873 696.809V690.809C433.398 690.809 409.658 686.088 387.591 676.689L385.24 682.209L382.889 687.729C406.525 697.796 431.874 702.809 458.873 702.809V696.809ZM385.24 682.209L387.591 676.689C365.941 667.467 347.551 651.789 332.455 629.348L327.477 632.697L322.498 636.046C338.717 660.155 358.836 677.484 382.889 687.729L385.24 682.209ZM327.477 632.697L332.565 629.517C330.844 626.764 330.303 624.686 330.303 623.176H324.303H318.303C318.303 627.59 319.878 631.86 322.389 635.877L327.477 632.697ZM324.303 623.176H330.303C330.303 620.45 331.29 618.36 333.699 616.486L330.016 611.75L326.332 607.014C321.124 611.064 318.303 616.592 318.303 623.176H324.303ZM330.016 611.75L333.764 616.435C337.114 613.755 340.27 612.672 343.346 612.672V606.672V600.672C337.111 600.672 331.38 602.975 326.267 607.065L330.016 611.75ZM343.346 606.672V612.672C347.784 612.672 350.733 614.287 352.953 617.617L357.945 614.289L362.938 610.961C358.387 604.135 351.603 600.672 343.346 600.672V606.672ZM357.945 614.289L352.934 617.589C364.956 635.845 380.446 649.14 399.381 657.255L401.744 651.74L404.108 646.225C387.496 639.106 373.786 627.434 362.956 610.989L357.945 614.289ZM401.744 651.74L399.538 657.32C418.449 664.796 438.241 668.531 458.873 668.531V662.531V656.531C439.726 656.531 421.433 653.072 403.95 646.16L401.744 651.74ZM458.873 662.531V668.531C470.671 668.531 482.463 667.439 494.243 665.257L493.15 659.357L492.058 653.458C480.986 655.508 469.926 656.531 458.873 656.531V662.531ZM493.15 659.357L494.408 665.224C506.567 662.619 518.108 659.137 529.021 654.772L526.793 649.201L524.565 643.63C514.319 647.728 503.432 651.018 491.893 653.491L493.15 659.357ZM526.793 649.201L528.916 654.813C545.16 648.667 559.141 640.486 570.759 630.209L566.783 625.715L562.808 621.221C552.42 630.41 539.741 637.887 524.67 643.589L526.793 649.201ZM566.783 625.715L570.759 630.209C582.255 620.039 591.775 608.307 599.298 595.03L594.078 592.072L588.858 589.114C581.993 601.228 573.317 611.924 562.808 621.221L566.783 625.715ZM594.078 592.072L599.223 595.159C607.148 581.952 613.08 567.66 617.028 552.307L611.217 550.812L605.406 549.318C601.737 563.588 596.243 576.802 588.933 588.985L594.078 592.072ZM611.217 550.812L617.028 552.307C620.927 537.143 623.52 521.354 624.815 504.947L618.834 504.475L612.853 504.002C611.609 519.757 609.124 534.86 605.406 549.318L611.217 550.812ZM618.834 504.475L624.813 504.973C625.25 499.73 625.469 494.485 625.469 489.24H619.469H613.469C613.469 494.151 613.264 499.063 612.855 503.976L618.834 504.475ZM619.469 489.24H625.469C625.469 489.229 625.469 489.219 625.469 489.208C625.469 489.197 625.469 489.187 625.469 489.176C625.469 489.165 625.469 489.154 625.469 489.144C625.469 489.133 625.469 489.122 625.469 489.111C625.469 489.101 625.469 489.09 625.469 489.079C625.469 489.068 625.469 489.057 625.469 489.047C625.469 489.036 625.469 489.025 625.469 489.014C625.469 489.004 625.469 488.993 625.469 488.982C625.469 488.971 625.469 488.961 625.469 488.95C625.469 488.939 625.469 488.928 625.469 488.918C625.469 488.907 625.469 488.896 625.469 488.885C625.469 488.875 625.469 488.864 625.469 488.853C625.469 488.842 625.469 488.832 625.469 488.821C625.469 488.81 625.469 488.799 625.469 488.788C625.469 488.778 625.469 488.767 625.469 488.756C625.469 488.745 625.469 488.735 625.469 488.724C625.469 488.713 625.469 488.702 625.469 488.692C625.469 488.681 625.469 488.67 625.469 488.659C625.469 488.648 625.469 488.638 625.469 488.627C625.469 488.616 625.469 488.605 625.469 488.595C625.469 488.584 625.469 488.573 625.469 488.562C625.469 488.551 625.469 488.541 625.469 488.53C625.469 488.519 625.469 488.508 625.469 488.498C625.469 488.487 625.469 488.476 625.469 488.465C625.469 488.454 625.469 488.444 625.469 488.433C625.469 488.422 625.469 488.411 625.469 488.401C625.469 488.39 625.469 488.379 625.469 488.368C625.469 488.357 625.469 488.347 625.469 488.336C625.469 488.325 625.469 488.314 625.469 488.303C625.469 488.293 625.469 488.282 625.469 488.271C625.469 488.26 625.469 488.249 625.469 488.239C625.469 488.228 625.469 488.217 625.469 488.206C625.469 488.195 625.469 488.185 625.469 488.174C625.469 488.163 625.469 488.152 625.469 488.141C625.469 488.131 625.469 488.12 625.469 488.109C625.469 488.098 625.469 488.087 625.469 488.077C625.469 488.066 625.469 488.055 625.469 488.044C625.469 488.033 625.469 488.023 625.469 488.012C625.469 488.001 625.469 487.99 625.469 487.979C625.469 487.969 625.469 487.958 625.469 487.947C625.469 487.936 625.469 487.925 625.469 487.915C625.469 487.904 625.469 487.893 625.469 487.882C625.469 487.871 625.469 487.861 625.469 487.85C625.469 487.839 625.469 487.828 625.469 487.817C625.469 487.806 625.469 487.796 625.469 487.785C625.469 487.774 625.469 487.763 625.469 487.752C625.469 487.742 625.469 487.731 625.469 487.72C625.469 487.709 625.469 487.698 625.469 487.687C625.469 487.677 625.469 487.666 625.469 487.655C625.469 487.644 625.469 487.633 625.469 487.622C625.469 487.612 625.469 487.601 625.469 487.59C625.469 487.579 625.469 487.568 625.469 487.558C625.469 487.547 625.469 487.536 625.469 487.525C625.469 487.514 625.469 487.503 625.469 487.493C625.469 487.482 625.469 487.471 625.469 487.46C625.469 487.449 625.469 487.438 625.469 487.428C625.469 487.417 625.469 487.406 625.469 487.395C625.469 487.384 625.469 487.373 625.469 487.363C625.469 487.352 625.469 487.341 625.469 487.33C625.469 487.319 625.469 487.308 625.469 487.297C625.469 487.287 625.469 487.276 625.469 487.265C625.469 487.254 625.469 487.243 625.469 487.232C625.469 487.222 625.469 487.211 625.469 487.2C625.469 487.189 625.469 487.178 625.469 487.167C625.469 487.156 625.469 487.146 625.469 487.135C625.469 487.124 625.469 487.113 625.469 487.102C625.469 487.091 625.469 487.081 625.469 487.07C625.469 487.059 625.469 487.048 625.469 487.037C625.469 487.026 625.469 487.015 625.469 487.005C625.469 486.994 625.469 486.983 625.469 486.972C625.469 486.961 625.469 486.95 625.469 486.939C625.469 486.929 625.469 486.918 625.469 486.907C625.469 486.896 625.469 486.885 625.469 486.874C625.469 486.863 625.469 486.853 625.469 486.842C625.469 486.831 625.469 486.82 625.469 486.809C625.469 486.798 625.469 486.787 625.469 486.776C625.469 486.766 625.469 486.755 625.469 486.744C625.469 486.733 625.469 486.722 625.469 486.711C625.469 486.7 625.469 486.689 625.469 486.679C625.469 486.668 625.469 486.657 625.469 486.646C625.469 486.635 625.469 486.624 625.469 486.613C625.469 486.603 625.469 486.592 625.469 486.581C625.469 486.57 625.469 486.559 625.469 486.548C625.469 486.537 625.469 486.526 625.469 486.515C625.469 486.505 625.469 486.494 625.469 486.483C625.469 486.472 625.469 486.461 625.469 486.45C625.469 486.439 625.469 486.428 625.469 486.418C625.469 486.407 625.469 486.396 625.469 486.385C625.469 486.374 625.469 486.363 625.469 486.352C625.469 486.341 625.469 486.33 625.469 486.32C625.469 486.309 625.469 486.298 625.469 486.287C625.469 486.276 625.469 486.265 625.469 486.254C625.469 486.243 625.469 486.232 625.469 486.222C625.469 486.211 625.469 486.2 625.469 486.189C625.469 486.178 625.469 486.167 625.469 486.156C625.469 486.145 625.469 486.134 625.469 486.123C625.469 486.113 625.469 486.102 625.469 486.091C625.469 486.08 625.469 486.069 625.469 486.058C625.469 486.047 625.469 486.036 625.469 486.025C625.469 486.014 625.469 486.004 625.469 485.993C625.469 485.982 625.469 485.971 625.469 485.96C625.469 485.949 625.469 485.938 625.469 485.927C625.469 485.916 625.469 485.905 625.469 485.894C625.469 485.884 625.469 485.873 625.469 485.862C625.469 485.851 625.469 485.84 625.469 485.829C625.469 485.818 625.469 485.807 625.469 485.796C625.469 485.785 625.469 485.774 625.469 485.763C625.469 485.753 625.469 485.742 625.469 485.731C625.469 485.72 625.469 485.709 625.469 485.698C625.469 485.687 625.469 485.676 625.469 485.665C625.469 485.654 625.469 485.643 625.469 485.632C625.469 485.621 625.469 485.611 625.469 485.6C625.469 485.589 625.469 485.578 625.469 485.567C625.469 485.556 625.469 485.545 625.469 485.534C625.469 485.523 625.469 485.512 625.469 485.501C625.469 485.49 625.469 485.479 625.469 485.468C625.469 485.458 625.469 485.447 625.469 485.436C625.469 485.425 625.469 485.414 625.469 485.403C625.469 485.392 625.469 485.381 625.469 485.37C625.469 485.359 625.469 485.348 625.469 485.337C625.469 485.326 625.469 485.315 625.469 485.304C625.469 485.294 625.469 485.283 625.469 485.272C625.469 485.261 625.469 485.25 625.469 485.239C625.469 485.228 625.469 485.217 625.469 485.206C625.469 485.195 625.469 485.184 625.469 485.173C625.469 485.162 625.469 485.151 625.469 485.14C625.469 485.129 625.469 485.118 625.469 485.107C625.469 485.096 625.469 485.086 625.469 485.075C625.469 485.064 625.469 485.053 625.469 485.042C625.469 485.031 625.469 485.02 625.469 485.009C625.469 484.998 625.469 484.987 625.469 484.976C625.469 484.965 625.469 484.954 625.469 484.943C625.469 484.932 625.469 484.921 625.469 484.91C625.469 484.899 625.469 484.888 625.469 484.877C625.469 484.866 625.469 484.855 625.469 484.844C625.469 484.834 625.469 484.823 625.469 484.812C625.469 484.801 625.469 484.79 625.469 484.779C625.469 484.768 625.469 484.757 625.469 484.746C625.469 484.735 625.469 484.724 625.469 484.713C625.469 484.702 625.469 484.691 625.469 484.68C625.469 484.669 625.469 484.658 625.469 484.647C625.469 484.636 625.469 484.625 625.469 484.614C625.469 484.603 625.469 484.592 625.469 484.581C625.469 484.57 625.469 484.559 625.469 484.548C625.469 484.537 625.469 484.526 625.469 484.515C625.469 484.504 625.469 484.493 625.469 484.482C625.469 484.471 625.469 484.46 625.469 484.449C625.469 484.439 625.469 484.428 625.469 484.417C625.469 484.406 625.469 484.395 625.469 484.384C625.469 484.373 625.469 484.362 625.469 484.351C625.469 484.34 625.469 484.329 625.469 484.318C625.469 484.307 625.469 484.296 625.469 484.285C625.469 484.274 625.469 484.263 625.469 484.252C625.469 484.241 625.469 484.23 625.469 484.219C625.469 484.208 625.469 484.197 625.469 484.186C625.469 484.175 625.469 484.164 625.469 484.153C625.469 484.142 625.469 484.131 625.469 484.12C625.469 484.109 625.469 484.098 625.469 484.087C625.469 484.076 625.469 484.065 625.469 484.054C625.469 484.043 625.469 484.032 625.469 484.021C625.469 484.01 625.469 483.999 625.469 483.988C625.469 483.977 625.469 483.966 625.469 483.955C625.469 483.944 625.469 483.933 625.469 483.922C625.469 483.911 625.469 483.9 625.469 483.889C625.469 483.878 625.469 483.867 625.469 483.856C625.469 483.845 625.469 483.834 625.469 483.823C625.469 483.812 625.469 483.801 625.469 483.79C625.469 483.779 625.469 483.768 625.469 483.757C625.469 483.746 625.469 483.735 625.469 483.723C625.469 483.712 625.469 483.701 625.469 483.69C625.469 483.679 625.469 483.668 625.469 483.657C625.469 483.646 625.469 483.635 625.469 483.624C625.469 483.613 625.469 483.602 625.469 483.591C625.469 483.58 625.469 483.569 625.469 483.558C625.469 483.547 625.469 483.536 625.469 483.525C625.469 483.514 625.469 483.503 625.469 483.492C625.469 483.481 625.469 483.47 625.469 483.459C625.469 483.448 625.469 483.437 625.469 483.426C625.469 483.415 625.469 483.404 625.469 483.393C625.469 483.382 625.469 483.371 625.469 483.36C625.469 483.349 625.469 483.338 625.469 483.327C625.469 483.315 625.469 483.304 625.469 483.293C625.469 483.282 625.469 483.271 625.469 483.26C625.469 483.249 625.469 483.238 625.469 483.227C625.469 483.216 625.469 483.205 625.469 483.194C625.469 483.183 625.469 483.172 625.469 483.161C625.469 483.15 625.469 483.139 625.469 483.128C625.469 483.117 625.469 483.106 625.469 483.095C625.469 483.084 625.469 483.073 625.469 483.061C625.469 483.05 625.469 483.039 625.469 483.028C625.469 483.017 625.469 483.006 625.469 482.995C625.469 482.984 625.469 482.973 625.469 482.962C625.469 482.951 625.469 482.94 625.469 482.929C625.469 482.918 625.469 482.907 625.469 482.896C625.469 482.885 625.469 482.874 625.469 482.862C625.469 482.851 625.469 482.84 625.469 482.829C625.469 482.818 625.469 482.807 625.469 482.796C625.469 482.785 625.469 482.774 625.469 482.763C625.469 482.752 625.469 482.741 625.469 482.73C625.469 482.719 625.469 482.708 625.469 482.697C625.469 482.685 625.469 482.674 625.469 482.663C625.469 482.652 625.469 482.641 625.469 482.63C625.469 482.619 625.469 482.608 625.469 482.597C625.469 482.586 625.469 482.575 625.469 482.564C625.469 482.553 625.469 482.542 625.469 482.53C625.469 482.519 625.469 482.508 625.469 482.497C625.469 482.486 625.469 482.475 625.469 482.464C625.469 482.453 625.469 482.442 625.469 482.431C625.469 482.42 625.469 482.409 625.469 482.398C625.469 482.386 625.469 482.375 625.469 482.364C625.469 482.353 625.469 482.342 625.469 482.331C625.469 482.32 625.469 482.309 625.469 482.298C625.469 482.287 625.469 482.276 625.469 482.264C625.469 482.253 625.469 482.242 625.469 482.231C625.469 482.22 625.469 482.209 625.469 482.198C625.469 482.187 625.469 482.176 625.469 482.165C625.469 482.154 625.469 482.142 625.469 482.131C625.469 482.12 625.469 482.109 625.469 482.098C625.469 482.087 625.469 482.076 625.469 482.065C625.469 482.054 625.469 482.043 625.469 482.032C625.469 482.02 625.469 482.009 625.469 481.998C625.469 481.987 625.469 481.976 625.469 481.965C625.469 481.954 625.469 481.943 625.469 481.932C625.469 481.92 625.469 481.909 625.469 481.898C625.469 481.887 625.469 481.876 625.469 481.865C625.469 481.854 625.469 481.843 625.469 481.832C625.469 481.821 625.469 481.809 625.469 481.798C625.469 481.787 625.469 481.776 625.469 481.765C625.469 481.754 625.469 481.743 625.469 481.732C625.469 481.721 625.469 481.709 625.469 481.698C625.469 481.687 625.469 481.676 625.469 481.665C625.469 481.654 625.469 481.643 625.469 481.632C625.469 481.62 625.469 481.609 625.469 481.598C625.469 481.587 625.469 481.576 625.469 481.565C625.469 481.554 625.469 481.543 625.469 481.531C625.469 481.52 625.469 481.509 625.469 481.498C625.469 481.487 625.469 481.476 625.469 481.465C625.469 481.454 625.469 481.442 625.469 481.431C625.469 481.42 625.469 481.409 625.469 481.398C625.469 481.387 625.469 481.376 625.469 481.365C625.469 481.353 625.469 481.342 625.469 481.331C625.469 481.32 625.469 481.309 625.469 481.298C625.469 481.287 625.469 481.275 625.469 481.264C625.469 481.253 625.469 481.242 625.469 481.231C625.469 481.22 625.469 481.209 625.469 481.198C625.469 481.186 625.469 481.175 625.469 481.164C625.469 481.153 625.469 481.142 625.469 481.131C625.469 481.12 625.469 481.108 625.469 481.097C625.469 481.086 625.469 481.075 625.469 481.064C625.469 481.053 625.469 481.041 625.469 481.03C625.469 481.019 625.469 481.008 625.469 480.997C625.469 480.986 625.469 480.975 625.469 480.963C625.469 480.952 625.469 480.941 625.469 480.93C625.469 480.919 625.469 480.908 625.469 480.897C625.469 480.885 625.469 480.874 625.469 480.863C625.469 480.852 625.469 480.841 625.469 480.83C625.469 480.818 625.469 480.807 625.469 480.796C625.469 480.785 625.469 480.774 625.469 480.763C625.469 480.751 625.469 480.74 625.469 480.729C625.469 480.718 625.469 480.707 625.469 480.696C625.469 480.684 625.469 480.673 625.469 480.662C625.469 480.651 625.469 480.64 625.469 480.629C625.469 480.617 625.469 480.606 625.469 480.595C625.469 480.584 625.469 480.573 625.469 480.562C625.469 480.55 625.469 480.539 625.469 480.528C625.469 480.517 625.469 480.506 625.469 480.495C625.469 480.483 625.469 480.472 625.469 480.461C625.469 480.45 625.469 480.439 625.469 480.428C625.469 480.416 625.469 480.405 625.469 480.394C625.469 480.383 625.469 480.372 625.469 480.36C625.469 480.349 625.469 480.338 625.469 480.327C625.469 480.316 625.469 480.305 625.469 480.293C625.469 480.282 625.469 480.271 625.469 480.26C625.469 480.249 625.469 480.237 625.469 480.226C625.469 480.215 625.469 480.204 625.469 480.193C625.469 480.182 625.469 480.17 625.469 480.159C625.469 480.148 625.469 480.137 625.469 480.126C625.469 480.114 625.469 480.103 625.469 480.092C625.469 480.081 625.469 480.07 625.469 480.058C625.469 480.047 625.469 480.036 625.469 480.025C625.469 480.014 625.469 480.002 625.469 479.991C625.469 479.98 625.469 479.969 625.469 479.958C625.469 479.946 625.469 479.935 625.469 479.924C625.469 479.913 625.469 479.902 625.469 479.89C625.469 479.879 625.469 479.868 625.469 479.857C625.469 479.846 625.469 479.834 625.469 479.823C625.469 479.812 625.469 479.801 625.469 479.79C625.469 479.778 625.469 479.767 625.469 479.756C625.469 479.745 625.469 479.734 625.469 479.722C625.469 479.711 625.469 479.7 625.469 479.689C625.469 479.677 625.469 479.666 625.469 479.655C625.469 479.644 625.469 479.633 625.469 479.621C625.469 479.61 625.469 479.599 625.469 479.588C625.469 479.577 625.469 479.565 625.469 479.554C625.469 479.543 625.469 479.532 625.469 479.52C625.469 479.509 625.469 479.498 625.469 479.487C625.469 479.476 625.469 479.464 625.469 479.453C625.469 479.442 625.469 479.431 625.469 479.419C625.469 479.408 625.469 479.397 625.469 479.386C625.469 479.375 625.469 479.363 625.469 479.352C625.469 479.341 625.469 479.33 625.469 479.318C625.469 479.307 625.469 479.296 625.469 479.285C625.469 479.273 625.469 479.262 625.469 479.251C625.469 479.24 625.469 479.228 625.469 479.217C625.469 479.206 625.469 479.195 625.469 479.184C625.469 479.172 625.469 479.161 625.469 479.15C625.469 479.139 625.469 479.127 625.469 479.116C625.469 479.105 625.469 479.094 625.469 479.082C625.469 479.071 625.469 479.06 625.469 479.049C625.469 479.037 625.469 479.026 625.469 479.015C625.469 479.004 625.469 478.992 625.469 478.981C625.469 478.97 625.469 478.959 625.469 478.947C625.469 478.936 625.469 478.925 625.469 478.914C625.469 478.902 625.469 478.891 625.469 478.88C625.469 478.869 625.469 478.857 625.469 478.846C625.469 478.835 625.469 478.824 625.469 478.812C625.469 478.801 625.469 478.79 625.469 478.779C625.469 478.767 625.469 478.756 625.469 478.745C625.469 478.734 625.469 478.722 625.469 478.711C625.469 478.7 625.469 478.689 625.469 478.677C625.469 478.666 625.469 478.655 625.469 478.644C625.469 478.632 625.469 478.621 625.469 478.61C625.469 478.598 625.469 478.587 625.469 478.576C625.469 478.565 625.469 478.553 625.469 478.542C625.469 478.531 625.469 478.52 625.469 478.508C625.469 478.497 625.469 478.486 625.469 478.475C625.469 478.463 625.469 478.452 625.469 478.441C625.469 478.429 625.469 478.418 625.469 478.407C625.469 478.396 625.469 478.384 625.469 478.373C625.469 478.362 625.469 478.351 625.469 478.339C625.469 478.328 625.469 478.317 625.469 478.305C625.469 478.294 625.469 478.283 625.469 478.272C625.469 478.26 625.469 478.249 625.469 478.238C625.469 478.226 625.469 478.215 625.469 478.204C625.469 478.193 625.469 478.181 625.469 478.17C625.469 478.159 625.469 478.147 625.469 478.136C625.469 478.125 625.469 478.114 625.469 478.102C625.469 478.091 625.469 478.08 625.469 478.068C625.469 478.057 625.469 478.046 625.469 478.035C625.469 478.023 625.469 478.012 625.469 478.001C625.469 477.989 625.469 477.978 625.469 477.967C625.469 477.956 625.469 477.944 625.469 477.933C625.469 477.922 625.469 477.91 625.469 477.899C625.469 477.888 625.469 477.876 625.469 477.865C625.469 477.854 625.469 477.843 625.469 477.831C625.469 477.82 625.469 477.809 625.469 477.797C625.469 477.786 625.469 477.775 625.469 477.763C625.469 477.752 625.469 477.741 625.469 477.729C625.469 477.718 625.469 477.707 625.469 477.696C625.469 477.684 625.469 477.673 625.469 477.662C625.469 477.65 625.469 477.639 625.469 477.628C625.469 477.616 625.469 477.605 625.469 477.594C625.469 477.582 625.469 477.571 625.469 477.56C625.469 477.549 625.469 477.537 625.469 477.526C625.469 477.515 625.469 477.503 625.469 477.492C625.469 477.481 625.469 477.469 625.469 477.458C625.469 477.447 625.469 477.435 625.469 477.424C625.469 477.413 625.469 477.401 625.469 477.39C625.469 477.379 625.469 477.367 625.469 477.356C625.469 477.345 625.469 477.333 625.469 477.322C625.469 477.311 625.469 477.299 625.469 477.288C625.469 477.277 625.469 477.265 625.469 477.254C625.469 477.243 625.469 477.231 625.469 477.22C625.469 477.209 625.469 477.197 625.469 477.186C625.469 477.175 625.469 477.163 625.469 477.152C625.469 477.141 625.469 477.129 625.469 477.118C625.469 477.107 625.469 477.095 625.469 477.084C625.469 477.073 625.469 477.061 625.469 477.05C625.469 477.039 625.469 477.027 625.469 477.016C625.469 477.005 625.469 476.993 625.469 476.982C625.469 476.971 625.469 476.959 625.469 476.948C625.469 476.937 625.469 476.925 625.469 476.914C625.469 476.903 625.469 476.891 625.469 476.88C625.469 476.869 625.469 476.857 625.469 476.846C625.469 476.835 625.469 476.823 625.469 476.812C625.469 476.801 625.469 476.789 625.469 476.778C625.469 476.766 625.469 476.755 625.469 476.744C625.469 476.732 625.469 476.721 625.469 476.71C625.469 476.698 625.469 476.687 625.469 476.676C625.469 476.664 625.469 476.653 625.469 476.642C625.469 476.63 625.469 476.619 625.469 476.608C625.469 476.596 625.469 476.585 625.469 476.573C625.469 476.562 625.469 476.551 625.469 476.539C625.469 476.528 625.469 476.517 625.469 476.505C625.469 476.494 625.469 476.483 625.469 476.471C625.469 476.46 625.469 476.448 625.469 476.437C625.469 476.426 625.469 476.414 625.469 476.403C625.469 476.392 625.469 476.38 625.469 476.369C625.469 476.357 625.469 476.346 625.469 476.335C625.469 476.323 625.469 476.312 625.469 476.301C625.469 476.289 625.469 476.278 625.469 476.266C625.469 476.255 625.469 476.244 625.469 476.232C625.469 476.221 625.469 476.21 625.469 476.198C625.469 476.187 625.469 476.175 625.469 476.164C625.469 476.153 625.469 476.141 625.469 476.13C625.469 476.119 625.469 476.107 625.469 476.096C625.469 476.084 625.469 476.073 625.469 476.062C625.469 476.05 625.469 476.039 625.469 476.027C625.469 476.016 625.469 476.005 625.469 475.993C625.469 475.982 625.469 475.971 625.469 475.959C625.469 475.948 625.469 475.936 625.469 475.925C625.469 475.914 625.469 475.902 625.469 475.891C625.469 475.879 625.469 475.868 625.469 475.857C625.469 475.845 625.469 475.834 625.469 475.822C625.469 475.811 625.469 475.8 625.469 475.788C625.469 475.777 625.469 475.765 625.469 475.754C625.469 475.743 625.469 475.731 625.469 475.72C625.469 475.708 625.469 475.697 625.469 475.686C625.469 475.674 625.469 475.663 625.469 475.651C625.469 475.64 625.469 475.629 625.469 475.617C625.469 475.606 625.469 475.594 625.469 475.583C625.469 475.572 625.469 475.56 625.469 475.549C625.469 475.537 625.469 475.526 625.469 475.514C625.469 475.503 625.469 475.492 625.469 475.48C625.469 475.469 625.469 475.457 625.469 475.446C625.469 475.435 625.469 475.423 625.469 475.412C625.469 475.4 625.469 475.389 625.469 475.378C625.469 475.366 625.469 475.355 625.469 475.343C625.469 475.332 625.469 475.32 625.469 475.309C625.469 475.298 625.469 475.286 625.469 475.275C625.469 475.263 625.469 475.252 625.469 475.24C625.469 475.229 625.469 475.218 625.469 475.206C625.469 475.195 625.469 475.183 625.469 475.172C625.469 475.16 625.469 475.149 625.469 475.138C625.469 475.126 625.469 475.115 625.469 475.103C625.469 475.092 625.469 475.08 625.469 475.069C625.469 475.058 625.469 475.046 625.469 475.035C625.469 475.023 625.469 475.012 625.469 475C625.469 474.989 625.469 474.978 625.469 474.966C625.469 474.955 625.469 474.943 625.469 474.932C625.469 474.92 625.469 474.909 625.469 474.897C625.469 474.886 625.469 474.875 625.469 474.863C625.469 474.852 625.469 474.84 625.469 474.829C625.469 474.817 625.469 474.806 625.469 474.795C625.469 474.783 625.469 474.772 625.469 474.76C625.469 474.749 625.469 474.737 625.469 474.726C625.469 474.714 625.469 474.703 625.469 474.691C625.469 474.68 625.469 474.669 625.469 474.657C625.469 474.646 625.469 474.634 625.469 474.623C625.469 474.611 625.469 474.6 625.469 474.588C625.469 474.577 625.469 474.565 625.469 474.554C625.469 474.543 625.469 474.531 625.469 474.52C625.469 474.508 625.469 474.497 625.469 474.485C625.469 474.474 625.469 474.462 625.469 474.451C625.469 474.439 625.469 474.428 625.469 474.417C625.469 474.405 625.469 474.394 625.469 474.382C625.469 474.371 625.469 474.359 625.469 474.348C625.469 474.336 625.469 474.325 625.469 474.313C625.469 474.302 625.469 474.29 625.469 474.279C625.469 474.267 625.469 474.256 625.469 474.245C625.469 474.233 625.469 474.222 625.469 474.21C625.469 474.199 625.469 474.187 625.469 474.176C625.469 474.164 625.469 474.153 625.469 474.141C625.469 474.13 625.469 474.118 625.469 474.107C625.469 474.095 625.469 474.084 625.469 474.072C625.469 474.061 625.469 474.049 625.469 474.038C625.469 474.026 625.469 474.015 625.469 474.003C625.469 473.992 625.469 473.981 625.469 473.969C625.469 473.958 625.469 473.946 625.469 473.935C625.469 473.923 625.469 473.912 625.469 473.9C625.469 473.889 625.469 473.877 625.469 473.866C625.469 473.854 625.469 473.843 625.469 473.831C625.469 473.82 625.469 473.808 625.469 473.797C625.469 473.785 625.469 473.774 625.469 473.762C625.469 473.751 625.469 473.739 625.469 473.728C625.469 473.716 625.469 473.705 625.469 473.693C625.469 473.682 625.469 473.67 625.469 473.659C625.469 473.647 625.469 473.636 625.469 473.624C625.469 473.613 625.469 473.601 625.469 473.59C625.469 473.578 625.469 473.567 625.469 473.555C625.469 473.544 625.469 473.532 625.469 473.521C625.469 473.509 625.469 473.498 625.469 473.486C625.469 473.475 625.469 473.463 625.469 473.452C625.469 473.44 625.469 473.429 625.469 473.417C625.469 473.406 625.469 473.394 625.469 473.383C625.469 473.371 625.469 473.36 625.469 473.348C625.469 473.337 625.469 473.325 625.469 473.314C625.469 473.302 625.469 473.291 625.469 473.279C625.469 473.268 625.469 473.256 625.469 473.244C625.469 473.233 625.469 473.221 625.469 473.21C625.469 473.198 625.469 473.187 625.469 473.175C625.469 473.164 625.469 473.152 625.469 473.141C625.469 473.129 625.469 473.118 625.469 473.106C625.469 473.095 625.469 473.083 625.469 473.072C625.469 473.06 625.469 473.049 625.469 473.037C625.469 473.026 625.469 473.014 625.469 473.002C625.469 472.991 625.469 472.979 625.469 472.968C625.469 472.956 625.469 472.945 625.469 472.933C625.469 472.922 625.469 472.91 625.469 472.899C625.469 472.887 625.469 472.876 625.469 472.864C625.469 472.853 625.469 472.841 625.469 472.829C625.469 472.818 625.469 472.806 625.469 472.795C625.469 472.783 625.469 472.772 625.469 472.76C625.469 472.749 625.469 472.737 625.469 472.726C625.469 472.714 625.469 472.703 625.469 472.691C625.469 472.679 625.469 472.668 625.469 472.656C625.469 472.645 625.469 472.633 625.469 472.622C625.469 472.61 625.469 472.599 625.469 472.587C625.469 472.576 625.469 472.564 625.469 472.552C625.469 472.541 625.469 472.529 625.469 472.518C625.469 472.506 625.469 472.495 625.469 472.483C625.469 472.472 625.469 472.46 625.469 472.448C625.469 472.437 625.469 472.425 625.469 472.414C625.469 472.402 625.469 472.391 625.469 472.379C625.469 472.368 625.469 472.356 625.469 472.344C625.469 472.333 625.469 472.321 625.469 472.31C625.469 472.298 625.469 472.287 625.469 472.275C625.469 472.264 625.469 472.252 625.469 472.24C625.469 472.229 625.469 472.217 625.469 472.206C625.469 472.194 625.469 472.183 625.469 472.171C625.469 472.159 625.469 472.148 625.469 472.136C625.469 472.125 625.469 472.113 625.469 472.102H619.469H613.469C613.469 472.113 613.469 472.125 613.469 472.136C613.469 472.148 613.469 472.159 613.469 472.171C613.469 472.183 613.469 472.194 613.469 472.206C613.469 472.217 613.469 472.229 613.469 472.24C613.469 472.252 613.469 472.264 613.469 472.275C613.469 472.287 613.469 472.298 613.469 472.31C613.469 472.321 613.469 472.333 613.469 472.344C613.469 472.356 613.469 472.368 613.469 472.379C613.469 472.391 613.469 472.402 613.469 472.414C613.469 472.425 613.469 472.437 613.469 472.448C613.469 472.46 613.469 472.472 613.469 472.483C613.469 472.495 613.469 472.506 613.469 472.518C613.469 472.529 613.469 472.541 613.469 472.552C613.469 472.564 613.469 472.576 613.469 472.587C613.469 472.599 613.469 472.61 613.469 472.622C613.469 472.633 613.469 472.645 613.469 472.656C613.469 472.668 613.469 472.679 613.469 472.691C613.469 472.703 613.469 472.714 613.469 472.726C613.469 472.737 613.469 472.749 613.469 472.76C613.469 472.772 613.469 472.783 613.469 472.795C613.469 472.806 613.469 472.818 613.469 472.829C613.469 472.841 613.469 472.853 613.469 472.864C613.469 472.876 613.469 472.887 613.469 472.899C613.469 472.91 613.469 472.922 613.469 472.933C613.469 472.945 613.469 472.956 613.469 472.968C613.469 472.979 613.469 472.991 613.469 473.002C613.469 473.014 613.469 473.026 613.469 473.037C613.469 473.049 613.469 473.06 613.469 473.072C613.469 473.083 613.469 473.095 613.469 473.106C613.469 473.118 613.469 473.129 613.469 473.141C613.469 473.152 613.469 473.164 613.469 473.175C613.469 473.187 613.469 473.198 613.469 473.21C613.469 473.221 613.469 473.233 613.469 473.244C613.469 473.256 613.469 473.268 613.469 473.279C613.469 473.291 613.469 473.302 613.469 473.314C613.469 473.325 613.469 473.337 613.469 473.348C613.469 473.36 613.469 473.371 613.469 473.383C613.469 473.394 613.469 473.406 613.469 473.417C613.469 473.429 613.469 473.44 613.469 473.452C613.469 473.463 613.469 473.475 613.469 473.486C613.469 473.498 613.469 473.509 613.469 473.521C613.469 473.532 613.469 473.544 613.469 473.555C613.469 473.567 613.469 473.578 613.469 473.59C613.469 473.601 613.469 473.613 613.469 473.624C613.469 473.636 613.469 473.647 613.469 473.659C613.469 473.67 613.469 473.682 613.469 473.693C613.469 473.705 613.469 473.716 613.469 473.728C613.469 473.739 613.469 473.751 613.469 473.762C613.469 473.774 613.469 473.785 613.469 473.797C613.469 473.808 613.469 473.82 613.469 473.831C613.469 473.843 613.469 473.854 613.469 473.866C613.469 473.877 613.469 473.889 613.469 473.9C613.469 473.912 613.469 473.923 613.469 473.935C613.469 473.946 613.469 473.958 613.469 473.969C613.469 473.981 613.469 473.992 613.469 474.003C613.469 474.015 613.469 474.026 613.469 474.038C613.469 474.049 613.469 474.061 613.469 474.072C613.469 474.084 613.469 474.095 613.469 474.107C613.469 474.118 613.469 474.13 613.469 474.141C613.469 474.153 613.469 474.164 613.469 474.176C613.469 474.187 613.469 474.199 613.469 474.21C613.469 474.222 613.469 474.233 613.469 474.245C613.469 474.256 613.469 474.267 613.469 474.279C613.469 474.29 613.469 474.302 613.469 474.313C613.469 474.325 613.469 474.336 613.469 474.348C613.469 474.359 613.469 474.371 613.469 474.382C613.469 474.394 613.469 474.405 613.469 474.417C613.469 474.428 613.469 474.439 613.469 474.451C613.469 474.462 613.469 474.474 613.469 474.485C613.469 474.497 613.469 474.508 613.469 474.52C613.469 474.531 613.469 474.543 613.469 474.554C613.469 474.565 613.469 474.577 613.469 474.588C613.469 474.6 613.469 474.611 613.469 474.623C613.469 474.634 613.469 474.646 613.469 474.657C613.469 474.669 613.469 474.68 613.469 474.691C613.469 474.703 613.469 474.714 613.469 474.726C613.469 474.737 613.469 474.749 613.469 474.76C613.469 474.772 613.469 474.783 613.469 474.795C613.469 474.806 613.469 474.817 613.469 474.829C613.469 474.84 613.469 474.852 613.469 474.863C613.469 474.875 613.469 474.886 613.469 474.897C613.469 474.909 613.469 474.92 613.469 474.932C613.469 474.943 613.469 474.955 613.469 474.966C613.469 474.978 613.469 474.989 613.469 475C613.469 475.012 613.469 475.023 613.469 475.035C613.469 475.046 613.469 475.058 613.469 475.069C613.469 475.08 613.469 475.092 613.469 475.103C613.469 475.115 613.469 475.126 613.469 475.138C613.469 475.149 613.469 475.16 613.469 475.172C613.469 475.183 613.469 475.195 613.469 475.206C613.469 475.218 613.469 475.229 613.469 475.24C613.469 475.252 613.469 475.263 613.469 475.275C613.469 475.286 613.469 475.298 613.469 475.309C613.469 475.32 613.469 475.332 613.469 475.343C613.469 475.355 613.469 475.366 613.469 475.378C613.469 475.389 613.469 475.4 613.469 475.412C613.469 475.423 613.469 475.435 613.469 475.446C613.469 475.457 613.469 475.469 613.469 475.48C613.469 475.492 613.469 475.503 613.469 475.514C613.469 475.526 613.469 475.537 613.469 475.549C613.469 475.56 613.469 475.572 613.469 475.583C613.469 475.594 613.469 475.606 613.469 475.617C613.469 475.629 613.469 475.64 613.469 475.651C613.469 475.663 613.469 475.674 613.469 475.686C613.469 475.697 613.469 475.708 613.469 475.72C613.469 475.731 613.469 475.743 613.469 475.754C613.469 475.765 613.469 475.777 613.469 475.788C613.469 475.8 613.469 475.811 613.469 475.822C613.469 475.834 613.469 475.845 613.469 475.857C613.469 475.868 613.469 475.879 613.469 475.891C613.469 475.902 613.469 475.914 613.469 475.925C613.469 475.936 613.469 475.948 613.469 475.959C613.469 475.971 613.469 475.982 613.469 475.993C613.469 476.005 613.469 476.016 613.469 476.027C613.469 476.039 613.469 476.05 613.469 476.062C613.469 476.073 613.469 476.084 613.469 476.096C613.469 476.107 613.469 476.119 613.469 476.13C613.469 476.141 613.469 476.153 613.469 476.164C613.469 476.175 613.469 476.187 613.469 476.198C613.469 476.21 613.469 476.221 613.469 476.232C613.469 476.244 613.469 476.255 613.469 476.266C613.469 476.278 613.469 476.289 613.469 476.301C613.469 476.312 613.469 476.323 613.469 476.335C613.469 476.346 613.469 476.357 613.469 476.369C613.469 476.38 613.469 476.392 613.469 476.403C613.469 476.414 613.469 476.426 613.469 476.437C613.469 476.448 613.469 476.46 613.469 476.471C613.469 476.483 613.469 476.494 613.469 476.505C613.469 476.517 613.469 476.528 613.469 476.539C613.469 476.551 613.469 476.562 613.469 476.573C613.469 476.585 613.469 476.596 613.469 476.608C613.469 476.619 613.469 476.63 613.469 476.642C613.469 476.653 613.469 476.664 613.469 476.676C613.469 476.687 613.469 476.698 613.469 476.71C613.469 476.721 613.469 476.732 613.469 476.744C613.469 476.755 613.469 476.766 613.469 476.778C613.469 476.789 613.469 476.801 613.469 476.812C613.469 476.823 613.469 476.835 613.469 476.846C613.469 476.857 613.469 476.869 613.469 476.88C613.469 476.891 613.469 476.903 613.469 476.914C613.469 476.925 613.469 476.937 613.469 476.948C613.469 476.959 613.469 476.971 613.469 476.982C613.469 476.993 613.469 477.005 613.469 477.016C613.469 477.027 613.469 477.039 613.469 477.05C613.469 477.061 613.469 477.073 613.469 477.084C613.469 477.095 613.469 477.107 613.469 477.118C613.469 477.129 613.469 477.141 613.469 477.152C613.469 477.163 613.469 477.175 613.469 477.186C613.469 477.197 613.469 477.209 613.469 477.22C613.469 477.231 613.469 477.243 613.469 477.254C613.469 477.265 613.469 477.277 613.469 477.288C613.469 477.299 613.469 477.311 613.469 477.322C613.469 477.333 613.469 477.345 613.469 477.356C613.469 477.367 613.469 477.379 613.469 477.39C613.469 477.401 613.469 477.413 613.469 477.424C613.469 477.435 613.469 477.447 613.469 477.458C613.469 477.469 613.469 477.481 613.469 477.492C613.469 477.503 613.469 477.515 613.469 477.526C613.469 477.537 613.469 477.549 613.469 477.56C613.469 477.571 613.469 477.582 613.469 477.594C613.469 477.605 613.469 477.616 613.469 477.628C613.469 477.639 613.469 477.65 613.469 477.662C613.469 477.673 613.469 477.684 613.469 477.696C613.469 477.707 613.469 477.718 613.469 477.729C613.469 477.741 613.469 477.752 613.469 477.763C613.469 477.775 613.469 477.786 613.469 477.797C613.469 477.809 613.469 477.82 613.469 477.831C613.469 477.843 613.469 477.854 613.469 477.865C613.469 477.876 613.469 477.888 613.469 477.899C613.469 477.91 613.469 477.922 613.469 477.933C613.469 477.944 613.469 477.956 613.469 477.967C613.469 477.978 613.469 477.989 613.469 478.001C613.469 478.012 613.469 478.023 613.469 478.035C613.469 478.046 613.469 478.057 613.469 478.068C613.469 478.08 613.469 478.091 613.469 478.102C613.469 478.114 613.469 478.125 613.469 478.136C613.469 478.147 613.469 478.159 613.469 478.17C613.469 478.181 613.469 478.193 613.469 478.204C613.469 478.215 613.469 478.226 613.469 478.238C613.469 478.249 613.469 478.26 613.469 478.272C613.469 478.283 613.469 478.294 613.469 478.305C613.469 478.317 613.469 478.328 613.469 478.339C613.469 478.351 613.469 478.362 613.469 478.373C613.469 478.384 613.469 478.396 613.469 478.407C613.469 478.418 613.469 478.429 613.469 478.441C613.469 478.452 613.469 478.463 613.469 478.475C613.469 478.486 613.469 478.497 613.469 478.508C613.469 478.52 613.469 478.531 613.469 478.542C613.469 478.553 613.469 478.565 613.469 478.576C613.469 478.587 613.469 478.598 613.469 478.61C613.469 478.621 613.469 478.632 613.469 478.644C613.469 478.655 613.469 478.666 613.469 478.677C613.469 478.689 613.469 478.7 613.469 478.711C613.469 478.722 613.469 478.734 613.469 478.745C613.469 478.756 613.469 478.767 613.469 478.779C613.469 478.79 613.469 478.801 613.469 478.812C613.469 478.824 613.469 478.835 613.469 478.846C613.469 478.857 613.469 478.869 613.469 478.88C613.469 478.891 613.469 478.902 613.469 478.914C613.469 478.925 613.469 478.936 613.469 478.947C613.469 478.959 613.469 478.97 613.469 478.981C613.469 478.992 613.469 479.004 613.469 479.015C613.469 479.026 613.469 479.037 613.469 479.049C613.469 479.06 613.469 479.071 613.469 479.082C613.469 479.094 613.469 479.105 613.469 479.116C613.469 479.127 613.469 479.139 613.469 479.15C613.469 479.161 613.469 479.172 613.469 479.184C613.469 479.195 613.469 479.206 613.469 479.217C613.469 479.228 613.469 479.24 613.469 479.251C613.469 479.262 613.469 479.273 613.469 479.285C613.469 479.296 613.469 479.307 613.469 479.318C613.469 479.33 613.469 479.341 613.469 479.352C613.469 479.363 613.469 479.375 613.469 479.386C613.469 479.397 613.469 479.408 613.469 479.419C613.469 479.431 613.469 479.442 613.469 479.453C613.469 479.464 613.469 479.476 613.469 479.487C613.469 479.498 613.469 479.509 613.469 479.52C613.469 479.532 613.469 479.543 613.469 479.554C613.469 479.565 613.469 479.577 613.469 479.588C613.469 479.599 613.469 479.61 613.469 479.621C613.469 479.633 613.469 479.644 613.469 479.655C613.469 479.666 613.469 479.677 613.469 479.689C613.469 479.7 613.469 479.711 613.469 479.722C613.469 479.734 613.469 479.745 613.469 479.756C613.469 479.767 613.469 479.778 613.469 479.79C613.469 479.801 613.469 479.812 613.469 479.823C613.469 479.834 613.469 479.846 613.469 479.857C613.469 479.868 613.469 479.879 613.469 479.89C613.469 479.902 613.469 479.913 613.469 479.924C613.469 479.935 613.469 479.946 613.469 479.958C613.469 479.969 613.469 479.98 613.469 479.991C613.469 480.002 613.469 480.014 613.469 480.025C613.469 480.036 613.469 480.047 613.469 480.058C613.469 480.07 613.469 480.081 613.469 480.092C613.469 480.103 613.469 480.114 613.469 480.126C613.469 480.137 613.469 480.148 613.469 480.159C613.469 480.17 613.469 480.182 613.469 480.193C613.469 480.204 613.469 480.215 613.469 480.226C613.469 480.237 613.469 480.249 613.469 480.26C613.469 480.271 613.469 480.282 613.469 480.293C613.469 480.305 613.469 480.316 613.469 480.327C613.469 480.338 613.469 480.349 613.469 480.36C613.469 480.372 613.469 480.383 613.469 480.394C613.469 480.405 613.469 480.416 613.469 480.428C613.469 480.439 613.469 480.45 613.469 480.461C613.469 480.472 613.469 480.483 613.469 480.495C613.469 480.506 613.469 480.517 613.469 480.528C613.469 480.539 613.469 480.55 613.469 480.562C613.469 480.573 613.469 480.584 613.469 480.595C613.469 480.606 613.469 480.617 613.469 480.629C613.469 480.64 613.469 480.651 613.469 480.662C613.469 480.673 613.469 480.684 613.469 480.696C613.469 480.707 613.469 480.718 613.469 480.729C613.469 480.74 613.469 480.751 613.469 480.763C613.469 480.774 613.469 480.785 613.469 480.796C613.469 480.807 613.469 480.818 613.469 480.83C613.469 480.841 613.469 480.852 613.469 480.863C613.469 480.874 613.469 480.885 613.469 480.897C613.469 480.908 613.469 480.919 613.469 480.93C613.469 480.941 613.469 480.952 613.469 480.963C613.469 480.975 613.469 480.986 613.469 480.997C613.469 481.008 613.469 481.019 613.469 481.03C613.469 481.041 613.469 481.053 613.469 481.064C613.469 481.075 613.469 481.086 613.469 481.097C613.469 481.108 613.469 481.12 613.469 481.131C613.469 481.142 613.469 481.153 613.469 481.164C613.469 481.175 613.469 481.186 613.469 481.198C613.469 481.209 613.469 481.22 613.469 481.231C613.469 481.242 613.469 481.253 613.469 481.264C613.469 481.275 613.469 481.287 613.469 481.298C613.469 481.309 613.469 481.32 613.469 481.331C613.469 481.342 613.469 481.353 613.469 481.365C613.469 481.376 613.469 481.387 613.469 481.398C613.469 481.409 613.469 481.42 613.469 481.431C613.469 481.442 613.469 481.454 613.469 481.465C613.469 481.476 613.469 481.487 613.469 481.498C613.469 481.509 613.469 481.52 613.469 481.531C613.469 481.543 613.469 481.554 613.469 481.565C613.469 481.576 613.469 481.587 613.469 481.598C613.469 481.609 613.469 481.62 613.469 481.632C613.469 481.643 613.469 481.654 613.469 481.665C613.469 481.676 613.469 481.687 613.469 481.698C613.469 481.709 613.469 481.721 613.469 481.732C613.469 481.743 613.469 481.754 613.469 481.765C613.469 481.776 613.469 481.787 613.469 481.798C613.469 481.809 613.469 481.821 613.469 481.832C613.469 481.843 613.469 481.854 613.469 481.865C613.469 481.876 613.469 481.887 613.469 481.898C613.469 481.909 613.469 481.92 613.469 481.932C613.469 481.943 613.469 481.954 613.469 481.965C613.469 481.976 613.469 481.987 613.469 481.998C613.469 482.009 613.469 482.02 613.469 482.032C613.469 482.043 613.469 482.054 613.469 482.065C613.469 482.076 613.469 482.087 613.469 482.098C613.469 482.109 613.469 482.12 613.469 482.131C613.469 482.142 613.469 482.154 613.469 482.165C613.469 482.176 613.469 482.187 613.469 482.198C613.469 482.209 613.469 482.22 613.469 482.231C613.469 482.242 613.469 482.253 613.469 482.264C613.469 482.276 613.469 482.287 613.469 482.298C613.469 482.309 613.469 482.32 613.469 482.331C613.469 482.342 613.469 482.353 613.469 482.364C613.469 482.375 613.469 482.386 613.469 482.398C613.469 482.409 613.469 482.42 613.469 482.431C613.469 482.442 613.469 482.453 613.469 482.464C613.469 482.475 613.469 482.486 613.469 482.497C613.469 482.508 613.469 482.519 613.469 482.53C613.469 482.542 613.469 482.553 613.469 482.564C613.469 482.575 613.469 482.586 613.469 482.597C613.469 482.608 613.469 482.619 613.469 482.63C613.469 482.641 613.469 482.652 613.469 482.663C613.469 482.674 613.469 482.685 613.469 482.697C613.469 482.708 613.469 482.719 613.469 482.73C613.469 482.741 613.469 482.752 613.469 482.763C613.469 482.774 613.469 482.785 613.469 482.796C613.469 482.807 613.469 482.818 613.469 482.829C613.469 482.84 613.469 482.851 613.469 482.862C613.469 482.874 613.469 482.885 613.469 482.896C613.469 482.907 613.469 482.918 613.469 482.929C613.469 482.94 613.469 482.951 613.469 482.962C613.469 482.973 613.469 482.984 613.469 482.995C613.469 483.006 613.469 483.017 613.469 483.028C613.469 483.039 613.469 483.05 613.469 483.061C613.469 483.073 613.469 483.084 613.469 483.095C613.469 483.106 613.469 483.117 613.469 483.128C613.469 483.139 613.469 483.15 613.469 483.161C613.469 483.172 613.469 483.183 613.469 483.194C613.469 483.205 613.469 483.216 613.469 483.227C613.469 483.238 613.469 483.249 613.469 483.26C613.469 483.271 613.469 483.282 613.469 483.293C613.469 483.304 613.469 483.315 613.469 483.327C613.469 483.338 613.469 483.349 613.469 483.36C613.469 483.371 613.469 483.382 613.469 483.393C613.469 483.404 613.469 483.415 613.469 483.426C613.469 483.437 613.469 483.448 613.469 483.459C613.469 483.47 613.469 483.481 613.469 483.492C613.469 483.503 613.469 483.514 613.469 483.525C613.469 483.536 613.469 483.547 613.469 483.558C613.469 483.569 613.469 483.58 613.469 483.591C613.469 483.602 613.469 483.613 613.469 483.624C613.469 483.635 613.469 483.646 613.469 483.657C613.469 483.668 613.469 483.679 613.469 483.69C613.469 483.701 613.469 483.712 613.469 483.723C613.469 483.735 613.469 483.746 613.469 483.757C613.469 483.768 613.469 483.779 613.469 483.79C613.469 483.801 613.469 483.812 613.469 483.823C613.469 483.834 613.469 483.845 613.469 483.856C613.469 483.867 613.469 483.878 613.469 483.889C613.469 483.9 613.469 483.911 613.469 483.922C613.469 483.933 613.469 483.944 613.469 483.955C613.469 483.966 613.469 483.977 613.469 483.988C613.469 483.999 613.469 484.01 613.469 484.021C613.469 484.032 613.469 484.043 613.469 484.054C613.469 484.065 613.469 484.076 613.469 484.087C613.469 484.098 613.469 484.109 613.469 484.12C613.469 484.131 613.469 484.142 613.469 484.153C613.469 484.164 613.469 484.175 613.469 484.186C613.469 484.197 613.469 484.208 613.469 484.219C613.469 484.23 613.469 484.241 613.469 484.252C613.469 484.263 613.469 484.274 613.469 484.285C613.469 484.296 613.469 484.307 613.469 484.318C613.469 484.329 613.469 484.34 613.469 484.351C613.469 484.362 613.469 484.373 613.469 484.384C613.469 484.395 613.469 484.406 613.469 484.417C613.469 484.428 613.469 484.439 613.469 484.449C613.469 484.46 613.469 484.471 613.469 484.482C613.469 484.493 613.469 484.504 613.469 484.515C613.469 484.526 613.469 484.537 613.469 484.548C613.469 484.559 613.469 484.57 613.469 484.581C613.469 484.592 613.469 484.603 613.469 484.614C613.469 484.625 613.469 484.636 613.469 484.647C613.469 484.658 613.469 484.669 613.469 484.68C613.469 484.691 613.469 484.702 613.469 484.713C613.469 484.724 613.469 484.735 613.469 484.746C613.469 484.757 613.469 484.768 613.469 484.779C613.469 484.79 613.469 484.801 613.469 484.812C613.469 484.823 613.469 484.834 613.469 484.844C613.469 484.855 613.469 484.866 613.469 484.877C613.469 484.888 613.469 484.899 613.469 484.91C613.469 484.921 613.469 484.932 613.469 484.943C613.469 484.954 613.469 484.965 613.469 484.976C613.469 484.987 613.469 484.998 613.469 485.009C613.469 485.02 613.469 485.031 613.469 485.042C613.469 485.053 613.469 485.064 613.469 485.075C613.469 485.086 613.469 485.096 613.469 485.107C613.469 485.118 613.469 485.129 613.469 485.14C613.469 485.151 613.469 485.162 613.469 485.173C613.469 485.184 613.469 485.195 613.469 485.206C613.469 485.217 613.469 485.228 613.469 485.239C613.469 485.25 613.469 485.261 613.469 485.272C613.469 485.283 613.469 485.294 613.469 485.304C613.469 485.315 613.469 485.326 613.469 485.337C613.469 485.348 613.469 485.359 613.469 485.37C613.469 485.381 613.469 485.392 613.469 485.403C613.469 485.414 613.469 485.425 613.469 485.436C613.469 485.447 613.469 485.458 613.469 485.468C613.469 485.479 613.469 485.49 613.469 485.501C613.469 485.512 613.469 485.523 613.469 485.534C613.469 485.545 613.469 485.556 613.469 485.567C613.469 485.578 613.469 485.589 613.469 485.6C613.469 485.611 613.469 485.621 613.469 485.632C613.469 485.643 613.469 485.654 613.469 485.665C613.469 485.676 613.469 485.687 613.469 485.698C613.469 485.709 613.469 485.72 613.469 485.731C613.469 485.742 613.469 485.753 613.469 485.763C613.469 485.774 613.469 485.785 613.469 485.796C613.469 485.807 613.469 485.818 613.469 485.829C613.469 485.84 613.469 485.851 613.469 485.862C613.469 485.873 613.469 485.884 613.469 485.894C613.469 485.905 613.469 485.916 613.469 485.927C613.469 485.938 613.469 485.949 613.469 485.96C613.469 485.971 613.469 485.982 613.469 485.993C613.469 486.004 613.469 486.014 613.469 486.025C613.469 486.036 613.469 486.047 613.469 486.058C613.469 486.069 613.469 486.08 613.469 486.091C613.469 486.102 613.469 486.113 613.469 486.123C613.469 486.134 613.469 486.145 613.469 486.156C613.469 486.167 613.469 486.178 613.469 486.189C613.469 486.2 613.469 486.211 613.469 486.222C613.469 486.232 613.469 486.243 613.469 486.254C613.469 486.265 613.469 486.276 613.469 486.287C613.469 486.298 613.469 486.309 613.469 486.32C613.469 486.33 613.469 486.341 613.469 486.352C613.469 486.363 613.469 486.374 613.469 486.385C613.469 486.396 613.469 486.407 613.469 486.418C613.469 486.428 613.469 486.439 613.469 486.45C613.469 486.461 613.469 486.472 613.469 486.483C613.469 486.494 613.469 486.505 613.469 486.515C613.469 486.526 613.469 486.537 613.469 486.548C613.469 486.559 613.469 486.57 613.469 486.581C613.469 486.592 613.469 486.603 613.469 486.613C613.469 486.624 613.469 486.635 613.469 486.646C613.469 486.657 613.469 486.668 613.469 486.679C613.469 486.689 613.469 486.7 613.469 486.711C613.469 486.722 613.469 486.733 613.469 486.744C613.469 486.755 613.469 486.766 613.469 486.776C613.469 486.787 613.469 486.798 613.469 486.809C613.469 486.82 613.469 486.831 613.469 486.842C613.469 486.853 613.469 486.863 613.469 486.874C613.469 486.885 613.469 486.896 613.469 486.907C613.469 486.918 613.469 486.929 613.469 486.939C613.469 486.95 613.469 486.961 613.469 486.972C613.469 486.983 613.469 486.994 613.469 487.005C613.469 487.015 613.469 487.026 613.469 487.037C613.469 487.048 613.469 487.059 613.469 487.07C613.469 487.081 613.469 487.091 613.469 487.102C613.469 487.113 613.469 487.124 613.469 487.135C613.469 487.146 613.469 487.156 613.469 487.167C613.469 487.178 613.469 487.189 613.469 487.2C613.469 487.211 613.469 487.222 613.469 487.232C613.469 487.243 613.469 487.254 613.469 487.265C613.469 487.276 613.469 487.287 613.469 487.297C613.469 487.308 613.469 487.319 613.469 487.33C613.469 487.341 613.469 487.352 613.469 487.363C613.469 487.373 613.469 487.384 613.469 487.395C613.469 487.406 613.469 487.417 613.469 487.428C613.469 487.438 613.469 487.449 613.469 487.46C613.469 487.471 613.469 487.482 613.469 487.493C613.469 487.503 613.469 487.514 613.469 487.525C613.469 487.536 613.469 487.547 613.469 487.558C613.469 487.568 613.469 487.579 613.469 487.59C613.469 487.601 613.469 487.612 613.469 487.622C613.469 487.633 613.469 487.644 613.469 487.655C613.469 487.666 613.469 487.677 613.469 487.687C613.469 487.698 613.469 487.709 613.469 487.72C613.469 487.731 613.469 487.742 613.469 487.752C613.469 487.763 613.469 487.774 613.469 487.785C613.469 487.796 613.469 487.806 613.469 487.817C613.469 487.828 613.469 487.839 613.469 487.85C613.469 487.861 613.469 487.871 613.469 487.882C613.469 487.893 613.469 487.904 613.469 487.915C613.469 487.925 613.469 487.936 613.469 487.947C613.469 487.958 613.469 487.969 613.469 487.979C613.469 487.99 613.469 488.001 613.469 488.012C613.469 488.023 613.469 488.033 613.469 488.044C613.469 488.055 613.469 488.066 613.469 488.077C613.469 488.087 613.469 488.098 613.469 488.109C613.469 488.12 613.469 488.131 613.469 488.141C613.469 488.152 613.469 488.163 613.469 488.174C613.469 488.185 613.469 488.195 613.469 488.206C613.469 488.217 613.469 488.228 613.469 488.239C613.469 488.249 613.469 488.26 613.469 488.271C613.469 488.282 613.469 488.293 613.469 488.303C613.469 488.314 613.469 488.325 613.469 488.336C613.469 488.347 613.469 488.357 613.469 488.368C613.469 488.379 613.469 488.39 613.469 488.401C613.469 488.411 613.469 488.422 613.469 488.433C613.469 488.444 613.469 488.454 613.469 488.465C613.469 488.476 613.469 488.487 613.469 488.498C613.469 488.508 613.469 488.519 613.469 488.53C613.469 488.541 613.469 488.551 613.469 488.562C613.469 488.573 613.469 488.584 613.469 488.595C613.469 488.605 613.469 488.616 613.469 488.627C613.469 488.638 613.469 488.648 613.469 488.659C613.469 488.67 613.469 488.681 613.469 488.692C613.469 488.702 613.469 488.713 613.469 488.724C613.469 488.735 613.469 488.745 613.469 488.756C613.469 488.767 613.469 488.778 613.469 488.788C613.469 488.799 613.469 488.81 613.469 488.821C613.469 488.832 613.469 488.842 613.469 488.853C613.469 488.864 613.469 488.875 613.469 488.885C613.469 488.896 613.469 488.907 613.469 488.918C613.469 488.928 613.469 488.939 613.469 488.95C613.469 488.961 613.469 488.971 613.469 488.982C613.469 488.993 613.469 489.004 613.469 489.014C613.469 489.025 613.469 489.036 613.469 489.047C613.469 489.057 613.469 489.068 613.469 489.079C613.469 489.09 613.469 489.101 613.469 489.111C613.469 489.122 613.469 489.133 613.469 489.144C613.469 489.154 613.469 489.165 613.469 489.176C613.469 489.187 613.469 489.197 613.469 489.208C613.469 489.219 613.469 489.229 613.469 489.24H619.469ZM619.469 472.102H625.469V461.311H619.469H613.469V472.102H619.469ZM619.469 461.311L614.072 458.689C607.218 472.8 597.958 485.08 586.264 495.564L590.27 500.031L594.275 504.499C607.126 492.977 617.332 479.444 624.866 463.932L619.469 461.311ZM590.27 500.031L586.264 495.564C574.404 506.197 561.098 515.209 546.326 522.594L549.01 527.961L551.693 533.328C567.39 525.479 581.591 515.87 594.275 504.499L590.27 500.031ZM549.01 527.961L546.448 522.535C531.642 529.527 515.78 534.887 498.846 538.604L500.133 544.465L501.419 550.325C519.186 546.425 535.908 540.783 551.572 533.386L549.01 527.961ZM500.133 544.465L498.816 538.611C482.321 542.323 465.624 544.178 448.717 544.178V550.178V556.178C466.51 556.178 484.091 554.224 501.45 550.319L500.133 544.465ZM448.717 550.178V544.178C420.292 544.178 393.814 538.827 369.218 528.168L366.832 533.674L364.446 539.179C390.631 550.526 418.743 556.178 448.717 556.178V550.178ZM366.832 533.674L369.332 528.219C339.823 514.695 318.199 495.795 304.095 471.617L298.912 474.641L293.729 477.664C309.248 504.267 332.903 524.723 364.332 539.128L366.832 533.674ZM298.912 474.641L304.116 471.655C289.8 446.703 282.695 420.643 282.695 393.391H276.695H270.695C270.695 422.844 278.402 450.951 293.708 477.627L298.912 474.641ZM276.695 393.391H282.695C282.695 377.898 284.936 362.604 289.429 347.493L283.678 345.783L277.927 344.073C273.109 360.277 270.695 376.722 270.695 393.391H276.695ZM283.678 345.783L289.429 347.493C293.919 332.391 300.443 318.325 309.007 305.276L303.99 301.984L298.974 298.692C289.764 312.727 282.747 327.86 277.927 344.073L283.678 345.783ZM303.99 301.984L308.934 305.384C317.907 292.333 328.721 280.697 341.399 270.473L337.633 265.803L333.866 261.132C320.307 272.067 308.693 284.553 299.046 298.585L303.99 301.984ZM337.633 265.803L341.416 270.459C354.412 259.9 369.269 251.545 386.032 245.412L383.971 239.777L381.909 234.143C363.972 240.705 347.936 249.7 333.849 261.146L337.633 265.803Z" fill="#B4D965" mask="url(#path-2-outside-1_18_699)"/>
<defs>
<filter id="filter0_d_18_699" x="0.43347" y="0.328629" width="945.68" height="945.679" filterUnits="userSpaceOnUse" color-interpolation-filters="sRGB">
<feFlood flood-opacity="0" result="BackgroundImageFix"/>
<feColorMatrix in="SourceAlpha" type="matrix" values="0 0 0 0 0 0 0 0 0 0 0 0 0 0 0 0 0 0 127 0" result="hardAlpha"/>
<feMorphology radius="18.6714" operator="dilate" in="SourceAlpha" result="effect1_dropShadow_18_699"/>
<feOffset dy="24.8952"/>
<feGaussianBlur stdDeviation="12.4476"/>
<feComposite in2="hardAlpha" operator="out"/>
<feColorMatrix type="matrix" values="0 0 0 0 0.12549 0 0 0 0 0.278431 0 0 0 0 0.27451 0 0 0 0.28 0"/>
<feBlend mode="normal" in2="BackgroundImageFix" result="effect1_dropShadow_18_699"/>
<feBlend mode="normal" in="SourceGraphic" in2="effect1_dropShadow_18_699" result="shape"/>
</filter>
</defs>
</svg>
