<svg width="947" height="946" viewBox="0 0 947 946" fill="none" xmlns="http://www.w3.org/2000/svg">
<g filter="url(#filter0_d_18_709)">
<rect x="44" y="19" width="858.547" height="858.547" rx="121.718" fill="white"/>
</g>
<mask id="path-2-outside-1_18_709" maskUnits="userSpaceOnUse" x="279" y="218" width="388" height="488" fill="black">
<rect fill="white" x="279" y="218" width="388" height="488"/>
<path d="M554.184 648.566C576.612 636.717 594.174 621.483 606.869 602.863C619.564 583.82 625.912 562.238 625.912 538.117C625.912 533.039 625.489 527.961 624.643 522.883C624.219 517.805 623.585 512.727 622.738 507.648C617.237 484.797 607.292 465.119 592.904 448.615C578.516 432.111 559.685 420.897 536.41 414.973C522.022 411.587 507.211 409.895 491.977 409.895C475.473 409.895 458.546 412.01 441.195 416.242C424.268 420.051 408.822 426.398 394.857 435.285C380.893 443.749 369.255 454.54 359.945 467.658C350.635 480.354 345.346 495.588 344.076 513.361C343.653 518.016 341.96 521.825 338.998 524.787C336.036 527.326 332.862 529.019 329.477 529.865C333.285 548.062 338.998 565.201 346.615 581.281C354.232 597.362 364.389 611.115 377.084 622.541C391.895 636.083 408.822 646.662 427.865 654.279C446.908 661.896 466.586 665.705 486.898 665.705C498.324 665.705 509.538 664.436 520.541 661.896C531.967 658.934 543.181 654.491 554.184 648.566ZM566.879 388.312C582.536 394.66 596.29 402.912 608.139 413.068C619.988 423.225 629.721 434.65 637.338 447.346C644.955 459.618 650.668 472.948 654.477 487.336C658.285 501.724 660.189 516.112 660.189 530.5C660.189 546.581 658.074 562.45 653.842 578.107C649.61 593.342 643.051 607.941 634.164 621.906C625.701 635.448 615.121 647.72 602.426 658.723C590.154 669.725 575.766 678.612 559.262 685.383C546.99 690.461 534.294 694.058 521.176 696.174C508.48 698.713 495.785 699.982 483.09 699.982C456.43 699.982 430.827 695.116 406.283 685.383C382.162 675.227 361.215 659.781 343.441 639.045C333.285 627.196 324.398 614.077 316.781 599.689C309.587 585.301 303.663 570.279 299.008 554.621C294.353 538.54 290.967 522.248 288.852 505.744C286.736 488.817 285.678 472.102 285.678 455.598C285.678 432.746 287.582 411.164 291.391 390.852C294.776 370.962 299.854 352.342 306.625 334.992C313.396 317.642 322.071 302.196 332.65 288.654C343.653 274.689 356.771 262.84 372.006 253.107C387.24 243.374 405.014 235.969 425.326 230.891C434.636 228.775 443.946 227.294 453.256 226.447C462.566 225.178 471.876 224.543 481.186 224.543C506.576 224.543 530.486 229.621 552.914 239.777C575.766 249.51 594.597 266.014 609.408 289.289C611.524 291.828 612.582 295.002 612.582 298.811C612.582 303.465 610.466 307.486 606.234 310.871C602.426 313.833 598.194 315.314 593.539 315.314C587.615 315.314 582.748 312.564 578.939 307.062C567.937 289.712 553.549 277.44 535.775 270.246C518.425 262.629 500.017 258.82 480.551 258.82C458.122 258.82 436.752 263.052 416.439 271.516C400.359 277.863 386.605 286.115 375.18 296.271C364.177 306.005 354.867 317.43 347.25 330.549C340.056 343.244 334.555 357.209 330.746 372.443C326.938 387.678 324.398 403.547 323.129 420.051C322.706 425.129 322.283 430.419 321.859 435.92C321.859 441.421 321.859 447.134 321.859 453.059V463.215C329.477 448.827 339.21 436.132 351.059 425.129C363.331 413.703 376.872 404.393 391.684 397.199C406.918 389.582 422.999 383.869 439.926 380.061C456.853 376.252 473.78 374.348 490.707 374.348C504.249 374.348 517.367 375.617 530.062 378.156C542.758 380.272 555.03 383.658 566.879 388.312Z"/>
</mask>
<path d="M554.184 648.566C576.612 636.717 594.174 621.483 606.869 602.863C619.564 583.82 625.912 562.238 625.912 538.117C625.912 533.039 625.489 527.961 624.643 522.883C624.219 517.805 623.585 512.727 622.738 507.648C617.237 484.797 607.292 465.119 592.904 448.615C578.516 432.111 559.685 420.897 536.41 414.973C522.022 411.587 507.211 409.895 491.977 409.895C475.473 409.895 458.546 412.01 441.195 416.242C424.268 420.051 408.822 426.398 394.857 435.285C380.893 443.749 369.255 454.54 359.945 467.658C350.635 480.354 345.346 495.588 344.076 513.361C343.653 518.016 341.96 521.825 338.998 524.787C336.036 527.326 332.862 529.019 329.477 529.865C333.285 548.062 338.998 565.201 346.615 581.281C354.232 597.362 364.389 611.115 377.084 622.541C391.895 636.083 408.822 646.662 427.865 654.279C446.908 661.896 466.586 665.705 486.898 665.705C498.324 665.705 509.538 664.436 520.541 661.896C531.967 658.934 543.181 654.491 554.184 648.566ZM566.879 388.312C582.536 394.66 596.29 402.912 608.139 413.068C619.988 423.225 629.721 434.65 637.338 447.346C644.955 459.618 650.668 472.948 654.477 487.336C658.285 501.724 660.189 516.112 660.189 530.5C660.189 546.581 658.074 562.45 653.842 578.107C649.61 593.342 643.051 607.941 634.164 621.906C625.701 635.448 615.121 647.72 602.426 658.723C590.154 669.725 575.766 678.612 559.262 685.383C546.99 690.461 534.294 694.058 521.176 696.174C508.48 698.713 495.785 699.982 483.09 699.982C456.43 699.982 430.827 695.116 406.283 685.383C382.162 675.227 361.215 659.781 343.441 639.045C333.285 627.196 324.398 614.077 316.781 599.689C309.587 585.301 303.663 570.279 299.008 554.621C294.353 538.54 290.967 522.248 288.852 505.744C286.736 488.817 285.678 472.102 285.678 455.598C285.678 432.746 287.582 411.164 291.391 390.852C294.776 370.962 299.854 352.342 306.625 334.992C313.396 317.642 322.071 302.196 332.65 288.654C343.653 274.689 356.771 262.84 372.006 253.107C387.24 243.374 405.014 235.969 425.326 230.891C434.636 228.775 443.946 227.294 453.256 226.447C462.566 225.178 471.876 224.543 481.186 224.543C506.576 224.543 530.486 229.621 552.914 239.777C575.766 249.51 594.597 266.014 609.408 289.289C611.524 291.828 612.582 295.002 612.582 298.811C612.582 303.465 610.466 307.486 606.234 310.871C602.426 313.833 598.194 315.314 593.539 315.314C587.615 315.314 582.748 312.564 578.939 307.062C567.937 289.712 553.549 277.44 535.775 270.246C518.425 262.629 500.017 258.82 480.551 258.82C458.122 258.82 436.752 263.052 416.439 271.516C400.359 277.863 386.605 286.115 375.18 296.271C364.177 306.005 354.867 317.43 347.25 330.549C340.056 343.244 334.555 357.209 330.746 372.443C326.938 387.678 324.398 403.547 323.129 420.051C322.706 425.129 322.283 430.419 321.859 435.92C321.859 441.421 321.859 447.134 321.859 453.059V463.215C329.477 448.827 339.21 436.132 351.059 425.129C363.331 413.703 376.872 404.393 391.684 397.199C406.918 389.582 422.999 383.869 439.926 380.061C456.853 376.252 473.78 374.348 490.707 374.348C504.249 374.348 517.367 375.617 530.062 378.156C542.758 380.272 555.03 383.658 566.879 388.312Z" fill="#DC4E8E"/>
<path d="M554.184 648.566L551.381 643.261L551.36 643.272L551.339 643.284L554.184 648.566ZM606.869 602.863L611.827 606.243L611.844 606.217L611.861 606.191L606.869 602.863ZM624.643 522.883L618.663 523.381L618.684 523.626L618.724 523.869L624.643 522.883ZM622.738 507.648L628.657 506.662L628.622 506.452L628.572 506.244L622.738 507.648ZM592.904 448.615L597.427 444.672L592.904 448.615ZM536.41 414.973L537.89 409.158L537.837 409.145L537.784 409.132L536.41 414.973ZM441.195 416.242L442.512 422.096L442.565 422.084L442.617 422.071L441.195 416.242ZM394.857 435.285L397.967 440.416L398.023 440.382L398.079 440.347L394.857 435.285ZM359.945 467.658L364.784 471.206L364.811 471.169L364.838 471.131L359.945 467.658ZM344.076 513.361L350.052 513.905L350.057 513.847L350.061 513.789L344.076 513.361ZM338.998 524.787L342.903 529.343L343.078 529.193L343.241 529.03L338.998 524.787ZM329.477 529.865L328.021 524.044L322.421 525.444L323.604 531.094L329.477 529.865ZM377.084 622.541L381.133 618.113L381.115 618.097L381.098 618.081L377.084 622.541ZM520.541 661.896L521.89 667.743L521.969 667.725L522.047 667.704L520.541 661.896ZM566.879 388.312L569.133 382.752L569.103 382.74L569.073 382.728L566.879 388.312ZM637.338 447.346L632.193 450.433L632.216 450.471L632.24 450.51L637.338 447.346ZM653.842 578.107L659.623 579.713L659.629 579.693L659.634 579.673L653.842 578.107ZM634.164 621.906L629.102 618.685L629.089 618.706L629.076 618.726L634.164 621.906ZM602.426 658.723L598.496 654.189L598.458 654.222L598.421 654.255L602.426 658.723ZM559.262 685.383L556.984 679.832L556.976 679.835L556.968 679.839L559.262 685.383ZM521.176 696.174L520.22 690.25L520.109 690.268L519.999 690.29L521.176 696.174ZM406.283 685.383L403.955 690.913L404.013 690.937L404.071 690.96L406.283 685.383ZM343.441 639.045L338.886 642.95L343.441 639.045ZM316.781 599.689L311.415 602.373L311.446 602.435L311.479 602.497L316.781 599.689ZM299.008 554.621L293.244 556.289L293.25 556.31L293.257 556.331L299.008 554.621ZM288.852 505.744L282.898 506.488L282.899 506.498L282.9 506.507L288.852 505.744ZM291.391 390.852L297.288 391.957L297.297 391.908L297.306 391.858L291.391 390.852ZM306.625 334.992L301.036 332.811L306.625 334.992ZM332.65 288.654L327.937 284.941L327.93 284.951L327.922 284.96L332.65 288.654ZM425.326 230.891L423.996 225.04L423.934 225.054L423.871 225.07L425.326 230.891ZM453.256 226.447L453.799 232.423L453.933 232.41L454.067 232.392L453.256 226.447ZM552.914 239.777L550.439 245.243L550.501 245.271L550.563 245.297L552.914 239.777ZM609.408 289.289L604.346 292.51L604.553 292.835L604.799 293.13L609.408 289.289ZM606.234 310.871L609.918 315.607L609.95 315.582L609.983 315.556L606.234 310.871ZM578.939 307.062L573.872 310.276L573.937 310.378L574.006 310.478L578.939 307.062ZM535.775 270.246L533.363 275.74L533.443 275.775L533.524 275.808L535.775 270.246ZM416.439 271.516L418.642 277.097L418.695 277.076L418.747 277.054L416.439 271.516ZM375.18 296.271L379.155 300.765L379.161 300.761L379.166 300.756L375.18 296.271ZM347.25 330.549L342.061 327.536L342.045 327.563L342.03 327.591L347.25 330.549ZM323.129 420.051L329.108 420.549L329.11 420.53L329.111 420.511L323.129 420.051ZM321.859 435.92L315.877 435.46L315.859 435.689V435.92H321.859ZM321.859 463.215H315.859L327.162 466.022L321.859 463.215ZM351.059 425.129L355.141 429.526L355.147 429.52L351.059 425.129ZM391.684 397.199L394.305 402.596L394.336 402.581L394.367 402.566L391.684 397.199ZM439.926 380.061L438.609 374.207L439.926 380.061ZM530.062 378.156L528.886 384.04L528.981 384.059L529.076 384.075L530.062 378.156ZM554.184 648.566L556.986 653.872C580.169 641.624 598.514 625.768 611.827 606.243L606.869 602.863L601.912 599.483C589.833 617.199 573.055 631.811 551.381 643.261L554.184 648.566ZM606.869 602.863L611.861 606.191C625.25 586.108 631.912 563.356 631.912 538.117H625.912H619.912C619.912 561.121 613.879 581.532 601.877 599.535L606.869 602.863ZM625.912 538.117H631.912C631.912 532.704 631.461 527.296 630.561 521.896L624.643 522.883L618.724 523.869C619.517 528.626 619.912 533.374 619.912 538.117H625.912ZM624.643 522.883L630.622 522.385C630.185 517.141 629.53 511.9 628.657 506.662L622.738 507.648L616.82 508.635C617.64 513.553 618.254 518.468 618.663 523.381L624.643 522.883ZM622.738 507.648L628.572 506.244C622.861 482.524 612.496 461.958 597.427 444.672L592.904 448.615L588.382 452.558C602.089 468.281 611.613 487.07 616.905 509.053L622.738 507.648ZM592.904 448.615L597.427 444.672C582.161 427.161 562.226 415.353 537.89 409.158L536.41 414.973L534.93 420.787C557.144 426.442 574.872 437.061 588.382 452.558L592.904 448.615ZM536.41 414.973L537.784 409.132C522.932 405.638 507.659 403.895 491.977 403.895V409.895V415.895C506.762 415.895 521.112 417.537 535.036 420.813L536.41 414.973ZM491.977 409.895V403.895C474.956 403.895 457.551 406.077 439.774 410.413L441.195 416.242L442.617 422.071C459.54 417.944 475.989 415.895 491.977 415.895V409.895ZM441.195 416.242L439.878 410.389C422.308 414.342 406.213 420.947 391.636 430.223L394.857 435.285L398.079 440.347C411.431 431.85 426.228 425.76 442.512 422.096L441.195 416.242ZM394.857 435.285L391.748 430.154C377.092 439.036 364.844 450.388 355.052 464.186L359.945 467.658L364.838 471.131C373.666 458.692 384.693 448.461 397.967 440.416L394.857 435.285ZM359.945 467.658L355.107 464.11C345.043 477.833 339.431 494.186 338.091 512.934L344.076 513.361L350.061 513.789C351.261 496.99 356.227 482.874 364.784 471.206L359.945 467.658ZM344.076 513.361L338.101 512.818C337.789 516.248 336.609 518.691 334.755 520.544L338.998 524.787L343.241 529.03C347.311 524.959 349.517 519.785 350.052 513.905L344.076 513.361ZM338.998 524.787L335.093 520.232C332.754 522.237 330.401 523.449 328.021 524.044L329.477 529.865L330.932 535.686C335.323 534.588 339.318 532.416 342.903 529.343L338.998 524.787ZM329.477 529.865L323.604 531.094C327.505 549.733 333.364 567.323 341.193 583.85L346.615 581.281L352.038 578.713C344.632 563.078 339.065 546.391 335.349 528.636L329.477 529.865ZM346.615 581.281L341.193 583.85C349.135 600.617 359.76 615.022 373.07 627.001L377.084 622.541L381.098 618.081C369.017 607.209 359.33 594.107 352.038 578.713L346.615 581.281ZM377.084 622.541L373.035 626.969C388.391 641.009 405.938 651.971 425.637 659.85L427.865 654.279L430.094 648.708C411.706 641.353 395.399 631.156 381.133 618.113L377.084 622.541ZM427.865 654.279L425.637 659.85C445.382 667.748 465.815 671.705 486.898 671.705V665.705V659.705C467.357 659.705 448.435 656.045 430.094 648.708L427.865 654.279ZM486.898 665.705V671.705C498.773 671.705 510.44 670.385 521.89 667.743L520.541 661.896L519.192 656.05C508.637 658.486 497.876 659.705 486.898 659.705V665.705ZM520.541 661.896L522.047 667.704C533.965 664.615 545.627 659.988 557.028 653.849L554.184 648.566L551.339 643.284C540.735 648.993 529.969 653.254 519.035 656.089L520.541 661.896ZM566.879 388.312L564.625 393.873C579.731 399.997 592.916 407.923 604.234 417.624L608.139 413.068L612.043 408.513C599.663 397.901 585.342 389.323 569.133 382.752L566.879 388.312ZM608.139 413.068L604.234 417.624C615.62 427.383 624.925 438.32 632.193 450.433L637.338 447.346L642.483 444.259C634.516 430.981 624.355 419.066 612.043 408.513L608.139 413.068ZM637.338 447.346L632.24 450.51C639.534 462.262 645.015 475.04 648.676 488.871L654.477 487.336L660.277 485.801C656.321 470.855 650.376 456.974 642.436 444.182L637.338 447.346ZM654.477 487.336L648.676 488.871C652.357 502.776 654.189 516.648 654.189 530.5H660.189H666.189C666.189 515.576 664.213 500.672 660.277 485.801L654.477 487.336ZM660.189 530.5H654.189C654.189 546.047 652.145 561.39 648.05 576.542L653.842 578.107L659.634 579.673C664.002 563.509 666.189 547.114 666.189 530.5H660.189ZM653.842 578.107L648.061 576.502C643.995 591.139 637.686 605.197 629.102 618.685L634.164 621.906L639.226 625.128C648.416 610.686 655.225 595.545 659.623 579.713L653.842 578.107ZM634.164 621.906L629.076 618.726C620.945 631.736 610.764 643.557 598.496 654.189L602.426 658.723L606.355 663.257C619.478 651.883 630.456 639.16 639.252 625.086L634.164 621.906ZM602.426 658.723L598.421 654.255C586.699 664.764 572.907 673.299 556.984 679.832L559.262 685.383L561.539 690.934C578.624 683.924 593.609 674.686 606.431 663.19L602.426 658.723ZM559.262 685.383L556.968 679.839C545.126 684.739 532.88 688.209 520.22 690.25L521.176 696.174L522.131 702.097C535.709 699.907 548.853 696.183 561.556 690.927L559.262 685.383ZM521.176 696.174L519.999 690.29C507.684 692.753 495.382 693.982 483.09 693.982V699.982V705.982C496.188 705.982 509.277 704.672 522.352 702.057L521.176 696.174ZM483.09 699.982V693.982C457.179 693.982 432.328 689.256 408.495 679.805L406.283 685.383L404.071 690.96C429.327 700.975 455.68 705.982 483.09 705.982V699.982ZM406.283 685.383L408.612 679.853C385.387 670.074 365.191 655.2 347.997 635.14L343.441 639.045L338.886 642.95C357.238 664.361 378.938 680.379 403.955 690.913L406.283 685.383ZM343.441 639.045L347.997 635.14C338.142 623.642 329.502 610.895 322.084 596.882L316.781 599.689L311.479 602.497C319.294 617.26 328.429 630.749 338.886 642.95L343.441 639.045ZM316.781 599.689L322.148 597.006C315.113 582.936 309.316 568.239 304.759 552.911L299.008 554.621L293.257 556.331C298.01 572.318 304.062 587.667 311.415 602.373L316.781 599.689ZM299.008 554.621L304.771 552.953C300.202 537.167 296.879 521.177 294.803 504.981L288.852 505.744L282.9 506.507C285.056 523.319 288.504 539.914 293.244 556.289L299.008 554.621ZM288.852 505.744L294.805 505C292.719 488.311 291.678 471.845 291.678 455.598H285.678H279.678C279.678 472.359 280.752 489.323 282.898 506.488L288.852 505.744ZM285.678 455.598H291.678C291.678 433.079 293.554 411.869 297.288 391.957L291.391 390.852L285.493 389.746C281.61 410.459 279.678 432.414 279.678 455.598H285.678ZM291.391 390.852L297.306 391.858C300.628 372.338 305.603 354.114 312.214 337.173L306.625 334.992L301.036 332.811C294.105 350.571 288.924 369.587 285.476 389.845L291.391 390.852ZM306.625 334.992L312.214 337.173C318.791 320.321 327.187 305.393 337.379 292.348L332.65 288.654L327.922 284.96C316.955 298.999 308.001 314.963 301.036 332.811L306.625 334.992ZM332.65 288.654L337.363 292.368C347.943 278.939 360.558 267.541 375.236 258.164L372.006 253.107L368.776 248.051C352.985 258.14 339.363 270.44 327.937 284.941L332.65 288.654ZM372.006 253.107L375.236 258.164C389.845 248.83 407.001 241.657 426.781 236.711L425.326 230.891L423.871 225.07C403.027 230.281 384.635 237.919 368.776 248.051L372.006 253.107ZM425.326 230.891L426.656 236.741C435.712 234.683 444.759 233.244 453.799 232.423L453.256 226.447L452.713 220.472C443.133 221.343 433.56 222.866 423.996 225.04L425.326 230.891ZM453.256 226.447L454.067 232.392C463.11 231.159 472.149 230.543 481.186 230.543V224.543V218.543C471.602 218.543 462.021 219.196 452.445 220.502L453.256 226.447ZM481.186 224.543V230.543C505.75 230.543 528.813 235.45 550.439 245.243L552.914 239.777L555.389 234.312C532.159 223.792 507.402 218.543 481.186 218.543V224.543ZM552.914 239.777L550.563 245.297C572.177 254.504 590.111 270.14 604.346 292.51L609.408 289.289L614.47 286.068C599.083 261.889 579.354 244.517 555.265 234.257L552.914 239.777ZM609.408 289.289L604.799 293.13C605.882 294.429 606.582 296.18 606.582 298.811H612.582H618.582C618.582 293.824 617.167 289.227 614.018 285.448L609.408 289.289ZM612.582 298.811H606.582C606.582 301.332 605.557 303.729 602.486 306.186L606.234 310.871L609.983 315.556C615.375 311.242 618.582 305.599 618.582 298.811H612.582ZM606.234 310.871L602.551 306.135C599.754 308.31 596.808 309.314 593.539 309.314V315.314V321.314C599.58 321.314 605.098 319.356 609.918 315.607L606.234 310.871ZM593.539 315.314V309.314C589.862 309.314 586.729 307.773 583.873 303.647L578.939 307.062L574.006 310.478C578.767 317.354 585.367 321.314 593.539 321.314V315.314ZM578.939 307.062L584.007 303.849C572.384 285.521 557.045 272.383 538.027 264.684L535.775 270.246L533.524 275.808C550.052 282.498 563.49 293.903 573.872 310.276L578.939 307.062ZM535.775 270.246L538.187 264.752C520.056 256.792 500.824 252.82 480.551 252.82V258.82V264.82C499.21 264.82 516.795 268.466 533.363 275.74L535.775 270.246ZM480.551 258.82V252.82C457.346 252.82 435.19 257.203 414.132 265.977L416.439 271.516L418.747 277.054C438.314 268.901 458.899 264.82 480.551 264.82V258.82ZM416.439 271.516L414.236 265.935C397.586 272.507 383.209 281.107 371.194 291.787L375.18 296.271L379.166 300.756C390.002 291.124 403.131 283.219 418.642 277.097L416.439 271.516ZM375.18 296.271L371.204 291.778C359.705 301.95 349.99 313.88 342.061 327.536L347.25 330.549L352.439 333.562C359.744 320.98 368.649 310.059 379.155 300.765L375.18 296.271ZM347.25 330.549L342.03 327.591C334.549 340.792 328.855 355.268 324.925 370.988L330.746 372.443L336.567 373.899C340.254 359.15 345.563 345.696 352.47 333.507L347.25 330.549ZM330.746 372.443L324.925 370.988C321.031 386.566 318.441 402.769 317.147 419.591L323.129 420.051L329.111 420.511C330.356 404.325 332.844 388.789 336.567 373.899L330.746 372.443ZM323.129 420.051L317.15 419.553C316.725 424.644 316.301 429.947 315.877 435.46L321.859 435.92L327.842 436.38C328.264 430.89 328.686 425.613 329.108 420.549L323.129 420.051ZM321.859 435.92H315.859C315.859 435.931 315.859 435.941 315.859 435.952C315.859 435.963 315.859 435.974 315.859 435.984C315.859 435.995 315.859 436.006 315.859 436.017C315.859 436.027 315.859 436.038 315.859 436.049C315.859 436.06 315.859 436.07 315.859 436.081C315.859 436.092 315.859 436.103 315.859 436.113C315.859 436.124 315.859 436.135 315.859 436.146C315.859 436.156 315.859 436.167 315.859 436.178C315.859 436.189 315.859 436.199 315.859 436.21C315.859 436.221 315.859 436.232 315.859 436.243C315.859 436.253 315.859 436.264 315.859 436.275C315.859 436.286 315.859 436.296 315.859 436.307C315.859 436.318 315.859 436.329 315.859 436.339C315.859 436.35 315.859 436.361 315.859 436.372C315.859 436.382 315.859 436.393 315.859 436.404C315.859 436.415 315.859 436.426 315.859 436.436C315.859 436.447 315.859 436.458 315.859 436.469C315.859 436.479 315.859 436.49 315.859 436.501C315.859 436.512 315.859 436.522 315.859 436.533C315.859 436.544 315.859 436.555 315.859 436.566C315.859 436.576 315.859 436.587 315.859 436.598C315.859 436.609 315.859 436.619 315.859 436.63C315.859 436.641 315.859 436.652 315.859 436.663C315.859 436.673 315.859 436.684 315.859 436.695C315.859 436.706 315.859 436.717 315.859 436.727C315.859 436.738 315.859 436.749 315.859 436.76C315.859 436.77 315.859 436.781 315.859 436.792C315.859 436.803 315.859 436.814 315.859 436.824C315.859 436.835 315.859 436.846 315.859 436.857C315.859 436.868 315.859 436.878 315.859 436.889C315.859 436.9 315.859 436.911 315.859 436.922C315.859 436.932 315.859 436.943 315.859 436.954C315.859 436.965 315.859 436.975 315.859 436.986C315.859 436.997 315.859 437.008 315.859 437.019C315.859 437.029 315.859 437.04 315.859 437.051C315.859 437.062 315.859 437.073 315.859 437.083C315.859 437.094 315.859 437.105 315.859 437.116C315.859 437.127 315.859 437.138 315.859 437.148C315.859 437.159 315.859 437.17 315.859 437.181C315.859 437.192 315.859 437.202 315.859 437.213C315.859 437.224 315.859 437.235 315.859 437.246C315.859 437.256 315.859 437.267 315.859 437.278C315.859 437.289 315.859 437.3 315.859 437.31C315.859 437.321 315.859 437.332 315.859 437.343C315.859 437.354 315.859 437.365 315.859 437.375C315.859 437.386 315.859 437.397 315.859 437.408C315.859 437.419 315.859 437.429 315.859 437.44C315.859 437.451 315.859 437.462 315.859 437.473C315.859 437.484 315.859 437.494 315.859 437.505C315.859 437.516 315.859 437.527 315.859 437.538C315.859 437.549 315.859 437.559 315.859 437.57C315.859 437.581 315.859 437.592 315.859 437.603C315.859 437.613 315.859 437.624 315.859 437.635C315.859 437.646 315.859 437.657 315.859 437.668C315.859 437.678 315.859 437.689 315.859 437.7C315.859 437.711 315.859 437.722 315.859 437.733C315.859 437.743 315.859 437.754 315.859 437.765C315.859 437.776 315.859 437.787 315.859 437.798C315.859 437.808 315.859 437.819 315.859 437.83C315.859 437.841 315.859 437.852 315.859 437.863C315.859 437.874 315.859 437.884 315.859 437.895C315.859 437.906 315.859 437.917 315.859 437.928C315.859 437.939 315.859 437.949 315.859 437.96C315.859 437.971 315.859 437.982 315.859 437.993C315.859 438.004 315.859 438.015 315.859 438.025C315.859 438.036 315.859 438.047 315.859 438.058C315.859 438.069 315.859 438.08 315.859 438.09C315.859 438.101 315.859 438.112 315.859 438.123C315.859 438.134 315.859 438.145 315.859 438.156C315.859 438.166 315.859 438.177 315.859 438.188C315.859 438.199 315.859 438.21 315.859 438.221C315.859 438.232 315.859 438.242 315.859 438.253C315.859 438.264 315.859 438.275 315.859 438.286C315.859 438.297 315.859 438.308 315.859 438.319C315.859 438.329 315.859 438.34 315.859 438.351C315.859 438.362 315.859 438.373 315.859 438.384C315.859 438.395 315.859 438.405 315.859 438.416C315.859 438.427 315.859 438.438 315.859 438.449C315.859 438.46 315.859 438.471 315.859 438.482C315.859 438.492 315.859 438.503 315.859 438.514C315.859 438.525 315.859 438.536 315.859 438.547C315.859 438.558 315.859 438.569 315.859 438.579C315.859 438.59 315.859 438.601 315.859 438.612C315.859 438.623 315.859 438.634 315.859 438.645C315.859 438.656 315.859 438.666 315.859 438.677C315.859 438.688 315.859 438.699 315.859 438.71C315.859 438.721 315.859 438.732 315.859 438.743C315.859 438.754 315.859 438.764 315.859 438.775C315.859 438.786 315.859 438.797 315.859 438.808C315.859 438.819 315.859 438.83 315.859 438.841C315.859 438.852 315.859 438.862 315.859 438.873C315.859 438.884 315.859 438.895 315.859 438.906C315.859 438.917 315.859 438.928 315.859 438.939C315.859 438.95 315.859 438.96 315.859 438.971C315.859 438.982 315.859 438.993 315.859 439.004C315.859 439.015 315.859 439.026 315.859 439.037C315.859 439.048 315.859 439.059 315.859 439.069C315.859 439.08 315.859 439.091 315.859 439.102C315.859 439.113 315.859 439.124 315.859 439.135C315.859 439.146 315.859 439.157 315.859 439.168C315.859 439.178 315.859 439.189 315.859 439.2C315.859 439.211 315.859 439.222 315.859 439.233C315.859 439.244 315.859 439.255 315.859 439.266C315.859 439.277 315.859 439.288 315.859 439.298C315.859 439.309 315.859 439.32 315.859 439.331C315.859 439.342 315.859 439.353 315.859 439.364C315.859 439.375 315.859 439.386 315.859 439.397C315.859 439.408 315.859 439.419 315.859 439.429C315.859 439.44 315.859 439.451 315.859 439.462C315.859 439.473 315.859 439.484 315.859 439.495C315.859 439.506 315.859 439.517 315.859 439.528C315.859 439.539 315.859 439.55 315.859 439.561C315.859 439.571 315.859 439.582 315.859 439.593C315.859 439.604 315.859 439.615 315.859 439.626C315.859 439.637 315.859 439.648 315.859 439.659C315.859 439.67 315.859 439.681 315.859 439.692C315.859 439.703 315.859 439.714 315.859 439.724C315.859 439.735 315.859 439.746 315.859 439.757C315.859 439.768 315.859 439.779 315.859 439.79C315.859 439.801 315.859 439.812 315.859 439.823C315.859 439.834 315.859 439.845 315.859 439.856C315.859 439.867 315.859 439.878 315.859 439.889C315.859 439.899 315.859 439.91 315.859 439.921C315.859 439.932 315.859 439.943 315.859 439.954C315.859 439.965 315.859 439.976 315.859 439.987C315.859 439.998 315.859 440.009 315.859 440.02C315.859 440.031 315.859 440.042 315.859 440.053C315.859 440.064 315.859 440.075 315.859 440.086C315.859 440.097 315.859 440.107 315.859 440.118C315.859 440.129 315.859 440.14 315.859 440.151C315.859 440.162 315.859 440.173 315.859 440.184C315.859 440.195 315.859 440.206 315.859 440.217C315.859 440.228 315.859 440.239 315.859 440.25C315.859 440.261 315.859 440.272 315.859 440.283C315.859 440.294 315.859 440.305 315.859 440.316C315.859 440.327 315.859 440.338 315.859 440.349C315.859 440.36 315.859 440.37 315.859 440.381C315.859 440.392 315.859 440.403 315.859 440.414C315.859 440.425 315.859 440.436 315.859 440.447C315.859 440.458 315.859 440.469 315.859 440.48C315.859 440.491 315.859 440.502 315.859 440.513C315.859 440.524 315.859 440.535 315.859 440.546C315.859 440.557 315.859 440.568 315.859 440.579C315.859 440.59 315.859 440.601 315.859 440.612C315.859 440.623 315.859 440.634 315.859 440.645C315.859 440.656 315.859 440.667 315.859 440.678C315.859 440.689 315.859 440.7 315.859 440.711C315.859 440.722 315.859 440.733 315.859 440.744C315.859 440.755 315.859 440.766 315.859 440.777C315.859 440.788 315.859 440.799 315.859 440.81C315.859 440.821 315.859 440.832 315.859 440.842C315.859 440.853 315.859 440.864 315.859 440.875C315.859 440.886 315.859 440.897 315.859 440.908C315.859 440.919 315.859 440.93 315.859 440.941C315.859 440.952 315.859 440.963 315.859 440.974C315.859 440.985 315.859 440.996 315.859 441.007C315.859 441.018 315.859 441.029 315.859 441.04C315.859 441.051 315.859 441.062 315.859 441.073C315.859 441.084 315.859 441.095 315.859 441.106C315.859 441.117 315.859 441.128 315.859 441.139C315.859 441.15 315.859 441.161 315.859 441.172C315.859 441.183 315.859 441.194 315.859 441.205C315.859 441.216 315.859 441.227 315.859 441.238C315.859 441.249 315.859 441.26 315.859 441.271C315.859 441.282 315.859 441.293 315.859 441.304C315.859 441.315 315.859 441.327 315.859 441.338C315.859 441.349 315.859 441.36 315.859 441.371C315.859 441.382 315.859 441.393 315.859 441.404C315.859 441.415 315.859 441.426 315.859 441.437C315.859 441.448 315.859 441.459 315.859 441.47C315.859 441.481 315.859 441.492 315.859 441.503C315.859 441.514 315.859 441.525 315.859 441.536C315.859 441.547 315.859 441.558 315.859 441.569C315.859 441.58 315.859 441.591 315.859 441.602C315.859 441.613 315.859 441.624 315.859 441.635C315.859 441.646 315.859 441.657 315.859 441.668C315.859 441.679 315.859 441.69 315.859 441.701C315.859 441.712 315.859 441.723 315.859 441.734C315.859 441.745 315.859 441.756 315.859 441.767C315.859 441.778 315.859 441.789 315.859 441.801C315.859 441.812 315.859 441.823 315.859 441.834C315.859 441.845 315.859 441.856 315.859 441.867C315.859 441.878 315.859 441.889 315.859 441.9C315.859 441.911 315.859 441.922 315.859 441.933C315.859 441.944 315.859 441.955 315.859 441.966C315.859 441.977 315.859 441.988 315.859 441.999C315.859 442.01 315.859 442.021 315.859 442.032C315.859 442.043 315.859 442.054 315.859 442.066C315.859 442.077 315.859 442.088 315.859 442.099C315.859 442.11 315.859 442.121 315.859 442.132C315.859 442.143 315.859 442.154 315.859 442.165C315.859 442.176 315.859 442.187 315.859 442.198C315.859 442.209 315.859 442.22 315.859 442.231C315.859 442.242 315.859 442.253 315.859 442.264C315.859 442.276 315.859 442.287 315.859 442.298C315.859 442.309 315.859 442.32 315.859 442.331C315.859 442.342 315.859 442.353 315.859 442.364C315.859 442.375 315.859 442.386 315.859 442.397C315.859 442.408 315.859 442.419 315.859 442.43C315.859 442.441 315.859 442.453 315.859 442.464C315.859 442.475 315.859 442.486 315.859 442.497C315.859 442.508 315.859 442.519 315.859 442.53C315.859 442.541 315.859 442.552 315.859 442.563C315.859 442.574 315.859 442.585 315.859 442.596C315.859 442.608 315.859 442.619 315.859 442.63C315.859 442.641 315.859 442.652 315.859 442.663C315.859 442.674 315.859 442.685 315.859 442.696C315.859 442.707 315.859 442.718 315.859 442.729C315.859 442.74 315.859 442.752 315.859 442.763C315.859 442.774 315.859 442.785 315.859 442.796C315.859 442.807 315.859 442.818 315.859 442.829C315.859 442.84 315.859 442.851 315.859 442.862C315.859 442.873 315.859 442.885 315.859 442.896C315.859 442.907 315.859 442.918 315.859 442.929C315.859 442.94 315.859 442.951 315.859 442.962C315.859 442.973 315.859 442.984 315.859 442.995C315.859 443.007 315.859 443.018 315.859 443.029C315.859 443.04 315.859 443.051 315.859 443.062C315.859 443.073 315.859 443.084 315.859 443.095C315.859 443.106 315.859 443.118 315.859 443.129C315.859 443.14 315.859 443.151 315.859 443.162C315.859 443.173 315.859 443.184 315.859 443.195C315.859 443.206 315.859 443.217 315.859 443.229C315.859 443.24 315.859 443.251 315.859 443.262C315.859 443.273 315.859 443.284 315.859 443.295C315.859 443.306 315.859 443.317 315.859 443.329C315.859 443.34 315.859 443.351 315.859 443.362C315.859 443.373 315.859 443.384 315.859 443.395C315.859 443.406 315.859 443.417 315.859 443.429C315.859 443.44 315.859 443.451 315.859 443.462C315.859 443.473 315.859 443.484 315.859 443.495C315.859 443.506 315.859 443.517 315.859 443.529C315.859 443.54 315.859 443.551 315.859 443.562C315.859 443.573 315.859 443.584 315.859 443.595C315.859 443.606 315.859 443.618 315.859 443.629C315.859 443.64 315.859 443.651 315.859 443.662C315.859 443.673 315.859 443.684 315.859 443.695C315.859 443.707 315.859 443.718 315.859 443.729C315.859 443.74 315.859 443.751 315.859 443.762C315.859 443.773 315.859 443.784 315.859 443.796C315.859 443.807 315.859 443.818 315.859 443.829C315.859 443.84 315.859 443.851 315.859 443.862C315.859 443.874 315.859 443.885 315.859 443.896C315.859 443.907 315.859 443.918 315.859 443.929C315.859 443.94 315.859 443.952 315.859 443.963C315.859 443.974 315.859 443.985 315.859 443.996C315.859 444.007 315.859 444.018 315.859 444.029C315.859 444.041 315.859 444.052 315.859 444.063C315.859 444.074 315.859 444.085 315.859 444.096C315.859 444.108 315.859 444.119 315.859 444.13C315.859 444.141 315.859 444.152 315.859 444.163C315.859 444.174 315.859 444.186 315.859 444.197C315.859 444.208 315.859 444.219 315.859 444.23C315.859 444.241 315.859 444.252 315.859 444.264C315.859 444.275 315.859 444.286 315.859 444.297C315.859 444.308 315.859 444.319 315.859 444.331C315.859 444.342 315.859 444.353 315.859 444.364C315.859 444.375 315.859 444.386 315.859 444.398C315.859 444.409 315.859 444.42 315.859 444.431C315.859 444.442 315.859 444.453 315.859 444.465C315.859 444.476 315.859 444.487 315.859 444.498C315.859 444.509 315.859 444.52 315.859 444.531C315.859 444.543 315.859 444.554 315.859 444.565C315.859 444.576 315.859 444.587 315.859 444.599C315.859 444.61 315.859 444.621 315.859 444.632C315.859 444.643 315.859 444.654 315.859 444.666C315.859 444.677 315.859 444.688 315.859 444.699C315.859 444.71 315.859 444.721 315.859 444.733C315.859 444.744 315.859 444.755 315.859 444.766C315.859 444.777 315.859 444.788 315.859 444.8C315.859 444.811 315.859 444.822 315.859 444.833C315.859 444.844 315.859 444.856 315.859 444.867C315.859 444.878 315.859 444.889 315.859 444.9C315.859 444.912 315.859 444.923 315.859 444.934C315.859 444.945 315.859 444.956 315.859 444.967C315.859 444.979 315.859 444.99 315.859 445.001C315.859 445.012 315.859 445.023 315.859 445.035C315.859 445.046 315.859 445.057 315.859 445.068C315.859 445.079 315.859 445.091 315.859 445.102C315.859 445.113 315.859 445.124 315.859 445.135C315.859 445.147 315.859 445.158 315.859 445.169C315.859 445.18 315.859 445.191 315.859 445.203C315.859 445.214 315.859 445.225 315.859 445.236C315.859 445.247 315.859 445.259 315.859 445.27C315.859 445.281 315.859 445.292 315.859 445.303C315.859 445.315 315.859 445.326 315.859 445.337C315.859 445.348 315.859 445.359 315.859 445.371C315.859 445.382 315.859 445.393 315.859 445.404C315.859 445.415 315.859 445.427 315.859 445.438C315.859 445.449 315.859 445.46 315.859 445.471C315.859 445.483 315.859 445.494 315.859 445.505C315.859 445.516 315.859 445.528 315.859 445.539C315.859 445.55 315.859 445.561 315.859 445.572C315.859 445.584 315.859 445.595 315.859 445.606C315.859 445.617 315.859 445.629 315.859 445.64C315.859 445.651 315.859 445.662 315.859 445.673C315.859 445.685 315.859 445.696 315.859 445.707C315.859 445.718 315.859 445.73 315.859 445.741C315.859 445.752 315.859 445.763 315.859 445.774C315.859 445.786 315.859 445.797 315.859 445.808C315.859 445.819 315.859 445.831 315.859 445.842C315.859 445.853 315.859 445.864 315.859 445.875C315.859 445.887 315.859 445.898 315.859 445.909C315.859 445.92 315.859 445.932 315.859 445.943C315.859 445.954 315.859 445.965 315.859 445.977C315.859 445.988 315.859 445.999 315.859 446.01C315.859 446.022 315.859 446.033 315.859 446.044C315.859 446.055 315.859 446.067 315.859 446.078C315.859 446.089 315.859 446.1 315.859 446.111C315.859 446.123 315.859 446.134 315.859 446.145C315.859 446.156 315.859 446.168 315.859 446.179C315.859 446.19 315.859 446.201 315.859 446.213C315.859 446.224 315.859 446.235 315.859 446.246C315.859 446.258 315.859 446.269 315.859 446.28C315.859 446.291 315.859 446.303 315.859 446.314C315.859 446.325 315.859 446.336 315.859 446.348C315.859 446.359 315.859 446.37 315.859 446.381C315.859 446.393 315.859 446.404 315.859 446.415C315.859 446.427 315.859 446.438 315.859 446.449C315.859 446.46 315.859 446.472 315.859 446.483C315.859 446.494 315.859 446.505 315.859 446.517C315.859 446.528 315.859 446.539 315.859 446.55C315.859 446.562 315.859 446.573 315.859 446.584C315.859 446.595 315.859 446.607 315.859 446.618C315.859 446.629 315.859 446.641 315.859 446.652C315.859 446.663 315.859 446.674 315.859 446.686C315.859 446.697 315.859 446.708 315.859 446.719C315.859 446.731 315.859 446.742 315.859 446.753C315.859 446.765 315.859 446.776 315.859 446.787C315.859 446.798 315.859 446.81 315.859 446.821C315.859 446.832 315.859 446.843 315.859 446.855C315.859 446.866 315.859 446.877 315.859 446.889C315.859 446.9 315.859 446.911 315.859 446.922C315.859 446.934 315.859 446.945 315.859 446.956C315.859 446.968 315.859 446.979 315.859 446.99C315.859 447.001 315.859 447.013 315.859 447.024C315.859 447.035 315.859 447.047 315.859 447.058C315.859 447.069 315.859 447.08 315.859 447.092C315.859 447.103 315.859 447.114 315.859 447.126C315.859 447.137 315.859 447.148 315.859 447.159C315.859 447.171 315.859 447.182 315.859 447.193C315.859 447.205 315.859 447.216 315.859 447.227C315.859 447.239 315.859 447.25 315.859 447.261C315.859 447.272 315.859 447.284 315.859 447.295C315.859 447.306 315.859 447.318 315.859 447.329C315.859 447.34 315.859 447.352 315.859 447.363C315.859 447.374 315.859 447.385 315.859 447.397C315.859 447.408 315.859 447.419 315.859 447.431C315.859 447.442 315.859 447.453 315.859 447.465C315.859 447.476 315.859 447.487 315.859 447.499C315.859 447.51 315.859 447.521 315.859 447.532C315.859 447.544 315.859 447.555 315.859 447.566C315.859 447.578 315.859 447.589 315.859 447.6C315.859 447.612 315.859 447.623 315.859 447.634C315.859 447.646 315.859 447.657 315.859 447.668C315.859 447.68 315.859 447.691 315.859 447.702C315.859 447.713 315.859 447.725 315.859 447.736C315.859 447.747 315.859 447.759 315.859 447.77C315.859 447.781 315.859 447.793 315.859 447.804C315.859 447.815 315.859 447.827 315.859 447.838C315.859 447.849 315.859 447.861 315.859 447.872C315.859 447.883 315.859 447.895 315.859 447.906C315.859 447.917 315.859 447.929 315.859 447.94C315.859 447.951 315.859 447.963 315.859 447.974C315.859 447.985 315.859 447.997 315.859 448.008C315.859 448.019 315.859 448.031 315.859 448.042C315.859 448.053 315.859 448.065 315.859 448.076C315.859 448.087 315.859 448.099 315.859 448.11C315.859 448.121 315.859 448.133 315.859 448.144C315.859 448.155 315.859 448.167 315.859 448.178C315.859 448.189 315.859 448.201 315.859 448.212C315.859 448.223 315.859 448.235 315.859 448.246C315.859 448.257 315.859 448.269 315.859 448.28C315.859 448.292 315.859 448.303 315.859 448.314C315.859 448.326 315.859 448.337 315.859 448.348C315.859 448.36 315.859 448.371 315.859 448.382C315.859 448.394 315.859 448.405 315.859 448.416C315.859 448.428 315.859 448.439 315.859 448.45C315.859 448.462 315.859 448.473 315.859 448.484C315.859 448.496 315.859 448.507 315.859 448.519C315.859 448.53 315.859 448.541 315.859 448.553C315.859 448.564 315.859 448.575 315.859 448.587C315.859 448.598 315.859 448.609 315.859 448.621C315.859 448.632 315.859 448.644 315.859 448.655C315.859 448.666 315.859 448.678 315.859 448.689C315.859 448.7 315.859 448.712 315.859 448.723C315.859 448.734 315.859 448.746 315.859 448.757C315.859 448.769 315.859 448.78 315.859 448.791C315.859 448.803 315.859 448.814 315.859 448.825C315.859 448.837 315.859 448.848 315.859 448.86C315.859 448.871 315.859 448.882 315.859 448.894C315.859 448.905 315.859 448.916 315.859 448.928C315.859 448.939 315.859 448.951 315.859 448.962C315.859 448.973 315.859 448.985 315.859 448.996C315.859 449.007 315.859 449.019 315.859 449.03C315.859 449.042 315.859 449.053 315.859 449.064C315.859 449.076 315.859 449.087 315.859 449.099C315.859 449.11 315.859 449.121 315.859 449.133C315.859 449.144 315.859 449.155 315.859 449.167C315.859 449.178 315.859 449.19 315.859 449.201C315.859 449.212 315.859 449.224 315.859 449.235C315.859 449.247 315.859 449.258 315.859 449.269C315.859 449.281 315.859 449.292 315.859 449.304C315.859 449.315 315.859 449.326 315.859 449.338C315.859 449.349 315.859 449.361 315.859 449.372C315.859 449.383 315.859 449.395 315.859 449.406C315.859 449.418 315.859 449.429 315.859 449.44C315.859 449.452 315.859 449.463 315.859 449.475C315.859 449.486 315.859 449.497 315.859 449.509C315.859 449.52 315.859 449.532 315.859 449.543C315.859 449.554 315.859 449.566 315.859 449.577C315.859 449.589 315.859 449.6 315.859 449.611C315.859 449.623 315.859 449.634 315.859 449.646C315.859 449.657 315.859 449.668 315.859 449.68C315.859 449.691 315.859 449.703 315.859 449.714C315.859 449.726 315.859 449.737 315.859 449.748C315.859 449.76 315.859 449.771 315.859 449.783C315.859 449.794 315.859 449.805 315.859 449.817C315.859 449.828 315.859 449.84 315.859 449.851C315.859 449.863 315.859 449.874 315.859 449.885C315.859 449.897 315.859 449.908 315.859 449.92C315.859 449.931 315.859 449.943 315.859 449.954C315.859 449.965 315.859 449.977 315.859 449.988C315.859 450 315.859 450.011 315.859 450.023C315.859 450.034 315.859 450.045 315.859 450.057C315.859 450.068 315.859 450.08 315.859 450.091C315.859 450.103 315.859 450.114 315.859 450.125C315.859 450.137 315.859 450.148 315.859 450.16C315.859 450.171 315.859 450.183 315.859 450.194C315.859 450.205 315.859 450.217 315.859 450.228C315.859 450.24 315.859 450.251 315.859 450.263C315.859 450.274 315.859 450.286 315.859 450.297C315.859 450.308 315.859 450.32 315.859 450.331C315.859 450.343 315.859 450.354 315.859 450.366C315.859 450.377 315.859 450.389 315.859 450.4C315.859 450.411 315.859 450.423 315.859 450.434C315.859 450.446 315.859 450.457 315.859 450.469C315.859 450.48 315.859 450.492 315.859 450.503C315.859 450.514 315.859 450.526 315.859 450.537C315.859 450.549 315.859 450.56 315.859 450.572C315.859 450.583 315.859 450.595 315.859 450.606C315.859 450.618 315.859 450.629 315.859 450.64C315.859 450.652 315.859 450.663 315.859 450.675C315.859 450.686 315.859 450.698 315.859 450.709C315.859 450.721 315.859 450.732 315.859 450.744C315.859 450.755 315.859 450.767 315.859 450.778C315.859 450.789 315.859 450.801 315.859 450.812C315.859 450.824 315.859 450.835 315.859 450.847C315.859 450.858 315.859 450.87 315.859 450.881C315.859 450.893 315.859 450.904 315.859 450.916C315.859 450.927 315.859 450.939 315.859 450.95C315.859 450.962 315.859 450.973 315.859 450.984C315.859 450.996 315.859 451.007 315.859 451.019C315.859 451.03 315.859 451.042 315.859 451.053C315.859 451.065 315.859 451.076 315.859 451.088C315.859 451.099 315.859 451.111 315.859 451.122C315.859 451.134 315.859 451.145 315.859 451.157C315.859 451.168 315.859 451.18 315.859 451.191C315.859 451.203 315.859 451.214 315.859 451.226C315.859 451.237 315.859 451.249 315.859 451.26C315.859 451.272 315.859 451.283 315.859 451.294C315.859 451.306 315.859 451.317 315.859 451.329C315.859 451.34 315.859 451.352 315.859 451.363C315.859 451.375 315.859 451.386 315.859 451.398C315.859 451.409 315.859 451.421 315.859 451.432C315.859 451.444 315.859 451.455 315.859 451.467C315.859 451.478 315.859 451.49 315.859 451.501C315.859 451.513 315.859 451.524 315.859 451.536C315.859 451.547 315.859 451.559 315.859 451.57C315.859 451.582 315.859 451.593 315.859 451.605C315.859 451.616 315.859 451.628 315.859 451.639C315.859 451.651 315.859 451.662 315.859 451.674C315.859 451.685 315.859 451.697 315.859 451.708C315.859 451.72 315.859 451.731 315.859 451.743C315.859 451.754 315.859 451.766 315.859 451.778C315.859 451.789 315.859 451.801 315.859 451.812C315.859 451.824 315.859 451.835 315.859 451.847C315.859 451.858 315.859 451.87 315.859 451.881C315.859 451.893 315.859 451.904 315.859 451.916C315.859 451.927 315.859 451.939 315.859 451.95C315.859 451.962 315.859 451.973 315.859 451.985C315.859 451.996 315.859 452.008 315.859 452.019C315.859 452.031 315.859 452.042 315.859 452.054C315.859 452.065 315.859 452.077 315.859 452.089C315.859 452.1 315.859 452.112 315.859 452.123C315.859 452.135 315.859 452.146 315.859 452.158C315.859 452.169 315.859 452.181 315.859 452.192C315.859 452.204 315.859 452.215 315.859 452.227C315.859 452.238 315.859 452.25 315.859 452.261C315.859 452.273 315.859 452.285 315.859 452.296C315.859 452.308 315.859 452.319 315.859 452.331C315.859 452.342 315.859 452.354 315.859 452.365C315.859 452.377 315.859 452.388 315.859 452.4C315.859 452.411 315.859 452.423 315.859 452.435C315.859 452.446 315.859 452.458 315.859 452.469C315.859 452.481 315.859 452.492 315.859 452.504C315.859 452.515 315.859 452.527 315.859 452.538C315.859 452.55 315.859 452.562 315.859 452.573C315.859 452.585 315.859 452.596 315.859 452.608C315.859 452.619 315.859 452.631 315.859 452.642C315.859 452.654 315.859 452.665 315.859 452.677C315.859 452.689 315.859 452.7 315.859 452.712C315.859 452.723 315.859 452.735 315.859 452.746C315.859 452.758 315.859 452.769 315.859 452.781C315.859 452.793 315.859 452.804 315.859 452.816C315.859 452.827 315.859 452.839 315.859 452.85C315.859 452.862 315.859 452.874 315.859 452.885C315.859 452.897 315.859 452.908 315.859 452.92C315.859 452.931 315.859 452.943 315.859 452.954C315.859 452.966 315.859 452.978 315.859 452.989C315.859 453.001 315.859 453.012 315.859 453.024C315.859 453.035 315.859 453.047 315.859 453.059H321.859H327.859C327.859 453.047 327.859 453.035 327.859 453.024C327.859 453.012 327.859 453.001 327.859 452.989C327.859 452.978 327.859 452.966 327.859 452.954C327.859 452.943 327.859 452.931 327.859 452.92C327.859 452.908 327.859 452.897 327.859 452.885C327.859 452.874 327.859 452.862 327.859 452.85C327.859 452.839 327.859 452.827 327.859 452.816C327.859 452.804 327.859 452.793 327.859 452.781C327.859 452.769 327.859 452.758 327.859 452.746C327.859 452.735 327.859 452.723 327.859 452.712C327.859 452.7 327.859 452.689 327.859 452.677C327.859 452.665 327.859 452.654 327.859 452.642C327.859 452.631 327.859 452.619 327.859 452.608C327.859 452.596 327.859 452.585 327.859 452.573C327.859 452.562 327.859 452.55 327.859 452.538C327.859 452.527 327.859 452.515 327.859 452.504C327.859 452.492 327.859 452.481 327.859 452.469C327.859 452.458 327.859 452.446 327.859 452.435C327.859 452.423 327.859 452.411 327.859 452.4C327.859 452.388 327.859 452.377 327.859 452.365C327.859 452.354 327.859 452.342 327.859 452.331C327.859 452.319 327.859 452.308 327.859 452.296C327.859 452.285 327.859 452.273 327.859 452.261C327.859 452.25 327.859 452.238 327.859 452.227C327.859 452.215 327.859 452.204 327.859 452.192C327.859 452.181 327.859 452.169 327.859 452.158C327.859 452.146 327.859 452.135 327.859 452.123C327.859 452.112 327.859 452.1 327.859 452.089C327.859 452.077 327.859 452.065 327.859 452.054C327.859 452.042 327.859 452.031 327.859 452.019C327.859 452.008 327.859 451.996 327.859 451.985C327.859 451.973 327.859 451.962 327.859 451.95C327.859 451.939 327.859 451.927 327.859 451.916C327.859 451.904 327.859 451.893 327.859 451.881C327.859 451.87 327.859 451.858 327.859 451.847C327.859 451.835 327.859 451.824 327.859 451.812C327.859 451.801 327.859 451.789 327.859 451.778C327.859 451.766 327.859 451.754 327.859 451.743C327.859 451.731 327.859 451.72 327.859 451.708C327.859 451.697 327.859 451.685 327.859 451.674C327.859 451.662 327.859 451.651 327.859 451.639C327.859 451.628 327.859 451.616 327.859 451.605C327.859 451.593 327.859 451.582 327.859 451.57C327.859 451.559 327.859 451.547 327.859 451.536C327.859 451.524 327.859 451.513 327.859 451.501C327.859 451.49 327.859 451.478 327.859 451.467C327.859 451.455 327.859 451.444 327.859 451.432C327.859 451.421 327.859 451.409 327.859 451.398C327.859 451.386 327.859 451.375 327.859 451.363C327.859 451.352 327.859 451.34 327.859 451.329C327.859 451.317 327.859 451.306 327.859 451.294C327.859 451.283 327.859 451.272 327.859 451.26C327.859 451.249 327.859 451.237 327.859 451.226C327.859 451.214 327.859 451.203 327.859 451.191C327.859 451.18 327.859 451.168 327.859 451.157C327.859 451.145 327.859 451.134 327.859 451.122C327.859 451.111 327.859 451.099 327.859 451.088C327.859 451.076 327.859 451.065 327.859 451.053C327.859 451.042 327.859 451.03 327.859 451.019C327.859 451.007 327.859 450.996 327.859 450.984C327.859 450.973 327.859 450.962 327.859 450.95C327.859 450.939 327.859 450.927 327.859 450.916C327.859 450.904 327.859 450.893 327.859 450.881C327.859 450.87 327.859 450.858 327.859 450.847C327.859 450.835 327.859 450.824 327.859 450.812C327.859 450.801 327.859 450.789 327.859 450.778C327.859 450.767 327.859 450.755 327.859 450.744C327.859 450.732 327.859 450.721 327.859 450.709C327.859 450.698 327.859 450.686 327.859 450.675C327.859 450.663 327.859 450.652 327.859 450.64C327.859 450.629 327.859 450.618 327.859 450.606C327.859 450.595 327.859 450.583 327.859 450.572C327.859 450.56 327.859 450.549 327.859 450.537C327.859 450.526 327.859 450.514 327.859 450.503C327.859 450.492 327.859 450.48 327.859 450.469C327.859 450.457 327.859 450.446 327.859 450.434C327.859 450.423 327.859 450.411 327.859 450.4C327.859 450.389 327.859 450.377 327.859 450.366C327.859 450.354 327.859 450.343 327.859 450.331C327.859 450.32 327.859 450.308 327.859 450.297C327.859 450.286 327.859 450.274 327.859 450.263C327.859 450.251 327.859 450.24 327.859 450.228C327.859 450.217 327.859 450.205 327.859 450.194C327.859 450.183 327.859 450.171 327.859 450.16C327.859 450.148 327.859 450.137 327.859 450.125C327.859 450.114 327.859 450.103 327.859 450.091C327.859 450.08 327.859 450.068 327.859 450.057C327.859 450.045 327.859 450.034 327.859 450.023C327.859 450.011 327.859 450 327.859 449.988C327.859 449.977 327.859 449.965 327.859 449.954C327.859 449.943 327.859 449.931 327.859 449.92C327.859 449.908 327.859 449.897 327.859 449.885C327.859 449.874 327.859 449.863 327.859 449.851C327.859 449.84 327.859 449.828 327.859 449.817C327.859 449.805 327.859 449.794 327.859 449.783C327.859 449.771 327.859 449.76 327.859 449.748C327.859 449.737 327.859 449.726 327.859 449.714C327.859 449.703 327.859 449.691 327.859 449.68C327.859 449.668 327.859 449.657 327.859 449.646C327.859 449.634 327.859 449.623 327.859 449.611C327.859 449.6 327.859 449.589 327.859 449.577C327.859 449.566 327.859 449.554 327.859 449.543C327.859 449.532 327.859 449.52 327.859 449.509C327.859 449.497 327.859 449.486 327.859 449.475C327.859 449.463 327.859 449.452 327.859 449.44C327.859 449.429 327.859 449.418 327.859 449.406C327.859 449.395 327.859 449.383 327.859 449.372C327.859 449.361 327.859 449.349 327.859 449.338C327.859 449.326 327.859 449.315 327.859 449.304C327.859 449.292 327.859 449.281 327.859 449.269C327.859 449.258 327.859 449.247 327.859 449.235C327.859 449.224 327.859 449.212 327.859 449.201C327.859 449.19 327.859 449.178 327.859 449.167C327.859 449.155 327.859 449.144 327.859 449.133C327.859 449.121 327.859 449.11 327.859 449.099C327.859 449.087 327.859 449.076 327.859 449.064C327.859 449.053 327.859 449.042 327.859 449.03C327.859 449.019 327.859 449.007 327.859 448.996C327.859 448.985 327.859 448.973 327.859 448.962C327.859 448.951 327.859 448.939 327.859 448.928C327.859 448.916 327.859 448.905 327.859 448.894C327.859 448.882 327.859 448.871 327.859 448.86C327.859 448.848 327.859 448.837 327.859 448.825C327.859 448.814 327.859 448.803 327.859 448.791C327.859 448.78 327.859 448.769 327.859 448.757C327.859 448.746 327.859 448.734 327.859 448.723C327.859 448.712 327.859 448.7 327.859 448.689C327.859 448.678 327.859 448.666 327.859 448.655C327.859 448.644 327.859 448.632 327.859 448.621C327.859 448.609 327.859 448.598 327.859 448.587C327.859 448.575 327.859 448.564 327.859 448.553C327.859 448.541 327.859 448.53 327.859 448.519C327.859 448.507 327.859 448.496 327.859 448.484C327.859 448.473 327.859 448.462 327.859 448.45C327.859 448.439 327.859 448.428 327.859 448.416C327.859 448.405 327.859 448.394 327.859 448.382C327.859 448.371 327.859 448.36 327.859 448.348C327.859 448.337 327.859 448.326 327.859 448.314C327.859 448.303 327.859 448.292 327.859 448.28C327.859 448.269 327.859 448.257 327.859 448.246C327.859 448.235 327.859 448.223 327.859 448.212C327.859 448.201 327.859 448.189 327.859 448.178C327.859 448.167 327.859 448.155 327.859 448.144C327.859 448.133 327.859 448.121 327.859 448.11C327.859 448.099 327.859 448.087 327.859 448.076C327.859 448.065 327.859 448.053 327.859 448.042C327.859 448.031 327.859 448.019 327.859 448.008C327.859 447.997 327.859 447.985 327.859 447.974C327.859 447.963 327.859 447.951 327.859 447.94C327.859 447.929 327.859 447.917 327.859 447.906C327.859 447.895 327.859 447.883 327.859 447.872C327.859 447.861 327.859 447.849 327.859 447.838C327.859 447.827 327.859 447.815 327.859 447.804C327.859 447.793 327.859 447.781 327.859 447.77C327.859 447.759 327.859 447.747 327.859 447.736C327.859 447.725 327.859 447.713 327.859 447.702C327.859 447.691 327.859 447.68 327.859 447.668C327.859 447.657 327.859 447.646 327.859 447.634C327.859 447.623 327.859 447.612 327.859 447.6C327.859 447.589 327.859 447.578 327.859 447.566C327.859 447.555 327.859 447.544 327.859 447.532C327.859 447.521 327.859 447.51 327.859 447.499C327.859 447.487 327.859 447.476 327.859 447.465C327.859 447.453 327.859 447.442 327.859 447.431C327.859 447.419 327.859 447.408 327.859 447.397C327.859 447.385 327.859 447.374 327.859 447.363C327.859 447.352 327.859 447.34 327.859 447.329C327.859 447.318 327.859 447.306 327.859 447.295C327.859 447.284 327.859 447.272 327.859 447.261C327.859 447.25 327.859 447.239 327.859 447.227C327.859 447.216 327.859 447.205 327.859 447.193C327.859 447.182 327.859 447.171 327.859 447.159C327.859 447.148 327.859 447.137 327.859 447.126C327.859 447.114 327.859 447.103 327.859 447.092C327.859 447.08 327.859 447.069 327.859 447.058C327.859 447.047 327.859 447.035 327.859 447.024C327.859 447.013 327.859 447.001 327.859 446.99C327.859 446.979 327.859 446.968 327.859 446.956C327.859 446.945 327.859 446.934 327.859 446.922C327.859 446.911 327.859 446.9 327.859 446.889C327.859 446.877 327.859 446.866 327.859 446.855C327.859 446.843 327.859 446.832 327.859 446.821C327.859 446.81 327.859 446.798 327.859 446.787C327.859 446.776 327.859 446.765 327.859 446.753C327.859 446.742 327.859 446.731 327.859 446.719C327.859 446.708 327.859 446.697 327.859 446.686C327.859 446.674 327.859 446.663 327.859 446.652C327.859 446.641 327.859 446.629 327.859 446.618C327.859 446.607 327.859 446.595 327.859 446.584C327.859 446.573 327.859 446.562 327.859 446.55C327.859 446.539 327.859 446.528 327.859 446.517C327.859 446.505 327.859 446.494 327.859 446.483C327.859 446.472 327.859 446.46 327.859 446.449C327.859 446.438 327.859 446.427 327.859 446.415C327.859 446.404 327.859 446.393 327.859 446.381C327.859 446.37 327.859 446.359 327.859 446.348C327.859 446.336 327.859 446.325 327.859 446.314C327.859 446.303 327.859 446.291 327.859 446.28C327.859 446.269 327.859 446.258 327.859 446.246C327.859 446.235 327.859 446.224 327.859 446.213C327.859 446.201 327.859 446.19 327.859 446.179C327.859 446.168 327.859 446.156 327.859 446.145C327.859 446.134 327.859 446.123 327.859 446.111C327.859 446.1 327.859 446.089 327.859 446.078C327.859 446.067 327.859 446.055 327.859 446.044C327.859 446.033 327.859 446.022 327.859 446.01C327.859 445.999 327.859 445.988 327.859 445.977C327.859 445.965 327.859 445.954 327.859 445.943C327.859 445.932 327.859 445.92 327.859 445.909C327.859 445.898 327.859 445.887 327.859 445.875C327.859 445.864 327.859 445.853 327.859 445.842C327.859 445.831 327.859 445.819 327.859 445.808C327.859 445.797 327.859 445.786 327.859 445.774C327.859 445.763 327.859 445.752 327.859 445.741C327.859 445.73 327.859 445.718 327.859 445.707C327.859 445.696 327.859 445.685 327.859 445.673C327.859 445.662 327.859 445.651 327.859 445.64C327.859 445.629 327.859 445.617 327.859 445.606C327.859 445.595 327.859 445.584 327.859 445.572C327.859 445.561 327.859 445.55 327.859 445.539C327.859 445.528 327.859 445.516 327.859 445.505C327.859 445.494 327.859 445.483 327.859 445.471C327.859 445.46 327.859 445.449 327.859 445.438C327.859 445.427 327.859 445.415 327.859 445.404C327.859 445.393 327.859 445.382 327.859 445.371C327.859 445.359 327.859 445.348 327.859 445.337C327.859 445.326 327.859 445.315 327.859 445.303C327.859 445.292 327.859 445.281 327.859 445.27C327.859 445.259 327.859 445.247 327.859 445.236C327.859 445.225 327.859 445.214 327.859 445.203C327.859 445.191 327.859 445.18 327.859 445.169C327.859 445.158 327.859 445.147 327.859 445.135C327.859 445.124 327.859 445.113 327.859 445.102C327.859 445.091 327.859 445.079 327.859 445.068C327.859 445.057 327.859 445.046 327.859 445.035C327.859 445.023 327.859 445.012 327.859 445.001C327.859 444.99 327.859 444.979 327.859 444.967C327.859 444.956 327.859 444.945 327.859 444.934C327.859 444.923 327.859 444.912 327.859 444.9C327.859 444.889 327.859 444.878 327.859 444.867C327.859 444.856 327.859 444.844 327.859 444.833C327.859 444.822 327.859 444.811 327.859 444.8C327.859 444.788 327.859 444.777 327.859 444.766C327.859 444.755 327.859 444.744 327.859 444.733C327.859 444.721 327.859 444.71 327.859 444.699C327.859 444.688 327.859 444.677 327.859 444.666C327.859 444.654 327.859 444.643 327.859 444.632C327.859 444.621 327.859 444.61 327.859 444.599C327.859 444.587 327.859 444.576 327.859 444.565C327.859 444.554 327.859 444.543 327.859 444.531C327.859 444.52 327.859 444.509 327.859 444.498C327.859 444.487 327.859 444.476 327.859 444.465C327.859 444.453 327.859 444.442 327.859 444.431C327.859 444.42 327.859 444.409 327.859 444.398C327.859 444.386 327.859 444.375 327.859 444.364C327.859 444.353 327.859 444.342 327.859 444.331C327.859 444.319 327.859 444.308 327.859 444.297C327.859 444.286 327.859 444.275 327.859 444.264C327.859 444.252 327.859 444.241 327.859 444.23C327.859 444.219 327.859 444.208 327.859 444.197C327.859 444.186 327.859 444.174 327.859 444.163C327.859 444.152 327.859 444.141 327.859 444.13C327.859 444.119 327.859 444.108 327.859 444.096C327.859 444.085 327.859 444.074 327.859 444.063C327.859 444.052 327.859 444.041 327.859 444.029C327.859 444.018 327.859 444.007 327.859 443.996C327.859 443.985 327.859 443.974 327.859 443.963C327.859 443.952 327.859 443.94 327.859 443.929C327.859 443.918 327.859 443.907 327.859 443.896C327.859 443.885 327.859 443.874 327.859 443.862C327.859 443.851 327.859 443.84 327.859 443.829C327.859 443.818 327.859 443.807 327.859 443.796C327.859 443.784 327.859 443.773 327.859 443.762C327.859 443.751 327.859 443.74 327.859 443.729C327.859 443.718 327.859 443.707 327.859 443.695C327.859 443.684 327.859 443.673 327.859 443.662C327.859 443.651 327.859 443.64 327.859 443.629C327.859 443.618 327.859 443.606 327.859 443.595C327.859 443.584 327.859 443.573 327.859 443.562C327.859 443.551 327.859 443.54 327.859 443.529C327.859 443.517 327.859 443.506 327.859 443.495C327.859 443.484 327.859 443.473 327.859 443.462C327.859 443.451 327.859 443.44 327.859 443.429C327.859 443.417 327.859 443.406 327.859 443.395C327.859 443.384 327.859 443.373 327.859 443.362C327.859 443.351 327.859 443.34 327.859 443.329C327.859 443.317 327.859 443.306 327.859 443.295C327.859 443.284 327.859 443.273 327.859 443.262C327.859 443.251 327.859 443.24 327.859 443.229C327.859 443.217 327.859 443.206 327.859 443.195C327.859 443.184 327.859 443.173 327.859 443.162C327.859 443.151 327.859 443.14 327.859 443.129C327.859 443.118 327.859 443.106 327.859 443.095C327.859 443.084 327.859 443.073 327.859 443.062C327.859 443.051 327.859 443.04 327.859 443.029C327.859 443.018 327.859 443.007 327.859 442.995C327.859 442.984 327.859 442.973 327.859 442.962C327.859 442.951 327.859 442.94 327.859 442.929C327.859 442.918 327.859 442.907 327.859 442.896C327.859 442.885 327.859 442.873 327.859 442.862C327.859 442.851 327.859 442.84 327.859 442.829C327.859 442.818 327.859 442.807 327.859 442.796C327.859 442.785 327.859 442.774 327.859 442.763C327.859 442.752 327.859 442.74 327.859 442.729C327.859 442.718 327.859 442.707 327.859 442.696C327.859 442.685 327.859 442.674 327.859 442.663C327.859 442.652 327.859 442.641 327.859 442.63C327.859 442.619 327.859 442.608 327.859 442.596C327.859 442.585 327.859 442.574 327.859 442.563C327.859 442.552 327.859 442.541 327.859 442.53C327.859 442.519 327.859 442.508 327.859 442.497C327.859 442.486 327.859 442.475 327.859 442.464C327.859 442.453 327.859 442.441 327.859 442.43C327.859 442.419 327.859 442.408 327.859 442.397C327.859 442.386 327.859 442.375 327.859 442.364C327.859 442.353 327.859 442.342 327.859 442.331C327.859 442.32 327.859 442.309 327.859 442.298C327.859 442.287 327.859 442.276 327.859 442.264C327.859 442.253 327.859 442.242 327.859 442.231C327.859 442.22 327.859 442.209 327.859 442.198C327.859 442.187 327.859 442.176 327.859 442.165C327.859 442.154 327.859 442.143 327.859 442.132C327.859 442.121 327.859 442.11 327.859 442.099C327.859 442.088 327.859 442.077 327.859 442.066C327.859 442.054 327.859 442.043 327.859 442.032C327.859 442.021 327.859 442.01 327.859 441.999C327.859 441.988 327.859 441.977 327.859 441.966C327.859 441.955 327.859 441.944 327.859 441.933C327.859 441.922 327.859 441.911 327.859 441.9C327.859 441.889 327.859 441.878 327.859 441.867C327.859 441.856 327.859 441.845 327.859 441.834C327.859 441.823 327.859 441.812 327.859 441.801C327.859 441.789 327.859 441.778 327.859 441.767C327.859 441.756 327.859 441.745 327.859 441.734C327.859 441.723 327.859 441.712 327.859 441.701C327.859 441.69 327.859 441.679 327.859 441.668C327.859 441.657 327.859 441.646 327.859 441.635C327.859 441.624 327.859 441.613 327.859 441.602C327.859 441.591 327.859 441.58 327.859 441.569C327.859 441.558 327.859 441.547 327.859 441.536C327.859 441.525 327.859 441.514 327.859 441.503C327.859 441.492 327.859 441.481 327.859 441.47C327.859 441.459 327.859 441.448 327.859 441.437C327.859 441.426 327.859 441.415 327.859 441.404C327.859 441.393 327.859 441.382 327.859 441.371C327.859 441.36 327.859 441.349 327.859 441.338C327.859 441.327 327.859 441.315 327.859 441.304C327.859 441.293 327.859 441.282 327.859 441.271C327.859 441.26 327.859 441.249 327.859 441.238C327.859 441.227 327.859 441.216 327.859 441.205C327.859 441.194 327.859 441.183 327.859 441.172C327.859 441.161 327.859 441.15 327.859 441.139C327.859 441.128 327.859 441.117 327.859 441.106C327.859 441.095 327.859 441.084 327.859 441.073C327.859 441.062 327.859 441.051 327.859 441.04C327.859 441.029 327.859 441.018 327.859 441.007C327.859 440.996 327.859 440.985 327.859 440.974C327.859 440.963 327.859 440.952 327.859 440.941C327.859 440.93 327.859 440.919 327.859 440.908C327.859 440.897 327.859 440.886 327.859 440.875C327.859 440.864 327.859 440.853 327.859 440.842C327.859 440.832 327.859 440.821 327.859 440.81C327.859 440.799 327.859 440.788 327.859 440.777C327.859 440.766 327.859 440.755 327.859 440.744C327.859 440.733 327.859 440.722 327.859 440.711C327.859 440.7 327.859 440.689 327.859 440.678C327.859 440.667 327.859 440.656 327.859 440.645C327.859 440.634 327.859 440.623 327.859 440.612C327.859 440.601 327.859 440.59 327.859 440.579C327.859 440.568 327.859 440.557 327.859 440.546C327.859 440.535 327.859 440.524 327.859 440.513C327.859 440.502 327.859 440.491 327.859 440.48C327.859 440.469 327.859 440.458 327.859 440.447C327.859 440.436 327.859 440.425 327.859 440.414C327.859 440.403 327.859 440.392 327.859 440.381C327.859 440.37 327.859 440.36 327.859 440.349C327.859 440.338 327.859 440.327 327.859 440.316C327.859 440.305 327.859 440.294 327.859 440.283C327.859 440.272 327.859 440.261 327.859 440.25C327.859 440.239 327.859 440.228 327.859 440.217C327.859 440.206 327.859 440.195 327.859 440.184C327.859 440.173 327.859 440.162 327.859 440.151C327.859 440.14 327.859 440.129 327.859 440.118C327.859 440.107 327.859 440.097 327.859 440.086C327.859 440.075 327.859 440.064 327.859 440.053C327.859 440.042 327.859 440.031 327.859 440.02C327.859 440.009 327.859 439.998 327.859 439.987C327.859 439.976 327.859 439.965 327.859 439.954C327.859 439.943 327.859 439.932 327.859 439.921C327.859 439.91 327.859 439.899 327.859 439.889C327.859 439.878 327.859 439.867 327.859 439.856C327.859 439.845 327.859 439.834 327.859 439.823C327.859 439.812 327.859 439.801 327.859 439.79C327.859 439.779 327.859 439.768 327.859 439.757C327.859 439.746 327.859 439.735 327.859 439.724C327.859 439.714 327.859 439.703 327.859 439.692C327.859 439.681 327.859 439.67 327.859 439.659C327.859 439.648 327.859 439.637 327.859 439.626C327.859 439.615 327.859 439.604 327.859 439.593C327.859 439.582 327.859 439.571 327.859 439.561C327.859 439.55 327.859 439.539 327.859 439.528C327.859 439.517 327.859 439.506 327.859 439.495C327.859 439.484 327.859 439.473 327.859 439.462C327.859 439.451 327.859 439.44 327.859 439.429C327.859 439.419 327.859 439.408 327.859 439.397C327.859 439.386 327.859 439.375 327.859 439.364C327.859 439.353 327.859 439.342 327.859 439.331C327.859 439.32 327.859 439.309 327.859 439.298C327.859 439.288 327.859 439.277 327.859 439.266C327.859 439.255 327.859 439.244 327.859 439.233C327.859 439.222 327.859 439.211 327.859 439.2C327.859 439.189 327.859 439.178 327.859 439.168C327.859 439.157 327.859 439.146 327.859 439.135C327.859 439.124 327.859 439.113 327.859 439.102C327.859 439.091 327.859 439.08 327.859 439.069C327.859 439.059 327.859 439.048 327.859 439.037C327.859 439.026 327.859 439.015 327.859 439.004C327.859 438.993 327.859 438.982 327.859 438.971C327.859 438.96 327.859 438.95 327.859 438.939C327.859 438.928 327.859 438.917 327.859 438.906C327.859 438.895 327.859 438.884 327.859 438.873C327.859 438.862 327.859 438.852 327.859 438.841C327.859 438.83 327.859 438.819 327.859 438.808C327.859 438.797 327.859 438.786 327.859 438.775C327.859 438.764 327.859 438.754 327.859 438.743C327.859 438.732 327.859 438.721 327.859 438.71C327.859 438.699 327.859 438.688 327.859 438.677C327.859 438.666 327.859 438.656 327.859 438.645C327.859 438.634 327.859 438.623 327.859 438.612C327.859 438.601 327.859 438.59 327.859 438.579C327.859 438.569 327.859 438.558 327.859 438.547C327.859 438.536 327.859 438.525 327.859 438.514C327.859 438.503 327.859 438.492 327.859 438.482C327.859 438.471 327.859 438.46 327.859 438.449C327.859 438.438 327.859 438.427 327.859 438.416C327.859 438.405 327.859 438.395 327.859 438.384C327.859 438.373 327.859 438.362 327.859 438.351C327.859 438.34 327.859 438.329 327.859 438.319C327.859 438.308 327.859 438.297 327.859 438.286C327.859 438.275 327.859 438.264 327.859 438.253C327.859 438.242 327.859 438.232 327.859 438.221C327.859 438.21 327.859 438.199 327.859 438.188C327.859 438.177 327.859 438.166 327.859 438.156C327.859 438.145 327.859 438.134 327.859 438.123C327.859 438.112 327.859 438.101 327.859 438.09C327.859 438.08 327.859 438.069 327.859 438.058C327.859 438.047 327.859 438.036 327.859 438.025C327.859 438.015 327.859 438.004 327.859 437.993C327.859 437.982 327.859 437.971 327.859 437.96C327.859 437.949 327.859 437.939 327.859 437.928C327.859 437.917 327.859 437.906 327.859 437.895C327.859 437.884 327.859 437.874 327.859 437.863C327.859 437.852 327.859 437.841 327.859 437.83C327.859 437.819 327.859 437.808 327.859 437.798C327.859 437.787 327.859 437.776 327.859 437.765C327.859 437.754 327.859 437.743 327.859 437.733C327.859 437.722 327.859 437.711 327.859 437.7C327.859 437.689 327.859 437.678 327.859 437.668C327.859 437.657 327.859 437.646 327.859 437.635C327.859 437.624 327.859 437.613 327.859 437.603C327.859 437.592 327.859 437.581 327.859 437.57C327.859 437.559 327.859 437.549 327.859 437.538C327.859 437.527 327.859 437.516 327.859 437.505C327.859 437.494 327.859 437.484 327.859 437.473C327.859 437.462 327.859 437.451 327.859 437.44C327.859 437.429 327.859 437.419 327.859 437.408C327.859 437.397 327.859 437.386 327.859 437.375C327.859 437.365 327.859 437.354 327.859 437.343C327.859 437.332 327.859 437.321 327.859 437.31C327.859 437.3 327.859 437.289 327.859 437.278C327.859 437.267 327.859 437.256 327.859 437.246C327.859 437.235 327.859 437.224 327.859 437.213C327.859 437.202 327.859 437.192 327.859 437.181C327.859 437.17 327.859 437.159 327.859 437.148C327.859 437.138 327.859 437.127 327.859 437.116C327.859 437.105 327.859 437.094 327.859 437.083C327.859 437.073 327.859 437.062 327.859 437.051C327.859 437.04 327.859 437.029 327.859 437.019C327.859 437.008 327.859 436.997 327.859 436.986C327.859 436.975 327.859 436.965 327.859 436.954C327.859 436.943 327.859 436.932 327.859 436.922C327.859 436.911 327.859 436.9 327.859 436.889C327.859 436.878 327.859 436.868 327.859 436.857C327.859 436.846 327.859 436.835 327.859 436.824C327.859 436.814 327.859 436.803 327.859 436.792C327.859 436.781 327.859 436.77 327.859 436.76C327.859 436.749 327.859 436.738 327.859 436.727C327.859 436.717 327.859 436.706 327.859 436.695C327.859 436.684 327.859 436.673 327.859 436.663C327.859 436.652 327.859 436.641 327.859 436.63C327.859 436.619 327.859 436.609 327.859 436.598C327.859 436.587 327.859 436.576 327.859 436.566C327.859 436.555 327.859 436.544 327.859 436.533C327.859 436.522 327.859 436.512 327.859 436.501C327.859 436.49 327.859 436.479 327.859 436.469C327.859 436.458 327.859 436.447 327.859 436.436C327.859 436.426 327.859 436.415 327.859 436.404C327.859 436.393 327.859 436.382 327.859 436.372C327.859 436.361 327.859 436.35 327.859 436.339C327.859 436.329 327.859 436.318 327.859 436.307C327.859 436.296 327.859 436.286 327.859 436.275C327.859 436.264 327.859 436.253 327.859 436.243C327.859 436.232 327.859 436.221 327.859 436.21C327.859 436.199 327.859 436.189 327.859 436.178C327.859 436.167 327.859 436.156 327.859 436.146C327.859 436.135 327.859 436.124 327.859 436.113C327.859 436.103 327.859 436.092 327.859 436.081C327.859 436.07 327.859 436.06 327.859 436.049C327.859 436.038 327.859 436.027 327.859 436.017C327.859 436.006 327.859 435.995 327.859 435.984C327.859 435.974 327.859 435.963 327.859 435.952C327.859 435.941 327.859 435.931 327.859 435.92H321.859ZM321.859 453.059H315.859V463.215H321.859H327.859V453.059H321.859ZM321.859 463.215L327.162 466.022C334.467 452.224 343.789 440.067 355.141 429.526L351.059 425.129L346.976 420.732C334.631 432.196 324.486 445.429 316.557 460.408L321.859 463.215ZM351.059 425.129L355.147 429.52C366.991 418.493 380.04 409.525 394.305 402.596L391.684 397.199L389.062 391.802C373.705 399.261 359.67 408.913 346.97 420.738L351.059 425.129ZM391.684 397.199L394.367 402.566C409.159 395.17 424.78 389.618 441.243 385.914L439.926 380.061L438.609 374.207C421.217 378.12 404.677 383.994 389 391.833L391.684 397.199ZM439.926 380.061L441.243 385.914C457.749 382.2 474.234 380.348 490.707 380.348V374.348V368.348C473.326 368.348 455.957 370.303 438.609 374.207L439.926 380.061ZM490.707 374.348V380.348C503.872 380.348 516.595 381.582 528.886 384.04L530.062 378.156L531.239 372.273C518.139 369.653 504.626 368.348 490.707 368.348V374.348ZM530.062 378.156L529.076 384.075C541.363 386.122 553.23 389.397 564.685 393.897L566.879 388.312L569.073 382.728C556.83 377.918 544.153 374.422 531.049 372.238L530.062 378.156Z" fill="#DC4E8E" mask="url(#path-2-outside-1_18_709)"/>
<defs>
<filter id="filter0_d_18_709" x="0.43347" y="0.328629" width="945.679" height="945.679" filterUnits="userSpaceOnUse" color-interpolation-filters="sRGB">
<feFlood flood-opacity="0" result="BackgroundImageFix"/>
<feColorMatrix in="SourceAlpha" type="matrix" values="0 0 0 0 0 0 0 0 0 0 0 0 0 0 0 0 0 0 127 0" result="hardAlpha"/>
<feMorphology radius="18.6714" operator="dilate" in="SourceAlpha" result="effect1_dropShadow_18_709"/>
<feOffset dy="24.8952"/>
<feGaussianBlur stdDeviation="12.4476"/>
<feComposite in2="hardAlpha" operator="out"/>
<feColorMatrix type="matrix" values="0 0 0 0 0.12549 0 0 0 0 0.278431 0 0 0 0 0.27451 0 0 0 0.28 0"/>
<feBlend mode="normal" in2="BackgroundImageFix" result="effect1_dropShadow_18_709"/>
<feBlend mode="normal" in="SourceGraphic" in2="effect1_dropShadow_18_709" result="shape"/>
</filter>
</defs>
</svg>
