<svg width="947" height="946" viewBox="0 0 947 946" fill="none" xmlns="http://www.w3.org/2000/svg">
<g filter="url(#filter0_d_18_693)">
<rect x="44" y="19" width="858.547" height="858.547" rx="121.718" fill="white"/>
</g>
<mask id="path-2-outside-1_18_693" maskUnits="userSpaceOnUse" x="292" y="209" width="310" height="498" fill="black">
<rect fill="white" x="292" y="209" width="310" height="498"/>
<path d="M581.602 223.908C590.911 226.024 595.566 233.853 595.566 247.395C593.451 259.667 589.854 275.536 584.775 295.002C579.697 314.045 573.984 333.934 567.637 354.67C561.289 374.982 554.941 394.66 548.594 413.703C542.246 432.323 536.956 447.346 532.725 458.771C529.762 466.389 525.954 477.391 521.299 491.779C517.067 505.744 512.412 521.19 507.334 538.117C502.256 555.044 497.178 572.395 492.1 590.168C487.445 607.518 483.001 623.387 478.77 637.775C474.538 652.163 471.152 664.012 468.613 673.322C466.074 682.632 464.805 687.499 464.805 687.922C463.958 691.73 461.631 694.904 457.822 697.443C454.437 699.982 449.57 701.04 443.223 700.617C439.414 699.348 436.24 696.809 433.701 693C431.162 689.615 430.104 684.748 430.527 678.4C430.951 677.131 432.432 671.63 434.971 661.896C437.933 652.163 441.318 640.103 445.127 625.715C449.359 610.904 454.014 594.823 459.092 577.473C464.17 559.699 469.036 542.561 473.691 526.057C478.77 509.13 483.424 493.684 487.656 479.719C492.311 465.331 496.331 454.117 499.717 446.076C503.949 435.074 508.815 421.32 514.316 404.816C519.818 388.312 525.107 371.174 530.186 353.4C535.687 335.627 540.765 318.065 545.42 300.715C550.498 283.365 554.518 268.553 557.48 256.281C548.594 255.012 536.322 253.742 520.664 252.473C505.43 251.203 487.656 250.568 467.344 250.568C450.84 250.568 433.913 251.203 416.562 252.473C399.212 253.742 383.132 255.012 368.32 256.281C353.932 257.551 341.872 258.82 332.139 260.09C322.406 261.359 317.116 261.994 316.27 261.994C312.038 261.994 308.229 260.513 304.844 257.551C301.458 254.589 299.342 250.145 298.496 244.221C298.496 239.989 299.977 236.392 302.939 233.43C305.479 230.044 309.076 227.928 313.73 227.082C314.577 227.082 319.867 226.447 329.6 225.178C339.333 223.908 351.393 222.639 365.781 221.369C380.592 219.676 396.885 218.195 414.658 216.926C432.432 215.656 449.993 215.021 467.344 215.021C501.621 215.021 528.916 216.503 549.229 219.465C569.964 222.427 580.755 223.908 581.602 223.908Z"/>
</mask>
<path d="M581.602 223.908C590.911 226.024 595.566 233.853 595.566 247.395C593.451 259.667 589.854 275.536 584.775 295.002C579.697 314.045 573.984 333.934 567.637 354.67C561.289 374.982 554.941 394.66 548.594 413.703C542.246 432.323 536.956 447.346 532.725 458.771C529.762 466.389 525.954 477.391 521.299 491.779C517.067 505.744 512.412 521.19 507.334 538.117C502.256 555.044 497.178 572.395 492.1 590.168C487.445 607.518 483.001 623.387 478.77 637.775C474.538 652.163 471.152 664.012 468.613 673.322C466.074 682.632 464.805 687.499 464.805 687.922C463.958 691.73 461.631 694.904 457.822 697.443C454.437 699.982 449.57 701.04 443.223 700.617C439.414 699.348 436.24 696.809 433.701 693C431.162 689.615 430.104 684.748 430.527 678.4C430.951 677.131 432.432 671.63 434.971 661.896C437.933 652.163 441.318 640.103 445.127 625.715C449.359 610.904 454.014 594.823 459.092 577.473C464.17 559.699 469.036 542.561 473.691 526.057C478.77 509.13 483.424 493.684 487.656 479.719C492.311 465.331 496.331 454.117 499.717 446.076C503.949 435.074 508.815 421.32 514.316 404.816C519.818 388.312 525.107 371.174 530.186 353.4C535.687 335.627 540.765 318.065 545.42 300.715C550.498 283.365 554.518 268.553 557.48 256.281C548.594 255.012 536.322 253.742 520.664 252.473C505.43 251.203 487.656 250.568 467.344 250.568C450.84 250.568 433.913 251.203 416.562 252.473C399.212 253.742 383.132 255.012 368.32 256.281C353.932 257.551 341.872 258.82 332.139 260.09C322.406 261.359 317.116 261.994 316.27 261.994C312.038 261.994 308.229 260.513 304.844 257.551C301.458 254.589 299.342 250.145 298.496 244.221C298.496 239.989 299.977 236.392 302.939 233.43C305.479 230.044 309.076 227.928 313.73 227.082C314.577 227.082 319.867 226.447 329.6 225.178C339.333 223.908 351.393 222.639 365.781 221.369C380.592 219.676 396.885 218.195 414.658 216.926C432.432 215.656 449.993 215.021 467.344 215.021C501.621 215.021 528.916 216.503 549.229 219.465C569.964 222.427 580.755 223.908 581.602 223.908Z" fill="#FF6835"/>
<path d="M581.602 223.908L582.931 218.057L582.275 217.908H581.602V223.908ZM595.566 247.395L601.479 248.414L601.566 247.908V247.395H595.566ZM584.775 295.002L590.573 296.548L590.577 296.532L590.581 296.516L584.775 295.002ZM567.637 354.67L573.364 356.46L573.369 356.443L573.374 356.426L567.637 354.67ZM548.594 413.703L554.273 415.639L554.279 415.62L554.286 415.6L548.594 413.703ZM532.725 458.771L538.317 460.946L538.334 460.901L538.351 460.855L532.725 458.771ZM521.299 491.779L515.59 489.932L515.573 489.986L515.557 490.039L521.299 491.779ZM492.1 590.168L486.33 588.52L486.317 588.566L486.305 588.613L492.1 590.168ZM478.77 637.775L473.013 636.082L478.77 637.775ZM464.805 687.922L470.662 689.223L470.805 688.581V687.922H464.805ZM457.822 697.443L454.494 692.451L454.355 692.543L454.222 692.643L457.822 697.443ZM443.223 700.617L441.325 706.309L442.056 706.553L442.824 706.604L443.223 700.617ZM433.701 693L438.693 689.672L438.601 689.533L438.501 689.4L433.701 693ZM430.527 678.4L424.835 676.503L424.592 677.233L424.541 678.001L430.527 678.4ZM434.971 661.896L429.231 660.15L429.195 660.265L429.165 660.382L434.971 661.896ZM445.127 625.715L439.358 624.067L439.342 624.123L439.327 624.179L445.127 625.715ZM459.092 577.473L464.85 579.158L464.856 579.14L464.861 579.121L459.092 577.473ZM473.691 526.057L467.944 524.333L467.93 524.38L467.917 524.428L473.691 526.057ZM487.656 479.719L481.948 477.872L481.93 477.925L481.914 477.979L487.656 479.719ZM499.717 446.076L505.247 448.405L505.283 448.318L505.317 448.23L499.717 446.076ZM530.186 353.4L524.454 351.626L524.434 351.689L524.416 351.752L530.186 353.4ZM545.42 300.715L539.661 299.029L539.642 299.095L539.625 299.16L545.42 300.715ZM557.48 256.281L563.313 257.689L564.861 251.275L558.329 250.342L557.48 256.281ZM520.664 252.473L520.166 258.452L520.179 258.453L520.664 252.473ZM368.32 256.281L367.808 250.303L367.8 250.304L367.793 250.304L368.32 256.281ZM304.844 257.551L300.893 262.066L304.844 257.551ZM298.496 244.221H292.496V244.647L292.556 245.069L298.496 244.221ZM302.939 233.43L307.182 237.672L307.484 237.371L307.739 237.03L302.939 233.43ZM313.73 227.082V221.082H313.189L312.657 221.179L313.73 227.082ZM365.781 221.369L366.309 227.346L366.386 227.339L366.463 227.33L365.781 221.369ZM549.229 219.465L548.363 225.402L548.371 225.403L548.38 225.405L549.229 219.465ZM581.602 223.908L580.272 229.759C583.41 230.472 585.475 232.007 586.918 234.433C588.488 237.074 589.566 241.214 589.566 247.395H595.566H601.566C601.566 240.034 600.317 233.488 597.232 228.3C594.02 222.898 589.103 219.46 582.931 218.057L581.602 223.908ZM595.566 247.395L589.654 246.375C587.578 258.412 584.028 274.099 578.97 293.487L584.775 295.002L590.581 296.516C595.679 276.973 599.323 260.922 601.479 248.414L595.566 247.395ZM584.775 295.002L578.978 293.456C573.92 312.422 568.228 332.241 561.9 352.914L567.637 354.67L573.374 356.426C579.741 335.628 585.474 315.668 590.573 296.548L584.775 295.002ZM567.637 354.67L561.91 352.88C555.573 373.159 549.237 392.801 542.902 411.806L548.594 413.703L554.286 415.6C560.646 396.52 567.005 376.806 573.364 356.46L567.637 354.67ZM548.594 413.703L542.915 411.767C536.575 430.363 531.304 445.331 527.098 456.688L532.725 458.771L538.351 460.855C542.609 449.36 547.917 434.282 554.273 415.639L548.594 413.703ZM532.725 458.771L527.133 456.597C524.107 464.377 520.256 475.51 515.59 489.932L521.299 491.779L527.007 493.626C531.651 479.273 535.418 468.4 538.317 460.946L532.725 458.771ZM521.299 491.779L515.557 490.039C511.323 504.01 506.666 519.462 501.587 536.393L507.334 538.117L513.081 539.841C518.158 522.918 522.811 507.478 527.041 493.519L521.299 491.779ZM507.334 538.117L501.587 536.393C496.501 553.347 491.415 570.722 486.33 588.52L492.1 590.168L497.869 591.816C502.94 574.067 508.011 556.742 513.081 539.841L507.334 538.117ZM492.1 590.168L486.305 588.613C481.66 605.926 477.229 621.748 473.013 636.082L478.77 637.775L484.526 639.468C488.773 625.027 493.23 609.111 497.895 591.723L492.1 590.168ZM478.77 637.775L473.013 636.082C468.776 650.49 465.378 662.381 462.825 671.744L468.613 673.322L474.402 674.901C476.926 665.644 480.3 653.837 484.526 639.468L478.77 637.775ZM468.613 673.322L462.825 671.744C461.554 676.404 460.594 679.974 459.951 682.44C459.631 683.669 459.381 684.652 459.208 685.371C459.123 685.726 459.047 686.057 458.989 686.339C458.96 686.477 458.926 686.649 458.897 686.83C458.885 686.901 458.805 687.366 458.805 687.922H464.805H470.805C470.805 688.614 470.66 689.158 470.74 688.771C470.761 688.669 470.803 688.478 470.877 688.172C471.022 687.568 471.248 686.674 471.563 685.469C472.189 683.069 473.134 679.55 474.402 674.901L468.613 673.322ZM464.805 687.922L458.948 686.62C458.494 688.66 457.254 690.611 454.494 692.451L457.822 697.443L461.15 702.436C466.008 699.198 469.422 694.801 470.662 689.223L464.805 687.922ZM457.822 697.443L454.222 692.643C452.442 693.979 449.234 695.005 443.622 694.63L443.223 700.617L442.824 706.604C449.907 707.076 456.432 705.986 461.422 702.243L457.822 697.443ZM443.223 700.617L445.12 694.925C442.752 694.136 440.601 692.534 438.693 689.672L433.701 693L428.709 696.328C431.879 701.084 436.077 704.56 441.325 706.309L443.223 700.617ZM433.701 693L438.501 689.4C437.166 687.619 436.14 684.411 436.514 678.8L430.527 678.4L424.541 678.001C424.068 685.085 425.159 691.61 428.901 696.6L433.701 693ZM430.527 678.4L436.219 680.298C436.725 678.782 438.275 673 440.776 663.411L434.971 661.896L429.165 660.382C426.588 670.259 425.177 675.479 424.835 676.503L430.527 678.4ZM434.971 661.896L440.711 663.643C443.702 653.816 447.108 641.68 450.927 627.25L445.127 625.715L439.327 624.179C435.529 638.526 432.164 650.511 429.231 660.15L434.971 661.896ZM445.127 625.715L450.896 627.363C455.124 612.566 459.775 596.498 464.85 579.158L459.092 577.473L453.333 575.787C448.252 593.148 443.594 609.241 439.358 624.067L445.127 625.715ZM459.092 577.473L464.861 579.121C469.941 561.342 474.809 544.196 479.466 527.685L473.691 526.057L467.917 524.428C463.264 540.925 458.399 558.057 453.323 575.824L459.092 577.473ZM473.691 526.057L479.438 527.781C484.515 510.858 489.169 495.417 493.398 481.459L487.656 479.719L481.914 477.979C477.68 491.95 473.024 507.401 467.944 524.333L473.691 526.057ZM487.656 479.719L493.365 481.566C497.999 467.241 501.959 456.214 505.247 448.405L499.717 446.076L494.187 443.748C490.704 452.019 486.623 463.42 481.948 477.872L487.656 479.719ZM499.717 446.076L505.317 448.23C509.593 437.113 514.491 423.268 520.009 406.714L514.316 404.816L508.624 402.919C503.14 419.373 498.305 433.034 494.117 443.922L499.717 446.076ZM514.316 404.816L520.009 406.714C525.539 390.122 530.854 372.901 535.955 355.049L530.186 353.4L524.416 351.752C519.361 369.447 514.096 386.503 508.624 402.919L514.316 404.816ZM530.186 353.4L535.917 355.174C541.44 337.331 546.54 319.696 551.215 302.27L545.42 300.715L539.625 299.16C534.99 316.434 529.933 333.923 524.454 351.626L530.186 353.4ZM545.42 300.715L551.178 302.4C556.273 284.994 560.321 270.084 563.313 257.689L557.48 256.281L551.648 254.873C548.715 267.022 544.723 281.736 539.661 299.029L545.42 300.715ZM557.48 256.281L558.329 250.342C549.265 249.047 536.853 247.766 521.149 246.492L520.664 252.473L520.179 258.453C535.791 259.719 547.923 260.977 556.632 262.221L557.48 256.281ZM520.664 252.473L521.162 246.493C505.719 245.206 487.772 244.568 467.344 244.568V250.568V256.568C487.54 256.568 505.141 257.2 520.166 258.452L520.664 252.473ZM467.344 250.568V244.568C450.686 244.568 433.613 245.209 416.125 246.489L416.562 252.473L417 258.457C434.213 257.197 450.994 256.568 467.344 256.568V250.568ZM416.562 252.473L416.125 246.489C398.754 247.76 382.648 249.031 367.808 250.303L368.32 256.281L368.833 262.259C383.615 260.992 399.671 259.725 417 258.457L416.562 252.473ZM368.32 256.281L367.793 250.304C353.357 251.578 341.207 252.856 331.363 254.14L332.139 260.09L332.915 266.039C342.537 264.784 354.508 263.523 368.848 262.258L368.32 256.281ZM332.139 260.09L331.363 254.14C326.503 254.774 322.771 255.247 320.157 255.561C317.279 255.906 316.232 255.994 316.27 255.994V261.994V267.994C317.153 267.994 319.174 267.765 321.586 267.475C324.262 267.154 328.042 266.675 332.915 266.039L332.139 260.09ZM316.27 261.994V255.994C313.588 255.994 311.161 255.106 308.795 253.035L304.844 257.551L300.893 262.066C305.297 265.92 310.488 267.994 316.27 267.994V261.994ZM304.844 257.551L308.795 253.035C306.803 251.292 305.147 248.351 304.436 243.372L298.496 244.221L292.556 245.069C293.538 251.94 296.114 257.885 300.893 262.066L304.844 257.551ZM298.496 244.221H304.496C304.496 241.562 305.358 239.497 307.182 237.672L302.939 233.43L298.697 229.187C294.597 233.287 292.496 238.416 292.496 244.221H298.496ZM302.939 233.43L307.739 237.03C309.261 235 311.447 233.596 314.804 232.985L313.73 227.082L312.657 221.179C306.704 222.261 301.696 225.088 298.139 229.83L302.939 233.43ZM313.73 227.082V233.082C314.614 233.082 316.635 232.853 319.047 232.563C321.723 232.242 325.503 231.763 330.376 231.127L329.6 225.178L328.824 219.228C323.964 219.862 320.232 220.335 317.618 220.649C314.74 220.994 313.693 221.082 313.73 221.082V227.082ZM329.6 225.178L330.376 231.127C339.997 229.872 351.969 228.611 366.309 227.346L365.781 221.369L365.254 215.392C350.818 216.666 338.668 217.944 328.824 219.228L329.6 225.178ZM365.781 221.369L366.463 227.33C381.175 225.649 397.381 224.175 415.086 222.911L414.658 216.926L414.231 210.941C396.388 212.215 380.01 213.704 365.1 215.408L365.781 221.369ZM414.658 216.926L415.086 222.911C432.721 221.651 450.14 221.021 467.344 221.021V215.021V209.021C449.847 209.021 432.143 209.662 414.231 210.941L414.658 216.926ZM467.344 215.021V221.021C501.496 221.021 528.463 222.5 548.363 225.402L549.229 219.465L550.094 213.528C529.369 210.505 501.747 209.021 467.344 209.021V215.021ZM549.229 219.465L548.38 225.405C558.751 226.886 566.645 227.999 572.058 228.742C574.761 229.113 576.861 229.394 578.345 229.582C579.084 229.677 579.692 229.751 580.155 229.802C580.45 229.835 581.089 229.908 581.602 229.908V223.908V217.908C581.903 217.908 582.019 217.935 581.481 217.875C581.111 217.834 580.575 217.77 579.86 217.679C578.434 217.497 576.381 217.223 573.689 216.853C568.311 216.115 560.442 215.006 550.077 213.525L549.229 219.465Z" fill="#FF6835" mask="url(#path-2-outside-1_18_693)"/>
<defs>
<filter id="filter0_d_18_693" x="0.43347" y="0.328629" width="945.68" height="945.679" filterUnits="userSpaceOnUse" color-interpolation-filters="sRGB">
<feFlood flood-opacity="0" result="BackgroundImageFix"/>
<feColorMatrix in="SourceAlpha" type="matrix" values="0 0 0 0 0 0 0 0 0 0 0 0 0 0 0 0 0 0 127 0" result="hardAlpha"/>
<feMorphology radius="18.6714" operator="dilate" in="SourceAlpha" result="effect1_dropShadow_18_693"/>
<feOffset dy="24.8952"/>
<feGaussianBlur stdDeviation="12.4476"/>
<feComposite in2="hardAlpha" operator="out"/>
<feColorMatrix type="matrix" values="0 0 0 0 0.12549 0 0 0 0 0.278431 0 0 0 0 0.27451 0 0 0 0.28 0"/>
<feBlend mode="normal" in2="BackgroundImageFix" result="effect1_dropShadow_18_693"/>
<feBlend mode="normal" in="SourceGraphic" in2="effect1_dropShadow_18_693" result="shape"/>
</filter>
</defs>
</svg>
